{"glyphs":{"0":{"ha":946,"x_min":0,"x_max":0,"o":"m 346 -501 b 769 -6 514 -501 683 -315 b 826 379 807 129 826 258 b 653 911 826 642 731 824 b 424 1032 583 988 499 1032 l 394 1029 b 360 989 376 1028 360 1007 b 401 949 361 965 379 949 l 424 950 b 490 936 451 950 481 942 b 60 181 457 922 126 768 b 50 10 53 121 50 64 b 346 -501 50 -310 175 -501 z m 346 -419 b 132 6 231 -419 132 -282 b 142 172 132 57 135 113 b 379 757 178 490 290 664 b 561 876 475 853 560 876 l 571 879 b 744 379 619 838 744 689 b 690 15 744 276 729 156 b 346 -419 607 -292 460 -419 z "},"1":{"ha":444,"x_min":0,"x_max":0,"o":"m 90 -708 b 131 -672 108 -708 129 -693 l 394 1281 b 354 1324 394 1301 376 1322 b 313 1288 336 1324 317 1307 l 50 -665 b 86 -708 50 -685 65 -704 z "},"2":{"ha":1122,"x_min":0,"x_max":0,"o":"m 90 -487 b 119 -476 101 -487 113 -483 b 769 -315 156 -454 517 -315 b 992 -429 899 -315 981 -347 b 1035 -464 996 -450 1017 -464 b 1072 -422 1057 -462 1072 -442 b 771 -233 1065 -337 988 -233 b 226 -346 576 -233 328 -307 b 626 185 293 -264 464 -44 b 1039 974 897 564 1039 838 b 1017 1054 1039 1006 1032 1033 b 847 1149 976 1115 915 1149 b 508 956 746 1149 621 1074 b 408 788 479 925 408 843 b 464 735 411 757 431 735 b 504 775 485 735 504 754 b 494 804 504 788 497 801 b 797 1058 510 846 656 1018 b 850 1068 817 1065 833 1068 b 950 1010 892 1068 922 1050 b 957 974 954 1003 957 993 b 561 231 957 894 894 703 b 63 -417 338 -85 94 -379 b 50 -446 51 -428 50 -436 b 90 -487 50 -468 69 -487 z "},"3":{"ha":1001,"x_min":0,"x_max":0,"o":"m 321 -704 b 782 -367 488 -704 671 -576 b 863 -62 835 -267 863 -160 b 553 275 863 114 772 242 b 456 282 519 279 486 282 b 951 925 608 397 951 692 b 744 1136 951 1043 861 1135 b 289 871 546 1136 300 882 b 279 843 283 864 279 853 b 319 801 279 824 299 801 b 349 815 329 801 342 807 b 744 1056 350 817 581 1056 b 869 924 822 1056 869 999 b 296 264 869 665 301 268 b 279 229 286 257 279 243 b 319 192 283 207 296 192 l 325 192 b 446 200 328 192 378 200 b 775 8 571 200 746 172 b 782 -61 779 -14 782 -37 b 469 -583 782 -260 649 -489 b 321 -624 426 -606 376 -624 b 119 -532 256 -624 189 -600 b 92 -519 113 -524 100 -519 b 50 -560 71 -519 50 -540 b 63 -589 50 -569 54 -582 b 321 -704 139 -665 228 -704 z "},"4":{"ha":1013,"x_min":0,"x_max":0,"o":"m 554 -787 b 594 -747 578 -787 594 -765 b 585 -696 594 -715 585 -719 b 753 222 585 -625 610 -412 b 961 1096 853 663 960 1090 l 963 1106 b 922 1146 963 1126 944 1144 b 882 1115 899 1146 889 1129 b 583 586 881 1113 744 844 b 165 101 318 157 206 101 b 131 182 138 104 131 122 b 358 914 131 364 286 756 l 361 928 b 321 971 361 953 344 965 b 283 947 306 971 289 961 b 50 181 256 886 50 421 b 164 21 50 74 92 26 b 397 181 228 21 306 75 b 804 800 535 340 724 651 b 668 215 785 718 725 468 b 504 -699 536 -375 504 -604 b 526 -778 504 -757 518 -771 b 554 -787 535 -783 544 -787 z "},"5":{"ha":1000,"x_min":0,"x_max":0,"o":"m 236 -662 b 286 -657 256 -662 274 -660 b 651 -324 404 -628 544 -500 b 804 168 749 -161 804 15 b 800 238 804 192 803 215 b 576 426 783 365 697 426 b 196 317 435 426 261 349 l 331 849 b 914 1004 486 899 788 990 b 950 1044 933 1006 950 1026 b 910 1085 949 1067 931 1085 l 906 1085 b 353 942 778 1072 501 989 l 369 1004 l 369 1013 b 331 1054 369 1035 354 1053 b 289 1024 314 1054 294 1042 l 261 913 b 189 888 224 901 194 890 b 163 851 174 883 163 865 b 203 810 163 831 182 810 b 215 813 206 810 211 810 l 239 819 l 94 240 b 135 197 94 218 115 197 b 156 203 142 197 149 200 b 578 346 236 249 438 346 b 657 331 608 346 635 342 b 722 165 708 303 722 247 b 581 -281 722 28 672 -129 b 236 -581 472 -464 331 -581 b 128 -483 188 -581 154 -550 b 89 -456 122 -467 106 -456 b 50 -496 67 -458 50 -472 b 53 -510 50 -500 50 -506 b 236 -662 97 -632 176 -662 z "},"6":{"ha":878,"x_min":0,"x_max":0,"o":"m 319 -443 b 781 -175 486 -443 690 -326 b 828 -7 811 -119 828 -62 b 774 157 828 47 807 108 b 561 268 725 232 644 268 b 156 31 386 267 215 99 b 351 528 175 126 244 310 b 707 1111 508 844 678 1090 b 731 1149 721 1115 731 1133 b 690 1189 729 1171 714 1189 l 685 1189 b 547 1035 671 1186 646 1181 b 353 707 486 942 417 825 b 50 -151 232 482 50 103 b 294 -443 50 -324 144 -431 z m 321 -362 b 132 -150 196 -357 132 -300 l 133 -126 b 563 188 133 -126 360 185 b 714 104 621 188 669 161 b 747 -8 739 65 747 28 b 710 -132 747 -56 731 -99 b 321 -362 633 -262 461 -362 z "},"7":{"ha":913,"x_min":0,"x_max":0,"o":"m 175 -642 b 217 -610 193 -642 211 -626 b 521 254 275 -361 400 -37 l 542 254 b 697 222 618 254 675 244 b 726 208 704 214 717 208 b 767 250 747 208 767 229 b 757 278 767 258 763 269 b 556 336 719 317 644 336 b 863 1153 757 817 863 1053 b 776 1228 863 1201 835 1228 b 417 1119 718 1228 613 1200 b 71 963 242 1049 72 964 b 50 928 58 957 50 942 b 90 888 50 908 69 888 b 110 893 96 888 103 889 b 433 1040 111 894 268 971 b 776 1147 658 1132 744 1147 l 785 1147 b 782 1151 785 1147 782 1147 b 728 965 782 1136 775 1092 b 467 333 651 763 601 654 l 371 325 b 94 278 226 308 96 278 b 63 235 76 272 63 253 b 111 197 65 204 89 197 b 432 250 208 219 338 243 b 136 -593 318 -28 194 -343 l 136 -600 b 175 -642 136 -624 153 -637 z "},"8":{"ha":1121,"x_min":0,"x_max":0,"o":"m 290 -512 b 635 -433 400 -512 531 -481 b 888 -158 803 -358 882 -267 b 622 215 888 -22 751 108 b 863 500 663 256 765 369 b 1072 914 1003 683 1072 822 b 939 1049 1072 969 1046 1036 b 879 1051 919 1050 899 1051 b 329 799 681 1051 460 951 b 226 557 263 721 226 635 b 235 490 226 535 229 511 b 503 208 258 403 376 310 b 51 -324 415 139 69 -147 l 50 -346 b 290 -512 50 -456 151 -512 z m 293 -432 b 131 -346 194 -432 131 -408 b 567 156 139 -206 422 40 b 806 -160 688 54 806 -58 b 600 -361 803 -232 736 -300 b 293 -432 497 -407 383 -432 z m 560 265 b 314 510 440 364 331 447 b 307 556 310 525 307 540 b 390 746 307 617 336 681 b 876 969 508 883 700 969 b 929 967 894 969 913 969 b 986 936 978 963 983 944 b 990 913 989 929 990 922 b 560 265 990 757 667 376 z "},"9":{"ha":767,"x_min":0,"x_max":0,"o":"m 481 -733 b 521 -693 499 -733 521 -714 b 506 -565 521 -667 506 -662 b 588 228 506 -450 522 -222 b 717 1031 646 635 715 1026 l 717 1038 b 678 1079 717 1061 700 1076 b 639 1054 663 1079 647 1071 b 599 981 639 1053 621 1019 b 390 1100 564 1021 485 1100 b 310 1081 365 1100 338 1094 b 50 485 182 1017 50 675 b 132 321 54 375 89 335 b 161 317 140 318 150 317 b 500 658 217 317 314 375 b 617 846 544 726 588 796 l 603 853 b 506 238 578 707 540 475 b 424 -565 442 -211 424 -443 b 444 -711 424 -672 438 -699 b 481 -733 451 -725 468 -733 z m 160 397 b 131 485 135 401 133 435 b 346 1008 131 657 256 963 b 390 1019 361 1015 376 1019 b 556 904 451 1019 508 961 b 431 703 524 851 479 776 b 160 397 249 424 181 397 z "}," ":{"ha":706,"x_min":0,"x_max":0,"o":""},"!":{"ha":628,"x_min":0,"x_max":0,"o":"m 210 -86 b 249 -44 231 -86 249 -64 l 249 -39 b 490 1547 249 104 468 1481 l 493 1560 b 453 1603 493 1582 472 1603 b 417 1583 440 1603 425 1594 b 281 796 399 1551 300 921 b 167 -43 253 621 167 50 b 210 -86 167 -68 188 -86 z m 190 -375 b 233 -333 213 -375 233 -354 b 190 -290 233 -311 213 -290 b 149 -333 169 -290 149 -311 b 190 -375 149 -354 169 -375 z "},"\"":{"ha":346,"x_min":0,"x_max":0,"o":"m 90 1046 b 131 1085 111 1046 131 1065 l 138 1235 b 99 1278 138 1256 118 1276 b 56 1239 78 1278 57 1258 l 50 1088 b 89 1046 49 1067 68 1047 z m 250 1046 b 290 1085 271 1046 290 1065 l 296 1239 b 257 1278 296 1258 276 1276 b 215 1238 238 1278 215 1258 l 208 1088 b 250 1046 208 1065 229 1046 z "},"#":{"ha":1229,"x_min":0,"x_max":0,"o":"m 622 -611 b 665 -574 644 -611 664 -592 l 733 290 l 849 319 b 879 360 867 325 879 343 b 838 400 879 383 864 407 l 740 376 l 763 672 b 1083 732 896 707 1017 732 b 1136 722 1110 732 1115 728 b 1179 761 1160 717 1175 740 b 1156 800 1179 776 1169 793 b 1086 811 1146 804 1129 811 b 771 758 1033 811 936 800 l 818 1356 b 778 1397 818 1378 799 1396 b 738 1358 757 1397 738 1378 l 688 736 b 449 667 571 704 546 697 l 488 1049 b 446 1090 488 1075 467 1089 b 407 1054 428 1090 408 1074 l 365 640 b 136 564 236 599 138 564 b 107 525 119 557 107 540 b 147 483 107 507 126 483 b 163 488 151 483 158 486 b 356 551 225 508 297 532 l 328 269 l 211 240 b 181 199 193 235 181 215 b 221 160 182 175 200 160 b 232 163 224 160 228 160 l 318 183 l 278 -208 b 315 -250 276 -224 290 -247 b 360 -214 335 -250 357 -237 l 401 206 l 650 269 l 583 -568 b 619 -610 583 -587 601 -610 z m 411 292 l 440 578 b 681 650 521 604 611 631 l 657 354 z "},"$":{"ha":975,"x_min":0,"x_max":0,"o":"m 386 -617 l 400 -614 b 425 -575 414 -607 425 -592 b 413 -421 418 -546 413 -532 b 424 -76 413 -332 417 -211 b 713 290 567 -26 713 114 b 469 633 713 418 590 526 l 469 632 b 507 1106 481 789 494 954 b 565 1115 522 1111 543 1115 b 638 1092 593 1115 617 1108 b 701 921 683 1056 701 985 b 692 843 701 888 696 871 b 732 801 692 819 710 804 b 772 831 749 801 767 815 b 783 922 779 857 783 889 b 689 1156 783 1003 757 1101 b 565 1196 661 1176 621 1196 b 514 1192 546 1196 522 1193 b 547 1560 524 1308 536 1439 l 547 1564 b 506 1604 547 1585 529 1603 b 465 1567 488 1604 467 1588 l 431 1164 b 383 1142 419 1160 403 1151 b 182 897 243 1065 188 992 b 386 599 182 788 285 688 b 344 -14 365 328 354 156 b 299 -19 317 -19 308 -19 l 286 -19 b 131 85 228 -19 156 -4 b 90 113 125 99 107 113 b 50 71 69 108 50 96 l 51 61 b 285 -100 81 -40 171 -100 b 340 -97 301 -100 321 -100 b 346 -94 343 -96 346 -96 l 342 -94 b 332 -412 335 -233 332 -340 b 347 -592 332 -556 342 -581 b 386 -617 353 -606 369 -617 z m 428 14 b 463 531 436 161 449 354 b 631 289 551 451 631 375 b 428 14 631 158 528 53 z m 393 701 b 264 897 331 758 264 831 b 424 1069 267 958 310 1010 l 431 1075 l 424 1072 b 393 701 414 967 403 824 z "},"%":{"ha":1081,"x_min":0,"x_max":0,"o":"m 93 -696 b 132 -657 113 -696 132 -676 l 132 -626 b 1025 1464 132 -50 1017 1449 b 1031 1485 1028 1469 1031 1478 b 990 1525 1031 1504 1011 1525 b 972 1521 985 1525 978 1524 l 200 1142 b 186 1128 194 1138 189 1132 b 83 875 132 1089 83 968 b 219 718 89 769 146 718 b 371 881 292 721 371 774 b 283 1092 371 965 308 1058 l 888 1389 b 50 -626 721 1099 50 -97 l 51 -657 b 93 -696 51 -681 72 -696 z m 224 799 l 221 799 b 165 882 186 799 169 817 b 217 1046 165 950 200 1028 b 289 881 242 1014 289 938 b 224 799 289 828 257 801 z m 561 -279 b 761 -75 657 -279 753 -197 b 624 114 761 1 710 71 b 604 119 618 117 611 119 l 597 118 l 585 119 b 393 -108 518 119 393 11 b 561 -279 393 -196 474 -279 z m 561 -199 b 475 -108 525 -199 475 -162 b 504 -26 475 -74 493 -43 b 578 39 536 19 572 39 b 601 32 582 35 593 32 l 604 32 b 681 -75 654 3 681 -33 b 561 -199 676 -136 631 -199 z "},"&":{"ha":1264,"x_min":0,"x_max":0,"o":"m 394 -690 b 436 -650 414 -690 436 -669 b 431 -581 433 -629 431 -621 b 456 -242 431 -510 439 -392 b 535 -190 478 -231 507 -211 b 1096 472 788 4 1083 453 b 1101 494 1100 479 1101 488 b 1061 535 1101 514 1082 535 b 1028 517 1050 535 1035 528 b 485 -125 1025 513 725 60 b 467 -140 472 -136 458 -144 b 550 481 485 13 514 233 b 789 579 676 551 786 579 b 821 618 807 585 821 601 b 779 660 818 640 806 660 l 774 660 b 575 638 686 646 615 639 l 636 1032 b 751 1071 672 1051 714 1071 b 778 1063 764 1071 771 1068 b 797 1000 793 1050 797 1025 b 794 965 797 983 794 978 b 835 925 794 943 813 926 b 875 957 853 925 871 939 b 879 1000 876 961 879 978 b 832 1125 879 1036 871 1092 b 751 1151 811 1143 782 1151 b 654 1129 706 1151 683 1142 b 729 1538 690 1347 721 1514 b 735 1557 732 1542 735 1550 b 694 1599 735 1576 717 1599 b 676 1594 689 1599 682 1597 b 590 1246 660 1586 649 1581 b 564 1085 581 1192 572 1136 b 267 718 424 1001 267 842 b 481 560 267 628 346 568 b 476 536 481 560 479 549 b 478 533 476 532 476 531 b 113 164 350 460 201 340 b 50 -62 71 82 50 4 b 272 -293 50 -203 146 -293 b 371 -278 308 -293 349 -286 b 350 -579 358 -389 350 -503 b 394 -690 350 -640 353 -690 z m 492 639 b 350 703 379 646 354 682 l 347 719 b 546 975 347 794 451 911 z m 271 -212 b 132 -61 186 -212 132 -160 b 185 128 132 -7 149 57 b 461 426 256 268 371 371 b 381 -187 436 258 403 15 b 271 -212 344 -203 307 -212 z "},"'":{"ha":188,"x_min":0,"x_max":0,"o":"m 90 1046 b 131 1085 111 1046 131 1065 l 138 1235 b 99 1278 138 1256 118 1276 b 56 1239 78 1278 57 1258 l 50 1088 b 89 1046 49 1067 68 1047 z "},"(":{"ha":992,"x_min":0,"x_max":0,"o":"m 589 -812 b 629 -771 608 -812 629 -793 b 625 -751 629 -765 628 -757 b 274 425 363 -299 274 94 b 421 1126 274 710 340 944 b 926 1789 613 1554 924 1786 b 942 1821 935 1794 942 1810 b 901 1861 942 1840 924 1861 b 878 1853 894 1861 883 1858 b 349 1163 864 1843 549 1608 b 190 428 244 931 190 683 b 554 -793 190 39 308 -367 b 589 -812 563 -803 575 -812 z "},")":{"ha":933,"x_min":0,"x_max":0,"o":"m 90 -714 b 122 -700 100 -714 114 -710 b 743 828 538 -222 743 300 b 731 1058 743 904 739 982 b 481 1838 678 1524 488 1825 b 446 1856 472 1849 457 1856 b 406 1815 425 1856 406 1835 b 411 1793 406 1808 407 1800 b 650 1050 413 1792 599 1496 b 663 835 657 983 663 911 b 60 -647 663 432 540 -97 b 50 -674 54 -654 50 -665 b 90 -714 50 -696 74 -714 z "},"*":{"ha":543,"x_min":0,"x_max":0,"o":"m 258 1119 b 299 1157 278 1119 297 1139 l 308 1306 l 431 1224 b 453 1217 436 1219 446 1217 b 493 1257 474 1217 493 1236 b 475 1292 493 1269 486 1285 l 339 1382 l 463 1490 b 476 1521 471 1499 476 1511 b 435 1563 476 1540 457 1563 b 408 1553 426 1563 415 1558 l 318 1472 l 326 1593 b 285 1635 326 1617 307 1633 b 244 1597 267 1635 246 1618 l 236 1450 l 113 1531 b 90 1539 107 1536 97 1539 b 50 1499 71 1539 50 1518 b 68 1465 50 1486 57 1472 l 204 1374 l 82 1265 b 68 1235 74 1257 68 1244 b 108 1193 68 1213 90 1193 b 136 1203 118 1193 128 1197 l 225 1282 l 218 1160 b 258 1119 218 1139 236 1119 z "},"+":{"ha":1168,"x_min":0,"x_max":0,"o":"m 517 -12 b 557 25 535 -12 556 6 l 593 471 b 767 482 649 476 711 482 b 924 450 844 482 900 472 b 951 440 932 444 943 440 b 993 481 972 440 993 461 b 979 510 993 490 988 503 b 763 563 942 546 868 563 b 600 553 711 563 653 560 l 624 860 b 583 900 624 882 606 899 b 543 864 565 900 544 883 l 518 544 l 521 544 b 183 482 344 521 185 482 b 150 442 164 476 150 458 b 199 401 154 413 169 401 b 511 461 293 424 411 447 l 476 29 b 517 -12 476 7 494 -12 z "},",":{"ha":440,"x_min":0,"x_max":0,"o":"m 90 -385 b 111 -379 97 -385 106 -382 b 292 -103 253 -301 290 -112 l 292 -97 b 251 -56 292 -72 274 -60 b 211 -90 233 -56 214 -72 b 71 -308 211 -92 179 -249 b 50 -344 58 -315 50 -331 b 90 -385 50 -362 68 -385 z "},"-":{"ha":1022,"x_min":0,"x_max":0,"o":"m 749 422 b 789 463 769 422 789 442 b 749 503 789 483 769 503 l 217 503 b 176 463 196 503 176 483 b 217 422 176 442 196 422 z "},".":{"ha":593,"x_min":0,"x_max":0,"o":"m 260 -22 b 303 21 282 -22 303 -1 b 260 63 303 42 282 63 b 218 21 239 63 218 42 b 260 -22 218 -1 239 -22 z "},"/":{"ha":1000,"x_min":0,"x_max":0,"o":"m 90 -757 b 131 -721 108 -757 129 -742 b 610 607 153 -547 322 -76 b 1082 1667 842 1157 1060 1632 b 1092 1692 1088 1672 1092 1683 b 1051 1733 1092 1713 1071 1733 b 1025 1725 1043 1733 1033 1731 b 861 1386 1019 1719 1007 1711 b 50 -711 718 1065 97 -332 l 50 -715 b 88 -757 50 -733 67 -756 z "},":":{"ha":371,"x_min":0,"x_max":0,"o":"m 92 -75 b 135 -33 114 -75 135 -54 b 92 10 135 -11 114 10 b 50 -33 71 10 50 -11 b 92 -75 50 -54 71 -75 z m 153 326 b 194 369 174 326 194 347 b 153 411 194 390 174 411 b 110 369 131 411 110 390 b 153 326 110 347 131 326 z "},";":{"ha":524,"x_min":0,"x_max":0,"o":"m 90 -318 b 111 -314 96 -318 104 -318 b 292 -37 253 -235 290 -46 l 292 -32 b 253 10 292 -10 275 8 b 211 -24 235 10 215 -4 b 69 -242 211 -25 179 -182 b 50 -278 58 -250 50 -264 b 90 -318 50 -297 69 -318 z m 303 332 b 346 375 325 332 346 353 b 303 417 346 396 325 417 b 261 375 282 417 261 396 b 303 332 261 353 282 332 z "},"<":{"ha":997,"x_min":0,"x_max":0,"o":"m 615 35 b 656 75 636 35 656 56 b 642 106 656 86 650 99 l 279 426 b 772 838 458 583 733 817 b 793 874 786 846 793 861 b 754 914 793 893 775 914 b 735 910 749 914 740 913 b 190 458 672 876 239 501 b 176 428 183 451 176 439 b 190 396 176 418 181 404 l 589 44 b 615 35 594 39 606 35 z "},"=":{"ha":1035,"x_min":0,"x_max":0,"o":"m 175 544 l 818 556 b 858 597 839 557 858 576 b 817 638 857 618 838 638 l 175 625 b 135 583 154 625 135 604 b 175 544 135 564 156 544 z m 213 331 l 744 342 b 785 383 765 343 785 363 b 743 424 785 404 764 424 l 211 411 b 171 369 190 411 171 390 b 213 331 172 349 192 331 z "},">":{"ha":842,"x_min":0,"x_max":0,"o":"m 90 17 b 118 26 100 17 110 21 l 679 522 b 693 554 689 531 693 544 b 679 585 693 565 686 579 l 225 951 b 199 960 217 957 207 960 b 158 919 178 960 158 940 b 172 888 158 908 164 896 l 590 553 l 64 88 b 50 57 56 81 50 68 b 90 17 50 36 72 17 z "},"?":{"ha":908,"x_min":0,"x_max":0,"o":"m 215 -104 b 350 56 257 -104 283 -49 b 356 76 353 63 356 71 b 314 118 356 99 333 118 b 279 99 301 118 286 110 l 261 68 b 832 1078 294 494 667 803 b 914 1342 885 1171 914 1263 b 679 1579 914 1481 822 1579 b 603 1571 656 1579 629 1576 b 160 1029 376 1525 160 1193 b 213 935 160 989 174 935 b 254 975 232 935 254 954 b 242 1029 254 996 242 1008 b 619 1490 242 1160 432 1454 b 681 1497 642 1494 661 1497 b 832 1342 781 1497 832 1439 b 761 1121 832 1278 808 1200 b 174 -60 599 840 174 504 b 215 -104 174 -99 199 -101 z m 192 -412 b 235 -369 214 -412 235 -392 b 192 -328 235 -349 214 -328 b 150 -369 171 -328 150 -349 b 192 -412 150 -392 171 -412 z "},"@":{"ha":1688,"x_min":0,"x_max":0,"o":"m 622 -517 b 844 -454 699 -517 776 -494 b 864 -419 856 -447 864 -432 b 822 -379 864 -400 844 -379 b 803 -383 817 -379 808 -381 b 622 -435 746 -418 685 -435 b 244 40 413 -435 244 -260 b 526 825 244 288 361 597 b 1088 1183 693 1051 892 1176 b 1457 739 1343 1183 1457 1014 b 1182 -54 1457 463 1336 129 b 1003 -171 1117 -132 1056 -171 b 944 -137 975 -171 957 -164 b 929 -46 933 -115 929 -83 b 1125 668 929 157 1063 521 l 1128 682 b 1088 724 1128 704 1107 724 b 1054 706 1075 724 1060 717 b 971 578 1053 706 1013 642 b 796 697 960 619 892 697 b 681 657 760 697 719 686 b 446 101 560 569 446 261 b 517 -24 446 15 485 -17 l 532 -25 b 888 317 586 -25 679 29 l 931 375 b 849 -44 906 303 849 101 b 1004 -251 849 -183 911 -251 b 1539 738 1261 -251 1539 315 b 1086 1264 1539 1054 1389 1264 b 463 872 864 1258 642 1118 b 164 39 283 629 164 303 b 622 -517 164 -301 372 -517 z m 533 57 b 526 103 532 57 526 79 b 728 592 526 238 629 519 b 796 617 754 611 775 617 b 861 590 826 617 849 601 b 904 503 889 567 904 533 b 896 468 904 488 904 476 b 824 364 874 433 849 399 b 533 57 614 81 549 57 z "},"A":{"ha":1390,"x_min":0,"x_max":0,"o":"m 949 -744 b 989 -703 968 -744 989 -724 b 979 -675 989 -693 985 -682 b 935 -456 947 -642 935 -565 b 1033 385 935 -239 986 89 b 1304 417 1114 396 1207 406 b 1340 458 1324 421 1340 440 b 1300 499 1339 481 1321 499 l 1296 499 b 1046 468 1204 488 1115 478 b 1140 1292 1093 771 1140 1075 b 988 1621 1140 1494 1094 1617 b 350 482 800 1621 631 1217 b 296 343 332 433 314 385 b -31 246 188 317 76 285 b -58 206 -47 240 -58 222 b -18 167 -54 182 -40 167 b -3 171 -11 167 -6 169 b 260 250 89 203 183 231 b -236 -644 79 -215 -92 -629 b -279 -622 -249 -644 -260 -640 b -307 -610 -286 -614 -299 -610 b -349 -650 -328 -610 -349 -631 b -336 -679 -349 -660 -344 -672 b -236 -725 -301 -714 -264 -725 b -208 -722 -226 -725 -217 -724 b 110 -318 -112 -701 -12 -575 b 357 274 190 -149 275 64 b 949 375 540 315 743 347 b 853 -450 899 56 853 -244 b 919 -731 853 -593 874 -683 b 949 -744 926 -737 939 -744 z m 392 364 l 425 454 b 740 1221 531 729 640 1013 b 983 1539 869 1485 942 1539 b 1060 1299 1038 1538 1060 1460 b 961 458 1060 1081 1008 754 b 392 364 756 432 556 401 z "},"B":{"ha":1349,"x_min":0,"x_max":0,"o":"m 424 -735 b 550 -707 460 -735 503 -726 b 929 -326 676 -657 815 -517 b 1136 343 1057 -114 1136 138 b 874 849 1136 572 1046 750 b 663 900 806 889 739 900 b 888 1507 769 1079 888 1343 b 751 1674 888 1618 822 1674 b 242 976 601 1674 418 1407 b 319 1458 257 1078 290 1279 l 319 1464 b 279 1504 319 1486 301 1503 b 239 1472 261 1504 243 1490 b -68 -583 236 1460 -68 -404 b -24 -643 -68 -622 -56 -643 b 4 -635 -15 -643 -6 -642 b 68 -458 19 -622 40 -597 b 90 -318 89 -343 90 -322 b 54 -276 90 -300 75 -281 b 50 -271 50 -275 50 -274 b 185 619 75 -64 131 272 l 201 663 b 751 1593 499 1431 669 1593 b 779 1585 761 1593 768 1590 b 806 1507 800 1572 806 1543 b 803 1464 806 1492 804 1478 b 561 888 785 1321 696 1111 b 163 565 347 843 163 672 b 257 467 163 513 206 467 b 610 814 374 467 531 688 b 674 818 628 817 651 818 b 832 778 731 818 783 807 b 1054 346 1013 675 1054 497 b 860 -283 1054 135 972 -94 b 424 -654 708 -535 542 -654 b 268 -386 315 -654 268 -543 b 299 -189 268 -318 279 -250 l 300 -179 b 258 -137 300 -154 282 -142 b 219 -165 243 -137 225 -150 b 188 -389 200 -226 188 -308 b 285 -682 188 -500 214 -615 b 424 -735 313 -708 360 -735 z m 256 547 b 244 564 247 547 244 553 b 493 782 244 632 400 753 b 256 547 401 649 319 558 z "},"C":{"ha":1296,"x_min":0,"x_max":0,"o":"m 325 -581 b 1018 -100 539 -581 769 -428 b 1364 472 1224 171 1361 467 l 1367 485 b 1325 526 1367 508 1344 526 b 1289 504 1311 526 1296 518 b 325 -499 1283 492 818 -499 b 232 -486 294 -499 264 -494 b -26 -37 25 -432 -26 -229 b 661 1422 -26 556 438 1410 b 804 1060 771 1422 804 1269 b 743 504 804 856 768 622 l 743 499 b 783 457 743 474 763 460 b 824 489 801 457 818 472 b 886 1057 826 508 886 796 b 793 1446 886 1217 864 1369 b 664 1503 758 1483 714 1503 l 638 1501 b 181 979 510 1486 338 1288 b -108 -37 1 633 -108 242 b 325 -581 -108 -390 71 -581 z "},"D":{"ha":1243,"x_min":0,"x_max":0,"o":"m 332 -583 b 485 -521 372 -583 425 -567 b 1006 431 657 -387 861 -14 b 1156 1235 1104 739 1156 1021 b 876 1682 1156 1525 1056 1682 l 843 1681 b 293 935 688 1664 501 1410 b 146 574 219 767 154 596 b 254 1303 169 739 214 1046 l 254 1307 b 214 1349 254 1332 236 1347 b 174 1315 196 1349 175 1332 b -74 -503 171 1307 -74 -317 b -28 -562 -74 -546 -58 -562 b 1 -553 -19 -562 -7 -558 b 61 -301 35 -526 57 -400 b 31 -261 61 -278 40 -261 b 81 108 42 -169 60 -37 b 83 121 81 111 83 118 b 367 901 94 183 214 554 b 851 1600 561 1342 732 1588 l 876 1601 b 1074 1236 1017 1601 1074 1465 b 926 457 1074 1029 1024 756 b 331 -501 747 -103 490 -501 b 276 -483 311 -501 294 -496 b 219 -294 233 -450 219 -374 b 239 -121 219 -226 231 -158 l 239 -115 b 199 -72 239 -89 219 -75 b 158 -104 182 -72 164 -86 b 139 -292 157 -111 139 -196 b 229 -547 139 -386 157 -494 b 332 -583 253 -567 289 -583 z "},"E":{"ha":1269,"x_min":0,"x_max":0,"o":"m 104 -711 b 844 -303 299 -711 582 -550 b 1072 -8 882 -268 1068 -89 b 1026 46 1072 19 1050 46 b 986 6 1008 46 986 26 b 989 -12 986 -1 989 -11 b 343 -564 974 -74 656 -414 b 104 -629 250 -608 171 -629 b -94 -447 -28 -629 -93 -549 b 681 556 -94 -90 672 549 b 696 589 689 563 696 576 b 661 626 693 608 681 624 b -3 890 656 628 185 686 b -33 971 -24 913 -33 939 b 981 1708 -33 1200 439 1621 b 1072 1717 1015 1714 1044 1717 b 1261 1533 1215 1717 1261 1646 b 1168 1194 1261 1383 1169 1197 b 1164 1176 1165 1189 1164 1182 b 1201 1135 1164 1150 1181 1140 b 1240 1158 1218 1135 1233 1144 b 1342 1535 1246 1168 1342 1363 b 1293 1706 1342 1597 1328 1658 b 1072 1799 1249 1767 1172 1799 b 969 1789 1040 1799 1006 1794 b 286 1503 739 1751 496 1650 b -114 971 38 1329 -114 1125 b -64 836 -114 919 -97 872 b 561 560 103 654 446 579 b -176 -449 407 426 -176 -106 b 104 -711 -174 -590 -67 -711 z "},"F":{"ha":1233,"x_min":0,"x_max":0,"o":"m 404 -854 b 472 -643 458 -854 472 -758 l 471 -587 b 431 -549 471 -567 450 -549 b 426 -546 429 -549 426 -549 b 436 -532 426 -544 428 -540 b 460 439 438 -326 447 53 b 915 522 607 481 790 522 b 1017 510 963 522 983 515 b 1057 549 1040 510 1054 528 b 917 603 1057 601 972 603 b 461 525 783 603 601 563 b 490 1315 471 786 481 1071 b 493 1318 490 1317 492 1318 b 493 1318 493 1318 493 1318 b 1617 1504 911 1435 1611 1504 b 1656 1546 1638 1506 1656 1525 b 1613 1586 1654 1571 1633 1586 b 797 1471 1608 1586 1206 1550 b -119 1019 169 1351 -119 1190 b -94 947 -119 993 -111 968 b 131 868 -35 869 111 868 b 172 908 151 868 172 886 b -39 1019 172 983 -39 938 b 408 1294 -39 1100 94 1203 b 381 501 407 1258 393 899 b 128 421 247 464 139 425 b 101 383 113 415 101 399 b 142 343 101 364 121 343 b 157 346 144 343 151 343 b 378 417 158 347 260 381 b 372 254 376 374 375 314 b 354 -721 358 -267 354 -565 b 404 -854 357 -811 358 -854 z "},"G":{"ha":1624,"x_min":0,"x_max":0,"o":"m 603 -1157 b 803 -1015 671 -1157 747 -1103 b 1069 -19 961 -767 1035 -350 b 1644 394 1349 244 1640 392 b 1665 431 1657 401 1665 417 b 1625 471 1665 450 1646 471 b 1607 467 1619 471 1613 469 b 1079 101 1597 461 1342 333 b 1100 521 1099 315 1100 503 b 1060 561 1100 546 1082 557 b 1026 543 1047 561 1033 553 b 151 -481 1019 533 426 -406 b 82 -490 125 -487 103 -490 b -57 -251 -14 -490 -57 -414 b 111 478 -57 -78 1 178 b 811 1565 333 1072 642 1554 b 1001 968 971 1565 1001 1164 b 1000 889 1001 921 1000 890 b 1042 847 1000 865 1019 849 b 1082 886 1063 847 1081 867 l 1083 964 b 933 1597 1083 1121 1068 1472 b 813 1646 899 1629 857 1646 l 788 1644 b 399 1263 654 1628 503 1425 b 36 506 268 1053 136 778 b -139 -251 -28 338 -139 0 b 82 -572 -139 -436 -71 -572 b 171 -560 110 -572 140 -568 b 1015 376 429 -490 882 175 b 989 18 1014 329 1006 183 b 560 -564 833 -132 667 -329 b 454 -950 485 -729 454 -857 b 603 -1157 454 -1085 525 -1157 z m 601 -1075 b 536 -953 563 -1075 536 -1040 b 633 -599 536 -871 564 -753 b 975 -111 725 -401 858 -229 b 733 -971 943 -392 871 -756 b 601 -1075 693 -1037 642 -1075 z "},"H":{"ha":1319,"x_min":0,"x_max":0,"o":"m 854 -935 b 894 -892 874 -935 894 -911 l 892 -876 l 892 -864 b 1015 401 892 -746 947 -206 b 1457 471 1283 453 1399 471 b 1499 511 1476 471 1497 486 b 1450 553 1499 542 1476 551 b 1025 488 1392 553 1219 524 b 1165 1689 1069 881 1121 1321 l 1165 1693 b 1125 1735 1165 1711 1149 1735 b 1085 1700 1107 1735 1086 1717 b 942 472 1083 1694 1011 1082 b 279 336 728 431 471 378 b 375 1532 321 953 375 1519 b 333 1572 375 1551 357 1572 b 293 1535 315 1572 294 1554 b 196 318 293 1525 235 889 b -107 254 64 292 -49 267 b -139 214 -125 250 -139 231 b -99 174 -137 192 -119 174 b -87 175 -96 174 -92 174 l 190 235 b 160 -468 171 -76 160 -293 b 203 -532 161 -486 161 -531 b 254 -472 240 -532 249 -499 b 279 -312 269 -386 279 -317 l 279 -308 b 244 -268 279 -290 264 -272 b 274 253 244 -267 260 60 b 933 386 494 299 740 349 b 811 -861 847 -368 811 -758 b 828 -924 811 -910 821 -918 b 854 -935 833 -931 844 -935 z "},"I":{"ha":760,"x_min":0,"x_max":0,"o":"m 321 -704 b 361 -664 342 -704 361 -685 b 471 118 364 -518 415 -208 b 628 1329 561 650 628 1071 b 490 1626 628 1506 596 1626 b 333 1536 450 1626 396 1606 b 85 994 231 1422 133 1210 b 50 707 68 922 50 818 b 129 368 50 593 69 469 b 164 350 138 357 153 350 b 206 390 185 350 206 369 b 200 411 206 397 203 406 b 131 706 151 492 131 594 b 396 1482 131 1000 271 1344 b 492 1546 418 1508 458 1546 b 506 1543 497 1546 501 1546 b 546 1332 521 1536 546 1503 b 531 1069 546 1267 542 1181 b 279 -664 474 499 285 -362 b 319 -704 279 -685 299 -704 z "},"J":{"ha":1113,"x_min":0,"x_max":0,"o":"m 222 -1128 b 426 -954 290 -1128 361 -1068 b 810 210 556 -731 707 -260 b 1149 431 989 338 1146 429 b 1169 465 1161 438 1169 453 b 1129 507 1169 483 1151 507 b 833 326 1110 507 1013 450 b 940 1183 896 621 940 943 b 754 1600 940 1469 883 1592 b 321 1174 629 1600 482 1454 b 146 821 236 1026 175 889 b 81 629 94 700 81 651 b 90 603 81 614 86 607 b 122 586 96 593 111 586 b 163 628 143 586 163 608 l 163 632 b 315 993 167 657 218 803 b 754 1518 485 1326 647 1518 b 860 1183 824 1515 860 1415 b 738 257 860 924 817 654 b 229 -222 554 126 343 -50 b 50 -794 85 -437 50 -656 b 97 -1037 50 -892 67 -979 b 219 -1128 135 -1110 185 -1128 z m 221 -1047 b 169 -1001 199 -1046 182 -1024 b 131 -797 146 -956 131 -885 b 296 -268 131 -643 176 -447 b 710 136 394 -121 569 31 b 221 -1047 558 -528 350 -1047 z "},"K":{"ha":1163,"x_min":0,"x_max":0,"o":"m 142 -808 b 190 -749 176 -808 185 -772 l 217 -589 b 182 -546 217 -560 196 -546 b 225 140 189 -369 206 -111 b 631 -190 346 60 497 -74 b 1086 -506 857 -387 997 -506 b 1165 -444 1125 -506 1165 -479 b 1125 -404 1165 -425 1147 -404 b 1086 -424 1097 -404 1093 -424 b 232 233 968 -424 543 32 b 250 457 238 304 243 383 b 1171 1532 613 686 1090 1026 l 1171 1536 b 1131 1578 1171 1561 1153 1576 b 1090 1543 1113 1578 1092 1561 b 257 557 1019 1088 590 769 b 344 1532 304 1126 344 1519 b 304 1572 344 1553 326 1571 b 264 1536 286 1572 265 1556 b 171 503 263 1526 215 1033 b -85 340 61 435 7 403 b -103 306 -94 333 -103 319 b -62 267 -100 286 -87 267 b 147 189 -3 267 71 236 b 97 -715 119 -171 97 -522 l 97 -746 b 142 -808 97 -767 99 -808 z m 154 279 b 46 329 118 300 67 324 b 164 403 74 347 128 381 z "},"L":{"ha":765,"x_min":0,"x_max":0,"o":"m 306 -671 b 961 -314 589 -671 944 -332 b 975 -285 969 -307 975 -296 b 935 -244 975 -267 956 -244 b 906 -257 925 -244 913 -249 b 307 -590 901 -261 554 -590 b 183 -551 260 -590 218 -579 b 132 -226 163 -536 132 -475 b 194 596 132 -54 147 204 b 353 1653 260 1129 351 1647 l 353 1660 b 314 1700 353 1682 336 1699 b 272 1668 296 1700 276 1686 b 114 606 271 1663 179 1140 b 50 -235 65 194 54 10 b 132 -614 50 -515 97 -587 b 306 -671 183 -654 244 -671 z "},"M":{"ha":1951,"x_min":0,"x_max":0,"o":"m 369 629 b 381 1068 372 665 381 861 b 176 1703 381 1458 335 1703 b 14 1617 133 1703 76 1683 b -210 1063 -110 1486 -210 1224 b -161 957 -210 1015 -203 957 b -119 999 -142 957 -119 976 b -129 1064 -124 1024 -129 1033 b 74 1563 -129 1197 -43 1439 b 175 1622 101 1592 138 1622 b 299 1071 219 1622 299 1586 b 271 481 299 919 292 725 b 140 -642 219 -158 143 -593 b 181 -682 140 -662 158 -682 b 221 -644 199 -682 221 -665 b 421 463 228 -603 310 -71 b 613 1235 489 786 553 1047 b 788 1588 713 1550 765 1583 b 886 1174 803 1588 854 1539 b 919 433 906 953 913 678 b 1028 -314 935 -153 947 -314 b 1318 443 1128 -314 1193 -76 b 1449 953 1361 625 1406 814 b 1536 1165 1507 1143 1536 1164 b 1565 957 1536 1165 1556 1138 b 1569 735 1568 890 1569 815 l 1565 217 b 1692 -372 1565 -186 1588 -372 b 1735 -333 1714 -372 1735 -360 b 1693 -292 1733 -311 1717 -292 b 1650 -31 1689 -292 1661 -265 b 1646 211 1646 43 1646 125 l 1650 742 b 1586 1229 1650 1008 1638 1179 b 1536 1249 1572 1242 1554 1249 b 1238 461 1433 1243 1365 997 b 1113 -24 1196 289 1154 108 b 1039 -221 1067 -179 1039 -221 b 1018 -29 1038 -221 1026 -175 b 1000 435 1010 94 1006 260 b 786 1668 981 1214 951 1668 l 768 1665 b 408 783 694 1649 583 1532 b 369 629 388 692 379 661 z "},"N":{"ha":1367,"x_min":0,"x_max":0,"o":"m 128 -682 b 168 -647 144 -682 164 -667 b 425 510 168 -642 274 -61 b 936 1613 681 1465 853 1613 b 1022 1272 965 1611 1010 1586 b 1025 1117 1024 1224 1025 1171 b 985 -86 1025 743 985 225 b 1108 -510 985 -362 1015 -510 b 1151 -468 1131 -510 1151 -494 b 1110 -429 1150 -447 1132 -429 b 1067 -90 1104 -429 1068 -400 b 1107 1124 1067 250 1107 781 b 936 1693 1107 1515 1065 1688 b 346 529 746 1693 554 1307 l 317 421 l 304 375 b 368 1294 332 624 367 986 b 286 1753 368 1629 322 1717 b 204 1786 265 1775 235 1786 b -139 1028 57 1786 -139 1551 b -132 846 -139 971 -136 911 b -92 808 -131 825 -110 808 b -51 849 -69 810 -51 826 b -58 1028 -54 914 -58 968 b 203 1704 -58 1540 119 1704 b 286 1300 253 1704 286 1642 b 232 465 286 1115 272 849 b 88 -637 174 -92 88 -631 l 88 -642 b 128 -682 88 -664 103 -682 z "},"O":{"ha":1335,"x_min":0,"x_max":0,"o":"m 357 -603 b 1094 433 639 -603 929 -192 b 1190 1104 1157 674 1190 908 b 1140 1449 1190 1240 1174 1360 b 883 1660 1078 1622 963 1660 b 556 1418 772 1660 660 1576 b 138 -39 319 1058 138 335 b 164 -226 138 -119 146 -185 b 201 -251 169 -242 186 -251 b 242 -210 222 -251 242 -231 l 239 -196 b 218 -44 225 -164 218 -112 b 624 1374 218 299 383 1008 b 883 1579 714 1510 801 1579 b 1110 1103 1029 1579 1110 1413 b 1015 454 1110 915 1078 690 b 358 -521 863 -125 599 -521 b 233 -486 315 -521 275 -510 b 26 83 88 -403 26 -182 b 124 714 26 286 63 510 b 338 1106 200 975 290 1106 l 340 1106 b 383 1144 361 1106 382 1124 b 339 1188 383 1171 363 1188 b 44 739 190 1188 75 843 b -54 79 -11 550 -54 307 b 194 -557 -54 -196 10 -451 b 357 -603 246 -586 303 -603 z "},"P":{"ha":1146,"x_min":0,"x_max":0,"o":"m -58 -964 b -10 -904 -24 -964 -15 -928 l 17 -744 b -15 -701 17 -715 -4 -701 b 38 -119 -7 -557 13 -343 b 728 318 347 -64 582 144 b 1124 1290 972 610 1124 1000 b 860 1679 1124 1518 1013 1679 b 761 1656 828 1679 794 1671 b 118 524 485 1522 215 814 b 263 1322 150 760 214 1115 b 374 1660 331 1622 369 1657 b 415 1701 399 1660 413 1679 b 369 1742 415 1729 393 1739 b 325 1725 357 1742 342 1738 b -36 -49 185 1610 42 606 b -121 -93 -57 -53 -121 -44 b -81 -133 -119 -114 -100 -133 l -46 -131 b -103 -876 -81 -439 -103 -721 l -103 -901 b -58 -964 -103 -922 -101 -964 z m 47 -35 b 60 67 50 -12 54 26 l 60 68 b 797 1582 64 79 442 1411 b 858 1597 819 1593 839 1597 b 1042 1286 965 1597 1042 1472 b 47 -35 1042 872 672 86 z "},"Q":{"ha":1396,"x_min":0,"x_max":0,"o":"m 1017 -706 b 1074 -701 1035 -706 1054 -704 b 1108 -661 1092 -699 1108 -679 b 1068 -621 1107 -639 1090 -621 b 1017 -625 1047 -622 1036 -625 b 713 -487 917 -625 825 -571 b 1160 353 879 -349 1050 -32 b 1269 1065 1232 606 1269 856 b 969 1660 1269 1394 1174 1632 b 899 1665 946 1663 922 1665 b 544 1543 782 1665 663 1624 b -36 543 226 1329 -36 844 b -3 390 -36 482 -25 429 b 32 369 4 378 19 369 b 72 411 54 369 72 392 b 68 431 72 417 71 425 b 44 542 51 458 44 494 b 274 1147 44 697 132 936 b 903 1583 463 1426 693 1583 b 960 1579 922 1583 940 1582 b 1188 1068 1114 1558 1188 1363 b 1082 374 1188 864 1151 619 b 644 -439 974 -6 808 -310 b 611 -415 639 -436 625 -426 l 488 -325 b 289 -253 422 -276 354 -253 b 176 -276 244 -253 201 -264 b 151 -57 156 -206 153 -143 b 249 529 151 111 185 317 b 597 1174 363 915 524 1174 l 601 1174 b 640 1214 622 1174 639 1194 b 597 1256 640 1238 619 1256 b 169 553 451 1256 274 901 b 71 -58 106 333 71 118 b 103 -318 72 -169 81 -247 b -96 -557 39 -364 -31 -447 b -101 -579 -99 -564 -101 -572 b -61 -619 -101 -600 -81 -619 b -25 -600 -47 -619 -33 -611 b 132 -399 29 -503 86 -433 b 443 -604 192 -532 324 -604 b 644 -540 513 -604 583 -581 b 1017 -706 778 -636 889 -706 z m 444 -522 b 315 -486 400 -522 358 -511 b 201 -354 260 -454 224 -404 b 289 -335 224 -342 257 -335 b 574 -487 392 -335 478 -419 b 444 -522 540 -508 492 -522 z "},"R":{"ha":1389,"x_min":0,"x_max":0,"o":"m 58 -819 b 107 -760 93 -819 103 -783 b 131 -628 117 -717 131 -628 l 133 -596 b 101 -556 133 -571 113 -556 b 132 -199 107 -462 118 -332 b 315 -174 193 -182 257 -174 b 1129 -572 719 -174 908 -572 b 1167 -569 1140 -572 1154 -571 b 1199 -529 1185 -564 1199 -546 b 1157 -489 1196 -506 1182 -489 l 1128 -492 b 318 -93 968 -492 743 -93 l 278 -92 b 1247 778 489 36 935 339 b 1404 1225 1350 918 1404 1085 b 1331 1464 1404 1318 1379 1404 b 1143 1550 1300 1500 1240 1550 b 974 1508 1097 1550 1040 1539 b 229 535 657 1365 347 821 b 356 1164 261 750 307 978 b 458 1432 421 1413 458 1431 l 461 1431 b 501 1469 483 1431 500 1449 b 456 1513 501 1500 479 1510 b 408 1494 443 1513 425 1508 b 263 1133 392 1481 338 1438 b 60 -122 188 819 107 322 l -53 -181 b -121 -239 -76 -192 -121 -204 b -79 -279 -121 -257 -100 -283 l 49 -226 b 14 -756 25 -457 14 -622 b 58 -819 15 -774 15 -819 z m 146 -72 l 172 138 b 1008 1435 246 451 638 1267 b 1144 1469 1060 1458 1104 1469 b 1322 1224 1256 1469 1322 1381 b 146 -72 1322 706 500 128 z "},"S":{"ha":1238,"x_min":0,"x_max":0,"o":"m 217 -935 b 597 -850 338 -935 481 -901 b 958 -443 833 -749 956 -604 b 703 33 958 -276 844 -115 b 1265 410 983 244 1258 407 b 1285 446 1276 418 1285 432 b 1244 486 1285 465 1265 486 b 1222 481 1238 486 1229 483 b 646 93 1200 468 926 304 b 172 560 508 233 319 393 b 71 796 104 635 71 713 b 949 1499 71 1154 700 1499 b 1069 1454 1006 1499 1044 1485 b 1107 1329 1099 1422 1107 1375 b 1089 1206 1107 1265 1089 1206 b 1088 1193 1088 1203 1088 1197 b 1126 1153 1088 1171 1104 1156 b 1167 1182 1143 1153 1161 1165 b 1188 1329 1168 1188 1188 1253 b 1132 1508 1188 1389 1175 1457 b 946 1579 1089 1554 1025 1579 b 865 1572 921 1579 893 1576 b 15 936 639 1535 133 1275 b -11 794 -3 889 -11 840 b 111 506 -11 693 31 594 b 581 43 250 347 440 183 b -62 -744 254 -210 -62 -533 b -8 -869 -62 -804 -35 -846 b 217 -935 43 -914 126 -935 z m 217 -854 b 19 -744 93 -854 19 -821 b 639 -17 19 -554 368 -225 b 878 -444 775 -160 878 -303 b 564 -776 876 -569 767 -689 b 217 -854 443 -828 318 -854 z "},"T":{"ha":732,"x_min":0,"x_max":0,"o":"m 218 -903 b 281 -796 246 -900 261 -868 b 300 -719 290 -757 299 -736 b 260 -667 300 -686 288 -671 b 251 -643 254 -667 251 -657 b 464 1382 260 -172 382 950 b 1453 1557 939 1479 1361 1557 l 1471 1556 b 1514 1597 1497 1556 1511 1575 b 1460 1638 1514 1632 1486 1636 b 481 1469 1349 1638 906 1554 b 525 1633 499 1556 515 1617 b 567 1674 547 1635 567 1653 b 499 1718 568 1701 528 1731 b 393 1451 479 1710 443 1697 b -576 1247 -46 1361 -483 1267 b -608 1206 -594 1242 -608 1224 b -560 1167 -606 1175 -583 1167 b 378 1365 -271 1229 74 1303 b 269 583 343 1160 313 958 b 167 -776 208 36 167 -510 l 168 -850 b 207 -903 169 -879 185 -901 z "},"U":{"ha":1439,"x_min":0,"x_max":0,"o":"m 1129 -911 b 1182 -867 1153 -911 1182 -894 b 1140 -828 1179 -844 1164 -828 l 1131 -829 b 1096 -547 1119 -824 1096 -789 b 1182 499 1096 -335 1121 1 b 1361 1739 1258 1121 1360 1731 l 1361 1744 b 1322 1785 1361 1765 1344 1783 b 1281 1754 1306 1785 1286 1772 b 251 -428 1135 1210 614 -428 b 185 -374 239 -428 213 -426 b 132 3 149 -303 132 -174 b 163 475 132 138 142 296 b 288 1138 203 821 265 1086 b 317 1178 306 1138 317 1161 b 257 1221 321 1206 286 1231 b 169 1017 240 1214 214 1206 b 99 615 144 906 119 763 b 50 -1 81 490 50 233 b 249 -508 50 -294 103 -508 b 1003 633 465 -503 714 -135 b 1192 1172 1096 879 1178 1128 b 1015 -553 1114 668 1015 -175 b 1081 -893 1015 -799 1049 -865 b 1129 -911 1093 -904 1111 -911 z "},"V":{"ha":1314,"x_min":0,"x_max":0,"o":"m 478 -643 b 1090 707 649 -643 825 -128 b 1354 1496 1186 1006 1274 1286 b 1517 1803 1468 1788 1510 1803 l 1524 1803 b 1565 1842 1546 1803 1564 1819 b 1518 1883 1565 1872 1543 1883 b 1281 1525 1447 1883 1375 1772 b 708 -168 1108 1082 897 314 b 478 -562 572 -514 506 -562 b 403 -287 468 -562 432 -546 b 364 411 382 -101 372 147 b 140 1665 339 1126 310 1610 b 88 1674 124 1671 106 1674 b -404 1125 -101 1674 -386 1336 l -404 1121 b -364 1081 -404 1100 -386 1082 b -324 1118 -343 1081 -325 1100 b -25 1550 -312 1242 -162 1458 b 88 1593 7 1571 49 1593 b 236 1206 138 1593 193 1568 b 282 408 263 981 272 690 b 478 -643 306 -256 325 -643 z "},"W":{"ha":1753,"x_min":0,"x_max":0,"o":"m 192 -667 b 624 157 294 -667 428 -449 b 726 493 675 315 721 472 l 726 379 b 861 -371 726 92 751 -242 b 986 -435 897 -412 936 -433 b 1583 757 1217 -435 1449 57 b 1646 1342 1618 949 1646 1167 b 1600 1625 1646 1461 1633 1565 b 1499 1694 1569 1682 1526 1694 b 1458 1653 1478 1694 1458 1675 b 1499 1613 1458 1632 1478 1613 b 1528 1588 1507 1613 1515 1611 b 1565 1343 1553 1540 1565 1456 b 1172 -200 1565 918 1396 143 b 990 -353 1126 -274 1060 -353 b 924 -318 961 -351 947 -347 b 808 368 831 -208 808 93 b 831 876 808 701 831 868 b 790 917 831 899 811 915 b 750 886 772 917 754 903 b 199 -582 608 333 346 -511 l 193 -585 b 132 -143 168 -581 132 -504 b 306 1360 132 267 199 956 b 446 1668 382 1653 435 1668 l 451 1668 b 492 1708 472 1668 490 1686 b 446 1750 492 1733 471 1749 b 226 1381 361 1750 292 1628 b 50 -133 124 985 50 331 b 58 -375 50 -225 53 -306 b 158 -658 76 -597 125 -646 b 192 -667 165 -662 179 -667 z "},"X":{"ha":1728,"x_min":0,"x_max":0,"o":"m -231 -961 b -190 -929 -212 -961 -194 -947 b 451 357 -117 -603 108 -156 b 871 -683 590 -300 693 -683 b 1428 -160 1004 -683 1188 -508 b 1783 417 1621 118 1782 414 b 1789 436 1786 422 1789 429 b 1747 476 1789 457 1767 476 b 1713 454 1735 476 1719 467 b 1363 -114 1711 451 1551 161 b 872 -601 1079 -524 939 -601 b 851 -599 864 -601 858 -600 b 669 -210 815 -585 754 -510 b 514 450 614 -15 561 228 b 781 826 593 568 683 696 b 1585 1825 1192 1382 1581 1819 b 1596 1851 1592 1832 1596 1843 b 1554 1892 1596 1874 1574 1892 b 1524 1878 1543 1892 1531 1886 b 489 557 1519 1872 922 1192 l 493 547 l 492 557 b 374 1082 450 756 411 943 b 43 1568 285 1418 186 1558 b -307 1247 -118 1568 -233 1360 b -314 1226 -311 1242 -314 1233 b -274 1185 -314 1206 -294 1185 b -233 1213 -251 1185 -243 1199 b 43 1488 -176 1306 -62 1488 b 294 1063 111 1482 200 1419 b 426 468 343 876 374 711 b -271 -914 44 -94 -192 -560 l -271 -919 b -231 -961 -271 -942 -254 -961 z "},"Y":{"ha":1550,"x_min":0,"x_max":0,"o":"m 581 -1021 b 771 -871 628 -1021 697 -990 b 1083 128 885 -683 993 -296 b 1115 154 1085 129 1104 146 b 1574 417 1353 324 1572 417 b 1601 456 1590 425 1601 440 b 1560 496 1601 475 1581 496 b 1544 493 1556 496 1550 496 b 1107 247 1542 492 1324 399 b 1344 1668 1242 894 1338 1619 l 1344 1672 b 1306 1714 1344 1694 1328 1713 b 1267 1689 1290 1714 1272 1704 b 872 900 1265 1685 1089 1288 b 274 179 528 285 353 179 b 132 540 174 189 132 303 b 176 971 132 664 146 813 b 290 1375 218 1193 269 1344 l 289 1376 l 297 1376 b 338 1417 315 1376 338 1396 b 283 1468 338 1449 301 1468 b 189 1342 257 1465 231 1457 b 50 532 115 1144 50 785 b 272 97 53 258 128 97 b 944 863 436 97 657 350 b 1225 1407 1074 1093 1188 1328 b 1010 176 1197 1211 1114 672 b 429 -761 604 -128 429 -469 b 542 -1012 429 -890 471 -987 b 581 -1021 551 -1018 565 -1021 z m 581 -939 b 511 -764 542 -939 511 -876 b 519 -657 511 -732 514 -696 b 982 51 565 -347 796 -97 b 701 -828 903 -306 804 -660 b 581 -939 657 -901 614 -939 z "},"Z":{"ha":1193,"x_min":0,"x_max":0,"o":"m 118 -722 b 485 -487 210 -722 351 -632 b 810 163 671 -285 789 -35 b 1219 410 1026 306 1215 407 b 1239 444 1231 417 1239 432 b 1200 486 1239 464 1221 486 b 810 261 1175 486 1036 408 b 517 501 806 428 672 501 b 379 489 450 501 382 489 b 1289 1557 610 675 1250 1228 l 1292 1592 b 992 1826 1292 1742 1144 1826 b -203 1150 576 1826 -121 1324 b -164 1093 -221 1122 -187 1088 b -128 1117 -150 1093 -135 1103 b 272 1458 -103 1174 47 1313 b 990 1746 556 1644 817 1746 b 1210 1592 1110 1746 1210 1692 b 164 421 1185 1194 176 429 b 147 389 154 414 147 400 b 190 347 147 369 167 347 l 204 350 b 518 421 207 353 372 421 b 731 217 646 421 731 372 l 731 208 b 13 -604 415 -3 17 -326 b 104 -722 13 -699 78 -719 z m 119 -642 l 113 -642 b 94 -604 103 -640 94 -639 b 718 100 97 -374 438 -92 l 719 113 l 717 100 b 119 -642 629 -310 249 -642 z "},"[":{"ha":675,"x_min":0,"x_max":0,"o":"m 92 -786 l 311 -758 b 347 -718 331 -757 347 -736 b 304 -678 346 -696 325 -678 l 136 -699 l 388 1654 l 585 1651 b 625 1692 606 1651 625 1671 b 585 1732 625 1713 606 1732 l 351 1735 b 311 1699 333 1735 313 1719 l 50 -744 b 92 -786 50 -769 74 -786 z "},"\\":{"ha":717,"x_min":0,"x_max":0,"o":"m 622 -849 b 667 -758 665 -849 667 -799 b -56 1718 667 -278 -25 1635 b -92 1744 -61 1733 -78 1744 b -133 1704 -111 1744 -133 1728 b -131 1690 -133 1700 -133 1694 b 586 -753 -124 1669 586 -292 b 582 -807 586 -776 583 -789 b 617 -849 582 -825 597 -844 z "},"]":{"ha":701,"x_min":0,"x_max":0,"o":"m 293 -771 b 333 -735 311 -771 332 -756 l 651 1706 b 613 1746 651 1726 631 1746 l 360 1753 b 319 1713 339 1753 319 1733 b 360 1671 319 1693 339 1671 l 565 1667 l 257 -689 l 92 -683 b 50 -724 72 -683 50 -703 b 90 -765 50 -743 68 -765 z "},"^":{"ha":603,"x_min":0,"x_max":0,"o":"m 90 1139 b 122 1154 101 1139 115 1146 l 331 1418 b 475 1179 372 1351 460 1211 b 514 1156 482 1165 497 1156 b 553 1199 538 1161 553 1172 l 550 1213 b 369 1510 526 1261 375 1500 b 338 1529 361 1521 349 1528 b 303 1514 324 1529 310 1522 l 58 1206 b 50 1181 53 1199 50 1189 b 90 1139 50 1163 69 1139 z "},"_":{"ha":1188,"x_min":0,"x_max":0,"o":"m 983 -90 b 1024 -49 1008 -90 1022 -68 b 985 -10 1024 -28 1004 -10 l 90 21 b 50 -18 71 21 50 3 b 90 -60 50 -37 68 -60 z "},"`":{"ha":325,"x_min":0,"x_max":0,"o":"m 235 1450 b 275 1490 258 1450 275 1474 b 265 1518 275 1500 271 1511 l 121 1674 b 92 1688 114 1682 101 1688 b 50 1646 71 1688 50 1667 b 60 1619 50 1638 54 1626 l 204 1464 b 235 1450 211 1456 224 1450 z "},"a":{"ha":928,"x_min":0,"x_max":0,"o":"m 460 -160 b 801 143 551 -160 665 -58 b 993 465 908 297 993 463 b 996 482 994 468 996 476 b 957 521 996 503 976 521 b 919 499 943 521 926 513 b 461 -79 801 268 578 -79 l 449 -78 b 431 -61 443 -76 438 -75 b 415 29 419 -40 415 -10 b 599 760 415 226 539 604 b 581 803 599 760 611 788 b 524 792 564 813 542 814 b 443 667 521 788 486 731 b 268 786 431 713 361 786 b 153 746 232 786 192 775 b -82 189 33 657 -82 347 b -10 65 -82 99 -36 69 l 4 64 b 361 406 57 64 150 117 b 419 485 392 449 419 485 b 335 29 394 406 335 182 b 460 -160 335 -97 386 -160 z m 6 146 b -1 193 3 146 -1 174 b 200 681 -1 331 103 608 b 269 706 226 700 249 706 b 335 679 300 706 322 690 b 376 593 363 656 376 624 b 368 557 376 579 374 567 b 296 453 346 522 321 488 b 6 146 88 169 21 146 z "},"b":{"ha":942,"x_min":0,"x_max":0,"o":"m 64 -361 b 210 -296 97 -361 144 -344 b 542 176 376 -172 489 8 b 996 447 768 326 993 446 b 1019 483 1011 454 1019 469 b 978 524 1019 504 997 524 b 960 519 972 524 965 522 b 571 293 944 511 753 413 b 579 401 574 311 579 358 b 364 697 579 579 489 697 b 67 450 233 697 114 542 b 164 1017 89 583 126 808 b 275 1539 206 1238 243 1414 b 356 1760 326 1733 353 1757 b 381 1796 369 1764 381 1782 b 339 1838 381 1817 361 1838 b 200 1572 300 1838 261 1799 b 86 1046 167 1447 128 1269 b -118 -219 7 613 -64 135 l -118 -224 b -83 -265 -118 -242 -103 -261 b -37 -231 -62 -265 -40 -254 l 17 125 b 293 592 24 163 143 496 b 364 617 319 608 342 617 b 499 399 464 617 499 504 b 474 229 499 344 489 286 b 29 -167 296 108 113 -36 b -14 -283 -3 -218 -14 -257 b 10 -340 -14 -312 0 -332 b 64 -361 21 -353 40 -361 z m 68 -282 b 99 -211 68 -272 72 -250 b 425 96 165 -106 306 13 b 163 -231 386 0 292 -135 b 64 -281 104 -274 75 -281 l 68 -281 z "},"c":{"ha":911,"x_min":0,"x_max":0,"o":"m 150 -165 b 639 104 276 -165 442 -74 b 967 449 821 267 965 447 b 976 475 972 457 976 467 b 936 515 976 496 956 515 b 904 501 925 515 913 510 b 150 -83 763 325 379 -83 b -8 131 36 -83 -8 13 b 22 331 -8 207 10 283 b 388 881 96 606 282 881 b 442 739 429 879 442 828 b 411 467 442 617 411 490 b 453 426 410 440 425 426 b 492 464 476 428 488 443 b 522 738 508 561 522 646 b 389 961 522 879 481 957 b 136 767 286 961 185 839 b -89 133 0 574 -89 314 b 150 -165 -89 -51 8 -165 z "},"d":{"ha":933,"x_min":0,"x_max":0,"o":"m 706 -939 b 833 -862 740 -939 783 -919 b 843 -836 839 -854 843 -844 b 803 -794 843 -817 824 -794 b 771 -810 792 -794 778 -801 b 706 -858 750 -835 725 -858 b 592 -196 643 -858 592 -607 b 808 1560 592 319 674 1074 l 874 1764 b 881 1783 879 1775 881 1783 b 882 1797 882 1786 882 1792 b 842 1836 882 1817 863 1836 b 804 1811 826 1836 810 1826 b 731 1586 778 1746 754 1669 b 403 692 599 1183 522 983 b 269 776 390 729 335 776 b -47 403 154 776 33 632 b -100 128 -75 319 -100 214 b -89 39 -100 96 -96 65 b 10 -44 -68 -29 -17 -44 b 403 483 79 -44 194 19 b 603 975 564 865 603 975 b 511 -189 554 697 511 211 b 656 -925 511 -599 557 -868 b 706 -939 668 -933 688 -939 z m 11 38 l 10 38 b -11 64 4 38 -3 38 b -19 126 -17 81 -19 101 b 208 671 -19 297 93 586 b 268 694 231 688 251 694 b 346 585 313 694 346 647 b 340 543 346 571 343 557 b 11 38 139 90 44 38 z "},"e":{"ha":810,"x_min":0,"x_max":0,"o":"m 135 -140 b 865 453 426 -140 851 432 b 874 476 871 458 874 468 b 833 517 874 496 853 517 b 801 501 822 517 808 511 b 178 -54 797 497 424 3 b 135 -60 168 -57 153 -60 b -1 132 82 -60 -1 -42 b 72 485 -1 232 33 386 b 386 601 121 489 304 510 b 426 706 413 631 426 668 b 301 832 424 781 376 829 b -64 304 174 832 14 668 b -83 133 -76 240 -83 183 b 135 -140 -83 -40 3 -140 z m 110 572 b 307 750 178 711 256 750 b 346 707 333 749 346 735 b 325 656 346 688 339 672 b 110 572 278 601 164 578 z "},"f":{"ha":456,"x_min":0,"x_max":0,"o":"m 29 -1022 b 69 -982 49 -1022 69 -1000 b 56 -950 69 -971 64 -957 b 10 -494 36 -933 10 -800 b 132 868 10 -112 51 431 l 464 868 b 504 908 485 868 504 888 b 464 950 504 931 485 950 l 147 950 l 156 988 b 482 1721 247 1429 363 1688 b 499 1725 489 1724 494 1725 b 517 1717 508 1725 511 1722 b 558 1514 547 1690 558 1610 b 535 1246 558 1422 547 1321 l 535 1240 b 575 1200 535 1218 553 1201 b 615 1233 593 1200 613 1217 b 640 1514 619 1257 640 1386 b 571 1779 640 1621 625 1731 b 499 1806 556 1790 531 1806 b 458 1800 486 1806 472 1804 b 65 950 296 1753 165 1465 l -160 950 b -200 908 -181 950 -200 931 b -160 868 -200 888 -181 868 l 50 868 b -67 -253 -10 544 -53 131 b -72 -504 -69 -325 -72 -414 b 3 -1012 -72 -725 -57 -962 b 29 -1022 10 -1018 19 -1022 z "},"g":{"ha":1079,"x_min":0,"x_max":0,"o":"m 53 -1721 b 424 -1251 165 -1721 303 -1549 b 729 -31 539 -969 643 -542 b 1135 450 947 249 1131 446 b 1147 478 1143 457 1147 468 b 1106 518 1147 497 1126 518 b 1075 504 1096 518 1083 514 b 751 129 1074 501 918 339 b 779 489 764 219 779 367 b 739 738 779 594 768 686 b 657 789 710 783 681 788 b 485 656 603 789 540 731 b 292 794 474 721 386 794 b 165 756 250 794 204 781 b -47 397 56 683 -21 481 b -106 79 -85 279 -106 164 b -97 -1 -106 49 -103 21 b -10 -81 -79 -68 -33 -81 b 376 350 90 -81 204 86 b 556 613 442 450 500 543 b 654 708 625 700 650 708 l 656 708 b 668 694 658 708 660 708 b 697 494 688 663 697 593 b 651 4 697 369 682 200 b -31 -1174 403 -326 99 -756 b -86 -1492 -68 -1294 -86 -1404 b 53 -1721 -86 -1635 -33 -1721 z m 50 -1639 b -6 -1490 17 -1639 -6 -1587 b 47 -1199 -6 -1417 10 -1321 b 626 -164 157 -843 415 -444 l 629 -140 l 626 -151 b 349 -1221 556 -557 443 -987 b 50 -1639 219 -1537 106 -1639 z m -10 1 b -25 82 -21 1 -25 38 b 210 686 -25 264 93 613 b 290 713 239 706 265 713 b 411 589 361 713 411 663 b 406 544 411 572 408 556 b -10 1 282 361 69 1 z "},"h":{"ha":1178,"x_min":0,"x_max":0,"o":"m -72 -522 b -32 -483 -47 -518 -33 -506 b 226 276 32 -207 118 46 b 388 543 288 406 342 494 b 474 606 425 585 454 606 l 481 604 b 515 549 493 600 504 582 b 544 435 525 515 536 476 b 604 244 558 368 579 304 b 728 122 629 183 671 143 b 775 117 743 118 758 117 b 1064 268 854 117 951 167 b 1150 351 1096 297 1124 325 b 1208 418 1175 378 1194 400 b 1233 447 1224 436 1231 446 b 1242 474 1239 457 1242 465 b 1228 504 1242 483 1238 494 b 1201 513 1218 510 1210 513 b 1169 499 1190 513 1179 508 b 1054 371 1143 464 1104 421 b 893 242 1003 319 950 276 b 775 199 850 213 810 199 b 750 201 767 199 758 200 b 671 293 717 214 690 244 b 625 454 653 342 636 396 b 581 604 613 511 597 561 b 497 683 563 647 535 674 b 474 686 489 685 482 686 b 153 313 379 686 272 561 b -12 -106 75 146 21 7 b 154 901 3 94 58 431 b 313 1581 207 1161 260 1386 b 367 1767 335 1660 353 1722 b 401 1860 382 1811 393 1842 l 414 1886 b 440 1924 432 1892 440 1904 b 413 1965 438 1946 429 1960 b 397 1967 407 1967 403 1967 b 368 1957 388 1967 376 1964 b 335 1910 357 1947 346 1932 b 299 1818 325 1888 313 1857 b 236 1611 285 1781 264 1711 b 76 928 185 1418 132 1190 b -114 -483 -62 240 -114 -167 b -72 -522 -110 -507 -96 -519 z "},"i":{"ha":649,"x_min":0,"x_max":0,"o":"m 99 -150 b 481 151 186 -150 313 -49 b 711 457 606 303 710 456 b 718 481 717 465 718 474 b 678 522 718 500 700 522 b 644 504 667 522 651 515 b 100 -69 492 278 214 -69 b 19 114 42 -69 19 1 b 114 643 19 289 81 535 l 115 653 b 76 694 115 678 97 692 b 35 665 60 694 42 682 b -61 118 31 649 -61 347 b 99 -150 -61 -24 -19 -150 z m 135 946 b 178 989 157 946 178 967 b 135 1031 178 1010 157 1031 b 93 989 114 1031 93 1010 b 135 946 93 967 114 946 z "},"j":{"ha":428,"x_min":0,"x_max":0,"o":"m -594 -1792 b -251 -1385 -483 -1792 -353 -1639 b 29 -90 -94 -1003 -18 -506 b 482 449 267 228 478 446 b 492 475 488 456 492 467 b 451 517 492 496 471 517 b 422 504 442 517 429 513 b 44 65 421 501 238 315 b 75 540 64 250 75 443 b 32 633 75 604 68 633 b -8 593 11 632 -8 618 b -7 542 -8 581 -7 571 b -50 -61 -7 442 -19 214 b -706 -1310 -278 -369 -578 -837 b -742 -1554 -729 -1400 -742 -1485 b -594 -1792 -742 -1690 -686 -1792 z m -596 -1710 l -610 -1707 b -661 -1557 -639 -1697 -661 -1649 b -626 -1331 -661 -1496 -650 -1421 b -69 -226 -514 -910 -256 -489 b -325 -1356 -112 -574 -196 -1035 b -596 -1710 -435 -1624 -542 -1710 z m 11 981 b 53 1022 33 981 53 1001 b 11 1065 53 1044 33 1065 b -31 1022 -11 1065 -31 1044 b 11 981 -31 1001 -11 981 z "},"k":{"ha":983,"x_min":0,"x_max":0,"o":"m -96 -861 b -8 -711 -44 -861 -12 -715 l -7 -699 b -46 -657 -7 -678 -22 -658 b -46 -608 -46 -657 -47 -624 b 18 67 -33 -418 -8 -167 b 308 -58 60 19 146 -53 b 1035 436 525 -58 769 110 b 1043 463 1040 444 1043 454 b 1003 503 1043 483 1024 503 b 971 489 992 503 979 497 b 308 24 722 181 496 24 b 65 139 168 31 97 99 b 546 553 147 157 393 244 b 579 679 568 596 579 640 b 453 819 579 761 526 819 b 74 492 319 819 153 632 b 114 778 81 550 97 668 b 322 1889 211 1446 293 1839 b 344 1922 335 1893 342 1906 b 304 1965 344 1946 326 1965 b 275 1956 293 1965 282 1961 b 164 1581 261 1946 232 1925 b -137 -814 58 1036 -124 -226 b -103 -860 -137 -850 -108 -858 z m 118 410 b 451 739 213 571 361 739 b 497 678 481 739 497 722 b 474 589 497 654 492 625 b 39 217 335 304 104 231 b 118 410 39 217 57 306 z "},"l":{"ha":775,"x_min":0,"x_max":0,"o":"m 40 -851 b 538 -181 106 -851 232 -779 b 843 471 701 140 842 467 b 846 485 846 475 846 481 b 807 526 846 511 828 526 b 769 501 792 526 775 515 b 465 -144 768 497 628 175 b 40 -771 167 -728 64 -771 b -25 -458 0 -771 -25 -657 b 99 644 -25 -206 17 179 b 374 1790 211 1279 335 1739 b 403 1829 386 1792 403 1811 b 360 1871 403 1851 381 1871 b 324 1854 347 1871 333 1864 b 19 663 253 1790 113 1197 b -107 -458 -25 410 -107 -104 b -69 -758 -107 -583 -96 -690 b 40 -851 -42 -835 8 -851 z "},"m":{"ha":1467,"x_min":0,"x_max":0,"o":"m -29 -225 b 11 -194 -25 -225 1 -222 b 222 451 68 -26 136 249 b 361 635 289 604 335 635 b 481 154 429 632 481 383 b 475 31 481 106 476 69 b 515 -10 475 10 493 -8 b 556 18 532 -10 550 3 b 881 571 626 243 774 571 b 1131 139 985 568 924 139 b 1374 279 1193 139 1274 186 b 1521 436 1454 356 1518 433 b 1531 463 1526 444 1531 454 b 1490 503 1531 483 1510 503 b 1458 489 1479 503 1467 497 b 1132 219 1361 372 1203 219 b 1038 415 1076 226 1061 300 b 879 653 1014 526 988 653 b 596 340 788 653 693 547 b 564 271 583 314 571 286 l 560 261 b 453 669 556 379 522 586 b 361 715 424 704 396 714 b 149 485 286 715 217 639 b 39 176 96 360 46 200 b 117 779 53 317 96 718 b 129 810 122 786 129 794 b 88 850 129 829 108 851 b 38 794 49 849 38 794 b 13 654 31 767 22 724 b -28 318 -3 549 -18 414 b -71 -178 -28 315 -71 -90 b -29 -225 -69 -204 -61 -225 z "},"n":{"ha":1068,"x_min":0,"x_max":0,"o":"m -33 -169 b 8 -139 -28 -169 -1 -167 l 15 -117 b 414 704 238 643 374 704 b 631 26 521 700 376 26 b 933 225 706 26 806 93 b 1121 440 1036 329 1117 436 b 1129 465 1126 449 1129 458 b 1089 506 1129 485 1108 506 b 1056 489 1076 506 1063 500 b 633 108 939 336 728 108 b 424 785 468 128 636 764 l 413 785 b 106 396 313 785 211 654 b 43 242 81 335 43 242 b 125 815 81 561 110 765 b 139 844 133 819 139 832 b 99 886 139 865 119 886 l 97 886 b 54 843 64 885 54 843 b -24 369 38 793 14 672 b -74 -122 -24 365 -74 -37 b -33 -169 -72 -144 -65 -169 z "},"o":{"ha":890,"x_min":0,"x_max":0,"o":"m 97 -118 b 360 304 246 -115 342 79 b 515 275 397 288 458 275 b 942 442 738 275 933 435 b 956 474 950 450 956 463 b 915 514 956 493 935 514 b 889 504 907 514 897 510 b 517 357 886 501 708 357 b 365 390 460 357 407 369 l 365 407 b 301 701 365 528 346 642 b 208 756 272 743 236 756 b 101 661 151 751 113 721 l 101 664 b -79 156 -4 565 -79 338 b 94 -118 -79 -3 -19 -118 z m 96 -36 l 92 -36 b 3 153 31 -36 3 39 b 114 553 3 296 53 472 b 283 344 128 497 193 401 b 96 -36 269 150 201 -36 z m 285 443 b 181 633 225 489 181 574 b 204 674 181 669 196 672 l 208 674 b 236 656 217 674 224 671 b 285 443 267 611 283 522 z "},"p":{"ha":838,"x_min":0,"x_max":0,"o":"m -122 -1237 b -87 -1161 -108 -1222 -99 -1194 b -64 -1087 -76 -1128 -67 -1103 b -106 -1046 -64 -1062 -82 -1050 l -106 -1036 b 14 82 -89 -732 -37 -287 b 25 122 17 99 22 119 b 547 344 225 143 408 219 b 788 835 700 482 788 672 b 593 1088 788 985 704 1088 b 69 458 381 1088 161 679 b 225 1213 132 869 199 1172 b 249 1249 239 1218 246 1231 b 207 1290 249 1275 229 1288 b 178 1281 197 1290 186 1288 b 74 950 165 1271 135 1250 b -53 197 28 721 -4 513 l -89 196 b -129 154 -110 196 -129 176 b -87 114 -129 133 -110 114 l -64 115 b -194 -1203 -119 -283 -186 -850 b -158 -1249 -194 -1240 -164 -1249 b -122 -1237 -147 -1250 -131 -1246 z m 56 207 b 594 1007 150 468 404 1007 b 706 836 657 1007 706 944 b 493 406 706 693 629 529 b 56 207 372 296 217 229 z "},"q":{"ha":908,"x_min":0,"x_max":0,"o":"m 247 -1400 b 414 -1090 290 -1400 321 -1324 b 974 453 646 -496 972 435 b 935 493 976 475 958 490 b 896 465 915 496 901 482 b 279 -1211 683 -142 363 -1028 b 422 -246 281 -1171 311 -904 b 601 774 556 556 601 763 b 563 814 604 801 576 814 b 525 792 549 814 533 806 b 444 667 525 790 488 731 b 269 786 432 713 363 786 b 154 746 233 786 193 775 b -81 189 35 657 -81 347 b -8 65 -81 99 -35 69 l 6 64 b 363 406 58 64 151 117 b 485 579 421 486 476 567 b 338 -256 461 451 397 99 b 194 -1304 222 -944 194 -1203 b 211 -1383 194 -1362 206 -1375 b 247 -1400 219 -1392 235 -1400 z m 7 146 b 4 156 6 146 4 150 b 0 193 1 167 0 179 b 201 681 0 331 104 608 b 271 706 228 700 250 706 b 336 679 301 706 324 690 b 378 593 364 656 378 624 b 369 557 378 579 375 567 b 297 453 347 522 322 488 b 7 146 89 169 22 146 z "},"r":{"ha":843,"x_min":0,"x_max":0,"o":"m 226 -456 b 644 -18 293 -456 410 -387 b 904 438 785 206 903 436 b 910 457 908 444 910 451 b 869 499 910 479 889 499 b 833 476 856 499 840 490 b 575 25 832 474 714 244 b 226 -375 346 -336 254 -375 b 206 -360 211 -372 213 -372 b 193 -283 197 -342 193 -317 b 407 500 193 -85 340 332 l 410 514 b 367 556 410 536 388 556 l 358 554 b 82 506 226 518 132 506 b 171 813 108 561 171 711 b 154 885 171 839 165 865 b 76 926 143 903 119 926 b -204 613 -67 926 -204 736 b 60 424 -204 500 -112 424 b 303 456 133 424 222 436 b 113 -283 256 331 113 -62 b 226 -456 113 -379 146 -456 z m -6 510 b -124 611 -111 525 -124 569 b -103 692 -124 642 -112 671 b 76 844 -64 775 18 847 b 90 813 76 844 92 843 b -6 510 88 742 38 603 z "},"s":{"ha":753,"x_min":0,"x_max":0,"o":"m 233 -319 b 479 -10 331 -319 479 -168 b 451 104 479 35 465 76 b 813 463 608 268 810 460 b 826 492 821 469 826 482 b 785 533 826 513 804 533 b 757 521 775 533 764 529 b 404 174 746 510 556 329 b 68 460 303 300 82 360 l 67 474 b 375 764 67 588 247 728 b 404 768 386 767 396 768 b 481 611 467 768 481 681 l 479 575 b 521 533 479 553 499 535 b 561 571 539 533 560 550 l 563 607 b 492 819 563 663 553 767 b 406 850 468 839 438 850 b -14 472 269 850 -14 649 b 181 243 -7 363 67 315 b 347 115 246 201 313 161 b 208 -43 294 58 242 0 b 131 -217 149 -119 131 -176 b 158 -289 131 -253 147 -278 b 233 -319 176 -308 204 -319 z m 233 -237 b 213 -215 215 -237 213 -233 b 271 -94 213 -189 228 -149 b 389 40 301 -56 349 -3 b 397 -11 393 29 397 17 b 278 -222 397 -111 314 -196 b 233 -237 261 -233 246 -237 z "},"t":{"ha":465,"x_min":0,"x_max":0,"o":"m -161 -1250 b -99 -1161 -129 -1250 -115 -1214 b -76 -1096 -86 -1131 -76 -1097 l -75 -1087 b -115 -1046 -75 -1061 -93 -1049 l -115 -1040 b 219 1360 -81 -500 103 715 b 1094 1425 515 1394 850 1425 b 1408 1388 1239 1425 1350 1414 l 1422 1385 b 1464 1425 1450 1385 1458 1403 b 1440 1463 1464 1442 1453 1457 b 1092 1506 1374 1493 1247 1506 b 233 1443 844 1506 518 1475 b 396 2193 313 1885 372 2154 b 415 2226 406 2199 413 2210 b 374 2268 415 2251 397 2267 b 347 2260 365 2268 354 2265 b 213 1776 332 2249 303 2228 l 149 1433 b -596 1331 -232 1389 -567 1336 b -631 1290 -614 1329 -631 1308 b -590 1250 -629 1268 -612 1250 b 135 1350 -578 1250 -340 1293 b -206 -1200 -3 592 -192 -729 b -171 -1249 -206 -1240 -175 -1249 b -161 -1250 -168 -1250 -164 -1250 z "},"u":{"ha":1143,"x_min":0,"x_max":0,"o":"m 592 -392 b 997 40 703 -392 836 -246 b 1213 479 1118 254 1213 478 b 1215 494 1214 482 1215 489 b 1175 533 1215 515 1194 533 b 1138 508 1160 533 1143 524 b 586 -310 986 149 735 -310 b 572 -299 583 -308 579 -308 b 535 -57 546 -261 535 -174 b 644 888 535 235 606 685 l 644 893 b 606 935 644 917 628 933 b 567 910 590 935 571 924 b 379 419 565 908 485 658 b 81 -22 206 26 115 -22 b 18 129 33 -19 18 38 b 108 621 18 289 76 519 b 71 672 108 621 121 668 b 31 644 54 674 38 667 b -62 135 18 604 -62 336 b 79 -104 -62 -11 -21 -94 b 453 386 185 -104 310 60 l 497 485 b 453 -53 479 372 453 119 b 592 -392 453 -304 499 -383 z "},"v":{"ha":972,"x_min":0,"x_max":0,"o":"m 110 -147 b 379 289 161 -144 232 -44 b 503 575 433 410 485 531 b 761 258 526 471 608 258 b 1028 438 843 258 933 319 b 1038 464 1033 446 1038 456 b 996 504 1038 485 1017 504 b 964 490 985 504 972 499 b 760 340 907 417 829 340 b 557 719 638 340 571 608 b 517 756 554 739 536 754 b 479 732 501 756 483 744 b 314 339 478 731 401 533 b 114 -53 176 32 121 -44 b 72 490 97 -18 72 204 b 118 1010 74 844 97 992 b 132 1042 126 1018 132 1031 b 92 1082 132 1063 111 1082 b 6 871 61 1082 26 1050 b -10 500 -4 760 -10 649 b 43 -87 -10 272 6 10 b 107 -147 49 -100 65 -147 z "},"w":{"ha":1531,"x_min":0,"x_max":0,"o":"m 43 -267 b 92 -253 57 -267 74 -262 b 357 379 210 -182 319 221 b 575 -26 383 281 464 42 b 649 -47 599 -40 624 -47 b 946 393 747 -47 839 79 b 1010 603 976 486 1003 579 b 1303 308 1036 500 1129 308 b 1575 432 1385 308 1478 350 b 1590 464 1583 439 1590 453 b 1549 504 1590 485 1568 504 b 1522 494 1540 504 1531 500 b 1303 390 1438 424 1365 390 b 1247 400 1283 390 1265 393 b 1053 785 1090 463 1054 781 b 1014 819 1051 801 1033 818 b 974 788 997 819 978 806 b 649 35 899 471 756 35 b 396 563 531 35 425 414 b 356 594 392 579 374 594 b 315 563 339 594 319 579 b 106 -114 269 343 181 31 b 43 -206 68 -186 51 -200 b 17 -21 38 -190 17 -126 b 135 774 17 246 108 700 b 151 807 143 776 151 792 b 111 851 151 833 132 851 b 78 833 99 851 86 846 b 7 588 61 810 39 749 b -64 -21 -37 347 -64 119 b 43 -267 -64 -218 -14 -267 z "},"x":{"ha":999,"x_min":0,"x_max":0,"o":"m -125 -394 b -87 -371 -110 -394 -94 -383 b 129 25 -29 -239 53 -96 b 376 -201 186 -106 271 -201 b 400 -200 383 -201 392 -201 b 1067 472 678 -164 1051 447 b 1072 494 1071 479 1072 488 b 1032 535 1072 515 1051 535 b 999 515 1019 535 1004 526 b 376 -121 993 510 626 -103 b 182 107 301 -121 236 -31 b 664 751 393 432 631 724 b 686 788 675 757 686 772 b 646 828 686 808 667 828 b 515 703 631 828 617 828 b 149 204 410 575 267 385 b 50 669 82 403 50 667 b 10 707 49 690 28 707 b -31 665 -12 706 -31 685 b 92 117 -29 644 6 350 b -161 -336 -1 -25 -94 -187 b -165 -354 -164 -342 -165 -349 b -125 -394 -165 -374 -144 -394 z "},"y":{"ha":1115,"x_min":0,"x_max":0,"o":"m 133 -1596 b 478 -1189 246 -1596 375 -1443 b 729 -7 588 -924 671 -451 b 736 4 731 -6 733 0 b 1193 475 976 293 1190 474 b 1208 507 1203 483 1208 497 b 1167 549 1208 528 1188 549 b 1140 539 1158 549 1149 544 b 749 142 1139 538 947 372 b 846 1168 813 654 844 1128 b 806 1210 846 1197 824 1207 b 753 1156 779 1210 767 1185 l 714 1071 b 78 65 593 807 276 99 b 38 207 57 65 38 104 b 78 511 38 289 51 396 b 204 832 121 693 176 817 b 225 867 217 839 225 854 b 186 907 225 886 207 907 b 167 903 181 907 172 906 b -3 529 78 856 10 582 b -44 210 -14 476 -44 335 b 81 -15 -44 83 -7 -15 b 749 953 276 -15 558 535 b 651 28 739 819 704 431 b 24 -1114 431 -242 147 -656 b -12 -1360 0 -1206 -12 -1289 b 133 -1596 -12 -1507 51 -1596 z m 133 -1514 b 68 -1360 90 -1507 68 -1475 b 103 -1135 68 -1300 78 -1225 b 631 -129 211 -729 451 -357 b 403 -1160 579 -500 501 -917 b 133 -1514 293 -1428 186 -1514 z "},"z":{"ha":1225,"x_min":0,"x_max":0,"o":"m 119 -1289 b 414 -1047 200 -1289 308 -1201 b 776 -340 550 -854 688 -583 b 878 119 828 -199 878 -22 l 878 140 b 1271 443 1089 328 1267 442 b 1289 478 1282 451 1289 465 b 1249 518 1289 497 1268 518 b 1225 511 1242 518 1233 515 b 864 236 1224 510 1057 403 b 839 290 863 243 851 268 b 569 431 768 406 663 431 b 389 417 500 431 433 417 l 407 415 b 735 778 456 472 718 614 l 736 807 b 557 986 736 915 658 986 b 401 946 511 986 457 972 b 26 560 249 871 104 668 l -6 517 b -14 492 -11 510 -14 500 b 26 451 -14 472 7 451 b 58 468 38 451 53 458 l 92 514 b 438 872 165 617 303 807 b 557 906 482 894 522 906 b 656 806 621 906 656 871 l 654 786 b 429 536 644 706 522 608 b 306 397 336 463 307 438 b 396 335 306 353 356 335 b 571 350 443 335 506 350 b 793 172 660 350 769 325 b 64 -844 528 -64 210 -415 b 7 -1128 26 -960 7 -1056 b 119 -1289 7 -1228 47 -1289 z m 119 -1207 b 88 -1128 99 -1207 88 -1190 b 143 -871 88 -1074 101 -992 b 796 67 274 -479 576 -136 b 349 -1001 788 -167 582 -667 b 119 -1207 239 -1158 158 -1207 z "},"{":{"ha":972,"x_min":0,"x_max":0,"o":"m 508 -832 b 549 -793 529 -832 547 -814 b 517 -751 549 -775 535 -756 b 329 -471 376 -724 329 -625 b 485 401 329 -201 485 175 b 381 599 485 507 442 590 b 624 1531 668 831 511 1289 b 888 1696 668 1628 749 1678 b 922 1736 906 1699 922 1718 b 883 1776 921 1756 908 1776 b 490 1196 513 1743 500 1431 b 226 593 482 958 472 721 b 204 554 213 586 204 569 b 246 517 208 532 222 517 b 315 525 276 519 294 525 b 403 404 385 525 403 486 b 249 -471 403 194 249 -182 b 501 -832 249 -658 318 -793 z "},"|":{"ha":615,"x_min":0,"x_max":0,"o":"m 207 -844 b 242 -803 226 -840 242 -821 b 231 -594 238 -753 231 -699 b 318 613 231 -344 260 71 b 464 1764 381 1207 453 1724 b 467 1781 465 1768 467 1775 b 426 1819 467 1800 447 1819 b 394 1803 415 1819 401 1814 b 333 1432 389 1796 379 1783 b 149 -593 292 1124 149 -36 b 161 -811 149 -683 153 -758 b 201 -844 165 -829 183 -844 z "},"}":{"ha":767,"x_min":0,"x_max":0,"o":"m 94 -837 b 410 -422 326 -812 410 -649 b 340 268 410 -200 340 68 b 576 563 340 453 392 554 b 615 603 597 563 614 582 b 585 643 615 619 603 638 b 522 747 536 656 522 690 b 717 1542 522 943 717 1306 b 463 1781 717 1682 644 1781 l 411 1778 b 375 1738 392 1776 375 1756 b 415 1696 376 1714 394 1696 l 465 1697 b 636 1543 594 1697 636 1649 b 442 747 636 1326 442 964 b 468 628 442 694 454 642 b 258 267 317 592 258 456 b 329 -424 258 58 329 -217 b 86 -757 329 -614 276 -736 b 50 -797 67 -758 50 -779 b 90 -837 51 -821 69 -837 z "},"~":{"ha":963,"x_min":0,"x_max":0,"o":"m 260 375 b 300 408 282 375 294 390 b 357 494 331 486 349 494 b 588 379 401 492 510 379 b 728 535 676 388 718 508 b 729 549 729 539 729 544 b 690 589 729 569 714 585 b 650 561 674 589 656 576 b 585 461 636 517 608 463 b 358 576 540 461 435 572 b 222 432 274 576 240 468 l 219 418 b 260 375 219 400 233 375 z "},"":{"ha":628,"x_min":0,"x_max":0,"o":"m 189 -375 b 225 -356 201 -375 217 -367 b 361 432 243 -324 342 307 b 475 1269 388 606 475 1169 b 433 1314 475 1293 458 1314 b 393 1272 411 1314 393 1294 l 393 1265 b 151 -319 393 1115 174 -254 l 149 -332 b 189 -375 149 -354 169 -375 z m 451 1518 b 493 1560 472 1518 493 1539 b 451 1603 493 1582 472 1603 b 408 1560 429 1603 408 1582 b 451 1518 408 1539 429 1518 z "},"":{"ha":1149,"x_min":0,"x_max":0,"o":"m 479 -408 b 514 -367 499 -404 514 -385 b 508 -269 513 -344 508 -321 b 522 50 508 -189 514 -74 b 917 299 708 110 904 288 b 931 329 925 306 931 318 b 890 369 931 347 911 369 b 863 360 881 369 869 365 b 528 139 793 296 647 183 b 582 783 542 339 564 592 b 621 790 596 788 603 790 b 644 782 638 790 642 786 b 656 739 653 774 656 758 b 646 672 656 710 649 692 b 688 631 646 649 665 635 b 726 661 704 631 724 644 b 738 738 728 667 738 700 b 707 836 738 769 731 808 b 622 872 692 851 665 872 b 592 871 601 871 593 871 b 631 1160 613 1078 624 1131 b 589 1201 631 1183 608 1201 b 553 1178 575 1201 560 1190 b 508 840 542 1153 524 1004 b 178 247 319 749 178 438 b 389 25 178 86 281 25 b 439 29 411 25 433 28 b 428 -271 433 -72 428 -187 b 433 -376 428 -317 429 -354 b 479 -408 439 -397 458 -408 z m 390 107 b 260 246 318 107 260 132 b 497 739 260 400 364 650 b 444 113 481 568 461 372 b 390 107 432 110 411 107 z "},"":{"ha":1114,"x_min":0,"x_max":0,"o":"m 142 -211 b 213 -189 160 -211 186 -204 b 344 -1 271 -156 315 -83 b 788 -76 489 -50 658 -76 b 1056 11 907 -76 1010 -51 b 1064 35 1061 17 1064 28 b 1022 76 1064 56 1044 76 b 990 60 1011 76 997 71 b 788 6 964 24 892 6 b 371 75 656 6 525 33 b 469 549 415 214 436 382 l 526 551 b 821 497 622 551 717 536 l 832 496 b 874 538 856 496 874 517 b 847 575 874 553 863 569 b 518 633 732 617 625 633 l 485 632 b 642 1151 521 828 564 1029 b 750 1250 699 1239 732 1250 b 797 1207 771 1249 788 1224 b 821 1107 814 1175 821 1138 b 806 1039 821 1078 806 1060 b 846 997 806 1019 826 997 b 903 1107 888 997 903 1064 b 749 1331 903 1228 833 1329 b 572 1194 689 1331 629 1282 b 400 625 488 1057 439 839 b 157 576 328 618 243 600 b 126 536 139 571 126 553 b 168 496 129 513 144 496 l 178 497 b 386 542 256 518 329 535 b 292 89 357 374 332 218 l 271 90 b 78 -11 151 90 94 14 b 50 -107 60 -42 50 -76 b 79 -185 50 -136 60 -165 b 142 -211 88 -194 110 -211 z m 142 -131 b 132 -106 133 -131 132 -126 b 147 -54 132 -90 135 -74 b 263 10 164 -28 199 10 b 171 -118 242 -46 211 -96 b 142 -131 164 -124 151 -131 z "},"":{"ha":375,"x_min":0,"x_max":0,"o":"m 92 1508 b 135 1550 114 1508 135 1529 b 92 1593 135 1572 114 1593 b 50 1550 71 1593 50 1572 b 92 1508 50 1529 71 1508 z m 283 1510 b 325 1551 306 1510 325 1531 b 283 1594 325 1574 306 1594 b 242 1551 261 1594 242 1574 b 283 1510 242 1531 261 1510 z "},"":{"ha":1186,"x_min":0,"x_max":0,"o":"m 433 756 b 843 917 578 756 731 829 b 1136 1414 997 1039 1136 1231 b 1121 1517 1136 1449 1131 1483 b 711 1850 1058 1724 879 1850 b 571 1813 660 1850 611 1838 b 553 1778 560 1804 553 1790 b 593 1738 553 1758 572 1738 b 615 1743 600 1738 608 1739 b 711 1768 642 1761 674 1768 b 1043 1492 846 1768 990 1667 b 1054 1415 1051 1467 1054 1442 b 792 981 1054 1258 929 1088 b 435 838 690 901 560 838 b 285 878 382 838 332 849 b 132 1154 168 947 132 1049 b 194 1419 132 1251 164 1349 b 396 1739 242 1532 315 1649 b 533 1851 474 1826 521 1851 b 553 1847 535 1851 539 1847 b 592 1888 574 1847 592 1868 b 536 1933 592 1915 563 1933 b 50 1157 399 1933 56 1504 b 433 756 50 925 224 756 z m 500 1093 b 756 1224 608 1093 739 1207 b 769 1254 764 1231 769 1243 b 728 1294 769 1274 749 1294 b 701 1285 719 1294 708 1290 b 500 1175 664 1250 564 1175 b 463 1215 478 1175 463 1176 b 603 1443 463 1283 529 1443 b 599 1447 601 1446 600 1447 l 599 1443 b 596 1413 599 1435 597 1428 b 636 1369 596 1389 617 1369 b 675 1396 653 1369 669 1378 b 681 1440 678 1404 681 1421 b 606 1524 681 1468 674 1524 b 381 1217 476 1518 381 1324 b 500 1093 381 1129 440 1093 z "},"":{"ha":1186,"x_min":0,"x_max":0,"o":"m 433 756 b 843 917 578 756 731 829 b 1136 1414 997 1039 1136 1231 b 464 1996 1136 1721 683 1996 b 354 1939 418 1996 354 1982 b 394 1897 354 1918 375 1897 b 465 1914 418 1897 436 1914 l 483 1914 b 451 1922 483 1915 475 1918 b 50 1157 396 1915 56 1517 b 433 756 50 925 224 756 z m 435 838 b 285 878 382 838 332 849 b 132 1154 168 947 132 1049 b 194 1419 132 1251 164 1349 b 396 1739 242 1532 315 1649 b 535 1851 475 1826 522 1851 b 553 1847 535 1851 539 1847 b 592 1886 574 1847 592 1868 l 592 1894 b 593 1900 592 1897 592 1900 b 614 1886 596 1900 603 1896 l 590 1890 b 600 1885 590 1889 596 1888 b 1054 1415 807 1810 1054 1617 b 792 981 1054 1258 929 1088 b 435 838 690 901 560 838 z m 431 1010 b 478 1092 474 1011 478 1092 b 471 1115 478 1103 474 1113 l 475 1160 l 493 1160 b 667 1081 568 1160 600 1081 b 715 1122 692 1083 715 1093 b 667 1163 711 1151 696 1163 b 567 1229 653 1163 608 1219 b 771 1513 638 1279 771 1390 b 747 1586 771 1540 763 1567 b 679 1618 739 1596 715 1618 b 628 1606 665 1618 647 1614 b 539 1538 582 1585 540 1538 l 535 1518 b 542 1532 536 1518 539 1529 b 563 1567 553 1538 561 1550 b 522 1610 563 1592 544 1607 b 490 1597 510 1610 497 1604 b 417 1344 479 1589 453 1567 b 401 1221 411 1301 404 1257 b 357 1172 383 1213 357 1208 b 392 1133 357 1135 392 1133 b 389 1056 390 1113 389 1085 b 428 1010 389 1014 422 1010 z m 486 1272 b 661 1532 486 1293 586 1497 b 679 1536 669 1535 674 1536 b 689 1511 688 1536 689 1532 b 486 1272 689 1426 543 1308 z "},"":{"ha":401,"x_min":0,"x_max":0,"o":"m 196 1392 b 351 1565 294 1392 351 1489 b 303 1672 349 1613 339 1644 b 211 1704 278 1692 244 1704 b 50 1538 114 1697 50 1638 b 196 1392 50 1456 118 1392 z m 194 1474 b 131 1538 158 1474 131 1499 b 201 1622 131 1606 178 1619 l 211 1624 b 269 1567 250 1624 268 1604 b 206 1475 269 1531 258 1483 z "},"":{"ha":325,"x_min":0,"x_max":0,"o":"m 90 1450 b 121 1464 101 1450 114 1456 l 265 1619 b 275 1646 271 1626 275 1638 b 233 1688 275 1667 254 1688 b 204 1674 224 1688 211 1682 l 60 1518 b 50 1490 54 1511 50 1500 b 90 1450 50 1474 67 1450 z "},"":{"ha":563,"x_min":0,"x_max":0,"o":"m 158 -1406 b 510 -1214 269 -1406 486 -1382 l 513 -1183 b 469 -1081 513 -1142 497 -1106 b 307 -1032 428 -1042 361 -1032 b 258 -1035 282 -1032 258 -1033 b 313 -840 289 -924 307 -864 b 271 -799 313 -819 290 -799 b 235 -821 257 -799 242 -807 b 164 -1074 229 -835 192 -967 l 163 -1083 b 206 -1124 163 -1106 185 -1124 b 306 -1114 231 -1122 260 -1114 b 431 -1183 376 -1114 431 -1128 b 429 -1203 431 -1189 431 -1196 b 160 -1324 414 -1308 254 -1324 b 93 -1321 122 -1324 94 -1321 l 90 -1321 b 50 -1361 69 -1321 51 -1339 b 86 -1403 50 -1379 67 -1399 b 158 -1406 92 -1403 119 -1406 z "},"":{"ha":1038,"x_min":0,"x_max":0,"o":"m 229 -412 b 307 -404 254 -412 279 -410 b 749 136 532 -358 749 -28 b 694 232 749 176 735 232 b 656 192 674 232 656 211 b 668 138 656 171 668 158 b 290 -324 668 6 479 -287 b 231 -331 269 -328 250 -331 b 78 -174 126 -331 78 -271 b 149 47 78 -110 101 -33 b 736 1226 311 321 736 668 b 694 1271 736 1261 713 1268 b 560 1111 653 1271 626 1215 b 554 1089 557 1104 554 1096 b 594 1049 554 1069 575 1049 b 631 1068 607 1049 622 1057 l 647 1097 b 78 89 615 664 235 358 b -4 -174 24 -4 -4 -96 b 229 -412 -4 -314 88 -412 z m 717 1494 b 760 1536 739 1494 760 1515 b 717 1579 760 1558 739 1579 b 675 1536 696 1579 675 1558 b 717 1494 675 1515 696 1494 z "},"":{"ha":1390,"x_min":0,"x_max":0,"o":"m 949 -744 b 989 -703 968 -744 989 -724 b 979 -675 989 -693 985 -682 b 935 -456 947 -642 935 -565 b 1033 385 935 -239 986 89 b 1304 417 1114 396 1207 406 b 1340 458 1324 421 1340 440 b 1300 499 1339 481 1321 499 l 1296 499 b 1046 468 1204 488 1115 478 b 1140 1292 1093 771 1140 1075 b 988 1621 1140 1494 1094 1617 b 350 482 800 1621 631 1217 b 296 343 332 433 314 385 b -31 246 188 317 76 285 b -58 206 -47 240 -58 222 b -18 167 -54 182 -40 167 b -3 171 -11 167 -6 169 b 260 250 89 203 183 231 b -236 -644 79 -215 -92 -629 b -279 -622 -249 -644 -260 -640 b -307 -610 -286 -614 -299 -610 b -349 -650 -328 -610 -349 -631 b -336 -679 -349 -660 -344 -672 b -236 -725 -301 -714 -264 -725 b -208 -722 -226 -725 -217 -724 b 110 -318 -112 -701 -12 -575 b 357 274 190 -149 275 64 b 949 375 540 315 743 347 b 853 -450 899 56 853 -244 b 919 -731 853 -593 874 -683 b 949 -744 926 -737 939 -744 z m 392 364 l 425 454 b 740 1221 531 729 640 1013 b 983 1539 869 1485 942 1539 b 1060 1299 1038 1538 1060 1460 b 961 458 1060 1081 1008 754 b 392 364 756 432 556 401 z m 1015 1778 b 1056 1818 1039 1778 1056 1801 b 1046 1846 1056 1828 1051 1839 l 901 2001 b 872 2015 894 2010 882 2015 b 831 1974 851 2015 831 1994 b 840 1947 831 1965 835 1954 l 985 1792 b 1015 1778 992 1783 1004 1778 z "},"":{"ha":1390,"x_min":0,"x_max":0,"o":"m 949 -744 b 989 -703 968 -744 989 -724 b 979 -675 989 -693 985 -682 b 935 -456 947 -642 935 -565 b 1033 385 935 -239 986 89 b 1304 417 1114 396 1207 406 b 1340 458 1324 421 1340 440 b 1300 499 1339 481 1321 499 l 1296 499 b 1046 468 1204 488 1115 478 b 1140 1292 1093 771 1140 1075 b 988 1621 1140 1494 1094 1617 b 350 482 800 1621 631 1217 b 296 343 332 433 314 385 b -31 246 188 317 76 285 b -58 206 -47 240 -58 222 b -18 167 -54 182 -40 167 b -3 171 -11 167 -6 169 b 260 250 89 203 183 231 b -236 -644 79 -215 -92 -629 b -279 -622 -249 -644 -260 -640 b -307 -610 -286 -614 -299 -610 b -349 -650 -328 -610 -349 -631 b -336 -679 -349 -660 -344 -672 b -236 -725 -301 -714 -264 -725 b -208 -722 -226 -725 -217 -724 b 110 -318 -112 -701 -12 -575 b 357 274 190 -149 275 64 b 949 375 540 315 743 347 b 853 -450 899 56 853 -244 b 919 -731 853 -593 874 -683 b 949 -744 926 -737 939 -744 z m 392 364 l 425 454 b 740 1221 531 729 640 1013 b 983 1539 869 1485 942 1539 b 1060 1299 1038 1538 1060 1460 b 961 458 1060 1081 1008 754 b 392 364 756 432 556 401 z m 1017 1768 b 1047 1782 1028 1768 1040 1774 l 1192 1938 b 1201 1964 1197 1944 1201 1956 b 1160 2006 1201 1985 1181 2006 b 1131 1992 1150 2006 1138 2000 l 986 1836 b 976 1808 981 1829 976 1818 b 1017 1768 976 1792 993 1768 z "},"":{"ha":1390,"x_min":0,"x_max":0,"o":"m 949 -744 b 989 -703 968 -744 989 -724 b 979 -675 989 -693 985 -682 b 935 -456 947 -642 935 -565 b 1033 385 935 -239 986 89 b 1304 417 1114 396 1207 406 b 1340 458 1324 421 1340 440 b 1300 499 1339 481 1321 499 l 1296 499 b 1046 468 1204 488 1115 478 b 1140 1292 1093 771 1140 1075 b 988 1621 1140 1494 1094 1617 b 350 482 800 1621 631 1217 b 296 343 332 433 314 385 b -31 246 188 317 76 285 b -58 206 -47 240 -58 222 b -18 167 -54 182 -40 167 b -3 171 -11 167 -6 169 b 260 250 89 203 183 231 b -236 -644 79 -215 -92 -629 b -279 -622 -249 -644 -260 -640 b -307 -610 -286 -614 -299 -610 b -349 -650 -328 -610 -349 -631 b -336 -679 -349 -660 -344 -672 b -236 -725 -301 -714 -264 -725 b -208 -722 -226 -725 -217 -724 b 110 -318 -112 -701 -12 -575 b 357 274 190 -149 275 64 b 949 375 540 315 743 347 b 853 -450 899 56 853 -244 b 919 -731 853 -593 874 -683 b 949 -744 926 -737 939 -744 z m 392 364 l 425 454 b 740 1221 531 729 640 1013 b 983 1539 869 1485 942 1539 b 1060 1299 1038 1538 1060 1460 b 961 458 1060 1081 1008 754 b 392 364 756 432 556 401 z m 850 1782 b 882 1797 861 1782 875 1789 l 1032 1986 l 1135 1822 b 1169 1804 1143 1811 1158 1804 b 1211 1844 1190 1804 1211 1825 b 1206 1867 1211 1851 1208 1860 l 1071 2076 b 1039 2097 1065 2089 1051 2096 b 1004 2082 1026 2097 1011 2090 l 818 1849 b 810 1824 813 1842 810 1832 b 850 1782 810 1804 831 1782 z "},"":{"ha":1390,"x_min":0,"x_max":0,"o":"m 949 -744 b 989 -703 968 -744 989 -724 b 979 -675 989 -693 985 -682 b 935 -456 947 -642 935 -565 b 1033 385 935 -239 986 89 b 1304 417 1114 396 1207 406 b 1340 458 1324 421 1340 440 b 1300 499 1339 481 1321 499 l 1296 499 b 1046 468 1204 488 1115 478 b 1140 1292 1093 771 1140 1075 b 988 1621 1140 1494 1094 1617 b 350 482 800 1621 631 1217 b 296 343 332 433 314 385 b -31 246 188 317 76 285 b -58 206 -47 240 -58 222 b -18 167 -54 182 -40 167 b -3 171 -11 167 -6 169 b 260 250 89 203 183 231 b -236 -644 79 -215 -92 -629 b -279 -622 -249 -644 -260 -640 b -307 -610 -286 -614 -299 -610 b -349 -650 -328 -610 -349 -631 b -336 -679 -349 -660 -344 -672 b -236 -725 -301 -714 -264 -725 b -208 -722 -226 -725 -217 -724 b 110 -318 -112 -701 -12 -575 b 357 274 190 -149 275 64 b 949 375 540 315 743 347 b 853 -450 899 56 853 -244 b 919 -731 853 -593 874 -683 b 949 -744 926 -737 939 -744 z m 392 364 l 425 454 b 740 1221 531 729 640 1013 b 983 1539 869 1485 942 1539 b 1060 1299 1038 1538 1060 1460 b 961 458 1060 1081 1008 754 b 392 364 756 432 556 401 z m 90 1479 b 132 1514 114 1479 125 1496 b 161 1586 156 1585 164 1586 b 335 1483 193 1581 272 1483 b 453 1626 404 1483 442 1593 l 454 1636 b 414 1678 454 1660 436 1675 b 374 1647 397 1678 379 1665 b 333 1564 364 1608 342 1567 b 272 1608 326 1564 293 1592 b 164 1667 226 1644 203 1665 b 56 1540 97 1667 65 1574 b 50 1519 51 1535 50 1528 b 90 1479 50 1501 71 1479 z "},"":{"ha":1390,"x_min":0,"x_max":0,"o":"m 949 -744 b 989 -703 968 -744 989 -724 b 979 -675 989 -693 985 -682 b 935 -456 947 -642 935 -565 b 1033 385 935 -239 986 89 b 1304 417 1114 396 1207 406 b 1340 458 1324 421 1340 440 b 1300 499 1339 481 1321 499 l 1296 499 b 1046 468 1204 488 1115 478 b 1140 1292 1093 771 1140 1075 b 988 1621 1140 1494 1094 1617 b 350 482 800 1621 631 1217 b 296 343 332 433 314 385 b -31 246 188 317 76 285 b -58 206 -47 240 -58 222 b -18 167 -54 182 -40 167 b -3 171 -11 167 -6 169 b 260 250 89 203 183 231 b -236 -644 79 -215 -92 -629 b -279 -622 -249 -644 -260 -640 b -307 -610 -286 -614 -299 -610 b -349 -650 -328 -610 -349 -631 b -336 -679 -349 -660 -344 -672 b -236 -725 -301 -714 -264 -725 b -208 -722 -226 -725 -217 -724 b 110 -318 -112 -701 -12 -575 b 357 274 190 -149 275 64 b 949 375 540 315 743 347 b 853 -450 899 56 853 -244 b 919 -731 853 -593 874 -683 b 949 -744 926 -737 939 -744 z m 392 364 l 425 454 b 740 1221 531 729 640 1013 b 983 1539 869 1485 942 1539 b 1060 1299 1038 1538 1060 1460 b 961 458 1060 1081 1008 754 b 392 364 756 432 556 401 z m 938 1818 b 981 1860 960 1818 981 1839 b 938 1903 981 1882 960 1903 b 896 1860 917 1903 896 1882 b 938 1818 896 1839 917 1818 z m 1129 1819 b 1171 1861 1151 1819 1171 1840 b 1129 1904 1171 1883 1151 1904 b 1088 1861 1107 1904 1088 1883 b 1129 1819 1088 1840 1107 1819 z "},"":{"ha":1390,"x_min":0,"x_max":0,"o":"m 949 -744 b 989 -703 968 -744 989 -724 b 979 -675 989 -693 985 -682 b 935 -456 947 -642 935 -565 b 1033 385 935 -239 986 89 b 1304 417 1114 396 1207 406 b 1340 458 1324 421 1340 440 b 1300 499 1339 481 1321 499 l 1296 499 b 1046 468 1204 488 1115 478 b 1140 1292 1093 771 1140 1075 b 988 1621 1140 1494 1094 1617 b 350 482 800 1621 631 1217 b 296 343 332 433 314 385 b -31 246 188 317 76 285 b -58 206 -47 240 -58 222 b -18 167 -54 182 -40 167 b -3 171 -11 167 -6 169 b 260 250 89 203 183 231 b -236 -644 79 -215 -92 -629 b -279 -622 -249 -644 -260 -640 b -307 -610 -286 -614 -299 -610 b -349 -650 -328 -610 -349 -631 b -336 -679 -349 -660 -344 -672 b -236 -725 -301 -714 -264 -725 b -208 -722 -226 -725 -217 -724 b 110 -318 -112 -701 -12 -575 b 357 274 190 -149 275 64 b 949 375 540 315 743 347 b 853 -450 899 56 853 -244 b 919 -731 853 -593 874 -683 b 949 -744 926 -737 939 -744 z m 392 364 l 425 454 b 740 1221 531 729 640 1013 b 983 1539 869 1485 942 1539 b 1060 1299 1038 1538 1060 1460 b 961 458 1060 1081 1008 754 b 392 364 756 432 556 401 z m 1010 1806 b 1165 1979 1108 1806 1165 1903 b 1117 2086 1163 2026 1153 2058 b 1025 2118 1092 2106 1058 2118 b 864 1951 928 2111 864 2051 b 1010 1806 864 1869 932 1806 z m 1008 1888 b 944 1951 972 1888 944 1913 b 1015 2036 944 2019 992 2033 l 1025 2038 b 1083 1981 1064 2038 1082 2018 b 1019 1889 1083 1944 1072 1897 z "},"":{"ha":1296,"x_min":0,"x_max":0,"o":"m 325 -581 b 1018 -100 539 -581 769 -428 b 1364 472 1224 171 1361 467 l 1367 485 b 1325 526 1367 508 1344 526 b 1289 504 1311 526 1296 518 b 325 -499 1283 492 818 -499 b 232 -486 294 -499 264 -494 b -26 -37 25 -432 -26 -229 b 661 1422 -26 556 438 1410 b 804 1060 771 1422 804 1269 b 743 504 804 856 768 622 l 743 499 b 783 457 743 474 763 460 b 824 489 801 457 818 472 b 886 1057 826 508 886 796 b 793 1446 886 1217 864 1369 b 664 1503 758 1483 714 1503 l 638 1501 b 181 979 510 1486 338 1288 b -108 -37 1 633 -108 242 b 325 -581 -108 -390 71 -581 z m 208 -1118 b 560 -926 319 -1118 536 -1094 l 563 -896 b 519 -793 563 -854 547 -818 b 357 -744 478 -754 411 -744 b 308 -747 332 -744 308 -746 b 363 -553 339 -636 357 -576 b 321 -511 363 -532 340 -511 b 285 -533 307 -511 292 -519 b 214 -786 279 -547 242 -679 l 213 -796 b 256 -836 213 -818 235 -836 b 356 -826 281 -835 310 -826 b 481 -896 426 -826 481 -840 b 479 -915 481 -901 481 -908 b 210 -1036 464 -1021 304 -1036 b 143 -1033 172 -1036 144 -1033 l 140 -1033 b 100 -1074 119 -1033 101 -1051 b 136 -1115 100 -1092 117 -1111 b 208 -1118 142 -1115 169 -1118 z "},"":{"ha":1269,"x_min":0,"x_max":0,"o":"m 104 -711 b 844 -303 299 -711 582 -550 b 1072 -8 882 -268 1068 -89 b 1026 46 1072 19 1050 46 b 986 6 1008 46 986 26 b 989 -12 986 -1 989 -11 b 343 -564 974 -74 656 -414 b 104 -629 250 -608 171 -629 b -94 -447 -28 -629 -93 -549 b 681 556 -94 -90 672 549 b 696 589 689 563 696 576 b 661 626 693 608 681 624 b -3 890 656 628 185 686 b -33 971 -24 913 -33 939 b 981 1708 -33 1200 439 1621 b 1072 1717 1015 1714 1044 1717 b 1261 1533 1215 1717 1261 1646 b 1168 1194 1261 1383 1169 1197 b 1164 1176 1165 1189 1164 1182 b 1201 1135 1164 1150 1181 1140 b 1240 1158 1218 1135 1233 1144 b 1342 1535 1246 1168 1342 1363 b 1293 1706 1342 1597 1328 1658 b 1072 1799 1249 1767 1172 1799 b 969 1789 1040 1799 1006 1794 b 286 1503 739 1751 496 1650 b -114 971 38 1329 -114 1125 b -64 836 -114 919 -97 872 b 561 560 103 654 446 579 b -176 -449 407 426 -176 -106 b 104 -711 -174 -590 -67 -711 z m 713 1881 b 753 1921 736 1881 753 1904 b 743 1949 753 1931 749 1942 l 599 2104 b 569 2118 592 2113 579 2118 b 528 2076 549 2118 528 2097 b 538 2050 528 2068 532 2057 l 682 1894 b 713 1881 689 1886 701 1881 z "},"":{"ha":1269,"x_min":0,"x_max":0,"o":"m 104 -711 b 844 -303 299 -711 582 -550 b 1072 -8 882 -268 1068 -89 b 1026 46 1072 19 1050 46 b 986 6 1008 46 986 26 b 989 -12 986 -1 989 -11 b 343 -564 974 -74 656 -414 b 104 -629 250 -608 171 -629 b -94 -447 -28 -629 -93 -549 b 681 556 -94 -90 672 549 b 696 589 689 563 696 576 b 661 626 693 608 681 624 b -3 890 656 628 185 686 b -33 971 -24 913 -33 939 b 981 1708 -33 1200 439 1621 b 1072 1717 1015 1714 1044 1717 b 1261 1533 1215 1717 1261 1646 b 1168 1194 1261 1383 1169 1197 b 1164 1176 1165 1189 1164 1182 b 1201 1135 1164 1150 1181 1140 b 1240 1158 1218 1135 1233 1144 b 1342 1535 1246 1168 1342 1363 b 1293 1706 1342 1597 1328 1658 b 1072 1799 1249 1767 1172 1799 b 969 1789 1040 1799 1006 1794 b 286 1503 739 1751 496 1650 b -114 971 38 1329 -114 1125 b -64 836 -114 919 -97 872 b 561 560 103 654 446 579 b -176 -449 407 426 -176 -106 b 104 -711 -174 -590 -67 -711 z m 714 1871 b 744 1885 725 1871 738 1876 l 889 2040 b 899 2067 894 2047 899 2058 b 857 2108 899 2088 878 2108 b 828 2094 847 2108 835 2103 l 683 1939 b 674 1911 678 1932 674 1921 b 714 1871 674 1894 690 1871 z "},"":{"ha":1269,"x_min":0,"x_max":0,"o":"m 104 -711 b 844 -303 299 -711 582 -550 b 1072 -8 882 -268 1068 -89 b 1026 46 1072 19 1050 46 b 986 6 1008 46 986 26 b 989 -12 986 -1 989 -11 b 343 -564 974 -74 656 -414 b 104 -629 250 -608 171 -629 b -94 -447 -28 -629 -93 -549 b 681 556 -94 -90 672 549 b 696 589 689 563 696 576 b 661 626 693 608 681 624 b -3 890 656 628 185 686 b -33 971 -24 913 -33 939 b 981 1708 -33 1200 439 1621 b 1072 1717 1015 1714 1044 1717 b 1261 1533 1215 1717 1261 1646 b 1168 1194 1261 1383 1169 1197 b 1164 1176 1165 1189 1164 1182 b 1201 1135 1164 1150 1181 1140 b 1240 1158 1218 1135 1233 1144 b 1342 1535 1246 1168 1342 1363 b 1293 1706 1342 1597 1328 1658 b 1072 1799 1249 1767 1172 1799 b 969 1789 1040 1799 1006 1794 b 286 1503 739 1751 496 1650 b -114 971 38 1329 -114 1125 b -64 836 -114 919 -97 872 b 561 560 103 654 446 579 b -176 -449 407 426 -176 -106 b 104 -711 -174 -590 -67 -711 z m 547 1885 b 579 1900 558 1885 572 1892 l 729 2089 l 832 1925 b 867 1907 840 1914 856 1907 b 908 1947 888 1907 908 1928 b 903 1969 908 1954 906 1963 l 768 2179 b 736 2200 763 2192 749 2199 b 701 2185 724 2200 708 2193 l 515 1951 b 507 1926 510 1944 507 1935 b 547 1885 507 1907 528 1885 z "},"":{"ha":1269,"x_min":0,"x_max":0,"o":"m 104 -711 b 844 -303 299 -711 582 -550 b 1072 -8 882 -268 1068 -89 b 1026 46 1072 19 1050 46 b 986 6 1008 46 986 26 b 989 -12 986 -1 989 -11 b 343 -564 974 -74 656 -414 b 104 -629 250 -608 171 -629 b -94 -447 -28 -629 -93 -549 b 681 556 -94 -90 672 549 b 696 589 689 563 696 576 b 661 626 693 608 681 624 b -3 890 656 628 185 686 b -33 971 -24 913 -33 939 b 981 1708 -33 1200 439 1621 b 1072 1717 1015 1714 1044 1717 b 1261 1533 1215 1717 1261 1646 b 1168 1194 1261 1383 1169 1197 b 1164 1176 1165 1189 1164 1182 b 1201 1135 1164 1150 1181 1140 b 1240 1158 1218 1135 1233 1144 b 1342 1535 1246 1168 1342 1363 b 1293 1706 1342 1597 1328 1658 b 1072 1799 1249 1767 1172 1799 b 969 1789 1040 1799 1006 1794 b 286 1503 739 1751 496 1650 b -114 971 38 1329 -114 1125 b -64 836 -114 919 -97 872 b 561 560 103 654 446 579 b -176 -449 407 426 -176 -106 b 104 -711 -174 -590 -67 -711 z m 635 1921 b 678 1963 657 1921 678 1942 b 635 2006 678 1985 657 2006 b 593 1963 614 2006 593 1985 b 635 1921 593 1942 614 1921 z m 826 1922 b 868 1964 849 1922 868 1943 b 826 2007 868 1986 849 2007 b 785 1964 804 2007 785 1986 b 826 1922 785 1943 804 1922 z "},"":{"ha":760,"x_min":0,"x_max":0,"o":"m 321 -704 b 361 -664 342 -704 361 -685 b 471 118 364 -518 415 -208 b 628 1329 561 650 628 1071 b 490 1626 628 1506 596 1626 b 333 1536 450 1626 396 1606 b 85 994 231 1422 133 1210 b 50 707 68 922 50 818 b 129 368 50 593 69 469 b 164 350 138 357 153 350 b 206 390 185 350 206 369 b 200 411 206 397 203 406 b 131 706 151 492 131 594 b 396 1482 131 1000 271 1344 b 492 1546 418 1508 458 1546 b 506 1543 497 1546 501 1546 b 546 1332 521 1536 546 1503 b 531 1069 546 1267 542 1181 b 279 -664 474 499 285 -362 b 319 -704 279 -685 299 -704 z m 476 1785 b 517 1825 500 1785 517 1808 b 507 1853 517 1835 513 1846 l 363 2008 b 333 2022 356 2017 343 2022 b 292 1981 313 2022 292 2001 b 301 1954 292 1972 296 1961 l 446 1799 b 476 1785 453 1790 465 1785 z "},"":{"ha":760,"x_min":0,"x_max":0,"o":"m 321 -704 b 361 -664 342 -704 361 -685 b 471 118 364 -518 415 -208 b 628 1329 561 650 628 1071 b 490 1626 628 1506 596 1626 b 333 1536 450 1626 396 1606 b 85 994 231 1422 133 1210 b 50 707 68 922 50 818 b 129 368 50 593 69 469 b 164 350 138 357 153 350 b 206 390 185 350 206 369 b 200 411 206 397 203 406 b 131 706 151 492 131 594 b 396 1482 131 1000 271 1344 b 492 1546 418 1508 458 1546 b 506 1543 497 1546 501 1546 b 546 1332 521 1536 546 1503 b 531 1069 546 1267 542 1181 b 279 -664 474 499 285 -362 b 319 -704 279 -685 299 -704 z m 478 1775 b 508 1789 489 1775 501 1781 l 653 1944 b 663 1971 658 1951 663 1963 b 621 2013 663 1992 642 2013 b 592 1999 611 2013 599 2007 l 447 1843 b 438 1815 442 1836 438 1825 b 478 1775 438 1799 454 1775 z "},"":{"ha":760,"x_min":0,"x_max":0,"o":"m 321 -704 b 361 -664 342 -704 361 -685 b 471 118 364 -518 415 -208 b 628 1329 561 650 628 1071 b 490 1626 628 1506 596 1626 b 333 1536 450 1626 396 1606 b 85 994 231 1422 133 1210 b 50 707 68 922 50 818 b 129 368 50 593 69 469 b 164 350 138 357 153 350 b 206 390 185 350 206 369 b 200 411 206 397 203 406 b 131 706 151 492 131 594 b 396 1482 131 1000 271 1344 b 492 1546 418 1508 458 1546 b 506 1543 497 1546 501 1546 b 546 1332 521 1536 546 1503 b 531 1069 546 1267 542 1181 b 279 -664 474 499 285 -362 b 319 -704 279 -685 299 -704 z m 311 1789 b 343 1804 322 1789 336 1796 l 493 1993 l 596 1829 b 631 1811 604 1818 619 1811 b 672 1851 651 1811 672 1832 b 667 1874 672 1858 669 1867 l 532 2083 b 500 2104 526 2096 513 2103 b 465 2089 488 2104 472 2097 l 279 1856 b 271 1831 274 1849 271 1839 b 311 1789 271 1811 292 1789 z "},"":{"ha":760,"x_min":0,"x_max":0,"o":"m 321 -704 b 361 -664 342 -704 361 -685 b 471 118 364 -518 415 -208 b 628 1329 561 650 628 1071 b 490 1626 628 1506 596 1626 b 333 1536 450 1626 396 1606 b 85 994 231 1422 133 1210 b 50 707 68 922 50 818 b 129 368 50 593 69 469 b 164 350 138 357 153 350 b 206 390 185 350 206 369 b 200 411 206 397 203 406 b 131 706 151 492 131 594 b 396 1482 131 1000 271 1344 b 492 1546 418 1508 458 1546 b 506 1543 497 1546 501 1546 b 546 1332 521 1536 546 1503 b 531 1069 546 1267 542 1181 b 279 -664 474 499 285 -362 b 319 -704 279 -685 299 -704 z m 399 1825 b 442 1867 421 1825 442 1846 b 399 1910 442 1889 421 1910 b 357 1867 378 1910 357 1889 b 399 1825 357 1846 378 1825 z m 590 1826 b 632 1868 613 1826 632 1847 b 590 1911 632 1890 613 1911 b 549 1868 568 1911 549 1890 b 590 1826 549 1847 568 1826 z "},"":{"ha":1367,"x_min":0,"x_max":0,"o":"m 128 -682 b 168 -647 144 -682 164 -667 b 425 510 168 -642 274 -61 b 936 1613 681 1465 853 1613 b 1022 1272 965 1611 1010 1586 b 1025 1117 1024 1224 1025 1171 b 985 -86 1025 743 985 225 b 1108 -510 985 -362 1015 -510 b 1151 -468 1131 -510 1151 -494 b 1110 -429 1150 -447 1132 -429 b 1067 -90 1104 -429 1068 -400 b 1107 1124 1067 250 1107 781 b 936 1693 1107 1515 1065 1688 b 346 529 746 1693 554 1307 l 317 421 l 304 375 b 368 1294 332 624 367 986 b 286 1753 368 1629 322 1717 b 204 1786 265 1775 235 1786 b -139 1028 57 1786 -139 1551 b -132 846 -139 971 -136 911 b -92 808 -131 825 -110 808 b -51 849 -69 810 -51 826 b -58 1028 -54 914 -58 968 b 203 1704 -58 1540 119 1704 b 286 1300 253 1704 286 1642 b 232 465 286 1115 272 849 b 88 -637 174 -92 88 -631 l 88 -642 b 128 -682 88 -664 103 -682 z m 90 1479 b 132 1514 114 1479 125 1496 b 161 1586 156 1585 164 1586 b 335 1483 193 1581 272 1483 b 453 1626 404 1483 442 1593 l 454 1636 b 414 1678 454 1660 436 1675 b 374 1647 397 1678 379 1665 b 333 1564 364 1608 342 1567 b 272 1608 326 1564 293 1592 b 164 1667 226 1644 203 1665 b 56 1540 97 1667 65 1574 b 50 1519 51 1535 50 1528 b 90 1479 50 1501 71 1479 z "},"":{"ha":1335,"x_min":0,"x_max":0,"o":"m 357 -603 b 1094 433 639 -603 929 -192 b 1190 1104 1157 674 1190 908 b 1140 1449 1190 1240 1174 1360 b 883 1660 1078 1622 963 1660 b 556 1418 772 1660 660 1576 b 138 -39 319 1058 138 335 b 164 -226 138 -119 146 -185 b 201 -251 169 -242 186 -251 b 242 -210 222 -251 242 -231 l 239 -196 b 218 -44 225 -164 218 -112 b 624 1374 218 299 383 1008 b 883 1579 714 1510 801 1579 b 1110 1103 1029 1579 1110 1413 b 1015 454 1110 915 1078 690 b 358 -521 863 -125 599 -521 b 233 -486 315 -521 275 -510 b 26 83 88 -403 26 -182 b 124 714 26 286 63 510 b 338 1106 200 975 290 1106 l 340 1106 b 383 1144 361 1106 382 1124 b 339 1188 383 1171 363 1188 b 44 739 190 1188 75 843 b -54 79 -11 550 -54 307 b 194 -557 -54 -196 10 -451 b 357 -603 246 -586 303 -603 z m 851 1796 b 892 1836 875 1796 892 1819 b 882 1864 892 1846 888 1857 l 738 2019 b 708 2033 731 2028 718 2033 b 667 1992 688 2033 667 2013 b 676 1965 667 1983 671 1972 l 821 1810 b 851 1796 828 1801 840 1796 z "},"":{"ha":1335,"x_min":0,"x_max":0,"o":"m 357 -603 b 1094 433 639 -603 929 -192 b 1190 1104 1157 674 1190 908 b 1140 1449 1190 1240 1174 1360 b 883 1660 1078 1622 963 1660 b 556 1418 772 1660 660 1576 b 138 -39 319 1058 138 335 b 164 -226 138 -119 146 -185 b 201 -251 169 -242 186 -251 b 242 -210 222 -251 242 -231 l 239 -196 b 218 -44 225 -164 218 -112 b 624 1374 218 299 383 1008 b 883 1579 714 1510 801 1579 b 1110 1103 1029 1579 1110 1413 b 1015 454 1110 915 1078 690 b 358 -521 863 -125 599 -521 b 233 -486 315 -521 275 -510 b 26 83 88 -403 26 -182 b 124 714 26 286 63 510 b 338 1106 200 975 290 1106 l 340 1106 b 383 1144 361 1106 382 1124 b 339 1188 383 1171 363 1188 b 44 739 190 1188 75 843 b -54 79 -11 550 -54 307 b 194 -557 -54 -196 10 -451 b 357 -603 246 -586 303 -603 z m 853 1786 b 883 1800 864 1786 876 1792 l 1028 1956 b 1038 1982 1033 1963 1038 1974 b 996 2024 1038 2003 1017 2024 b 967 2010 986 2024 974 2018 l 822 1854 b 813 1826 817 1847 813 1836 b 853 1786 813 1810 829 1786 z "},"":{"ha":1335,"x_min":0,"x_max":0,"o":"m 357 -603 b 1094 433 639 -603 929 -192 b 1190 1104 1157 674 1190 908 b 1140 1449 1190 1240 1174 1360 b 883 1660 1078 1622 963 1660 b 556 1418 772 1660 660 1576 b 138 -39 319 1058 138 335 b 164 -226 138 -119 146 -185 b 201 -251 169 -242 186 -251 b 242 -210 222 -251 242 -231 l 239 -196 b 218 -44 225 -164 218 -112 b 624 1374 218 299 383 1008 b 883 1579 714 1510 801 1579 b 1110 1103 1029 1579 1110 1413 b 1015 454 1110 915 1078 690 b 358 -521 863 -125 599 -521 b 233 -486 315 -521 275 -510 b 26 83 88 -403 26 -182 b 124 714 26 286 63 510 b 338 1106 200 975 290 1106 l 340 1106 b 383 1144 361 1106 382 1124 b 339 1188 383 1171 363 1188 b 44 739 190 1188 75 843 b -54 79 -11 550 -54 307 b 194 -557 -54 -196 10 -451 b 357 -603 246 -586 303 -603 z m 686 1800 b 718 1815 697 1800 711 1807 l 868 2004 l 971 1840 b 1006 1822 979 1829 994 1822 b 1047 1863 1026 1822 1047 1843 b 1042 1885 1047 1869 1044 1878 l 907 2094 b 875 2115 901 2107 888 2114 b 840 2100 863 2115 847 2108 l 654 1867 b 646 1842 649 1860 646 1850 b 686 1800 646 1822 667 1800 z "},"":{"ha":1335,"x_min":0,"x_max":0,"o":"m 357 -603 b 1094 433 639 -603 929 -192 b 1190 1104 1157 674 1190 908 b 1140 1449 1190 1240 1174 1360 b 883 1660 1078 1622 963 1660 b 556 1418 772 1660 660 1576 b 138 -39 319 1058 138 335 b 164 -226 138 -119 146 -185 b 201 -251 169 -242 186 -251 b 242 -210 222 -251 242 -231 l 239 -196 b 218 -44 225 -164 218 -112 b 624 1374 218 299 383 1008 b 883 1579 714 1510 801 1579 b 1110 1103 1029 1579 1110 1413 b 1015 454 1110 915 1078 690 b 358 -521 863 -125 599 -521 b 233 -486 315 -521 275 -510 b 26 83 88 -403 26 -182 b 124 714 26 286 63 510 b 338 1106 200 975 290 1106 l 340 1106 b 383 1144 361 1106 382 1124 b 339 1188 383 1171 363 1188 b 44 739 190 1188 75 843 b -54 79 -11 550 -54 307 b 194 -557 -54 -196 10 -451 b 357 -603 246 -586 303 -603 z m 90 1479 b 132 1514 114 1479 125 1496 b 161 1586 156 1585 164 1586 b 335 1483 193 1581 272 1483 b 453 1626 404 1483 442 1593 l 454 1636 b 414 1678 454 1660 436 1675 b 374 1647 397 1678 379 1665 b 333 1564 364 1608 342 1567 b 272 1608 326 1564 293 1592 b 164 1667 226 1644 203 1665 b 56 1540 97 1667 65 1574 b 50 1519 51 1535 50 1528 b 90 1479 50 1501 71 1479 z "},"":{"ha":1335,"x_min":0,"x_max":0,"o":"m 357 -603 b 1094 433 639 -603 929 -192 b 1190 1104 1157 674 1190 908 b 1140 1449 1190 1240 1174 1360 b 883 1660 1078 1622 963 1660 b 556 1418 772 1660 660 1576 b 138 -39 319 1058 138 335 b 164 -226 138 -119 146 -185 b 201 -251 169 -242 186 -251 b 242 -210 222 -251 242 -231 l 239 -196 b 218 -44 225 -164 218 -112 b 624 1374 218 299 383 1008 b 883 1579 714 1510 801 1579 b 1110 1103 1029 1579 1110 1413 b 1015 454 1110 915 1078 690 b 358 -521 863 -125 599 -521 b 233 -486 315 -521 275 -510 b 26 83 88 -403 26 -182 b 124 714 26 286 63 510 b 338 1106 200 975 290 1106 l 340 1106 b 383 1144 361 1106 382 1124 b 339 1188 383 1171 363 1188 b 44 739 190 1188 75 843 b -54 79 -11 550 -54 307 b 194 -557 -54 -196 10 -451 b 357 -603 246 -586 303 -603 z m 774 1836 b 817 1878 796 1836 817 1857 b 774 1921 817 1900 796 1921 b 732 1878 753 1921 732 1900 b 774 1836 732 1857 753 1836 z m 965 1838 b 1007 1879 988 1838 1007 1858 b 965 1922 1007 1901 988 1922 b 924 1879 943 1922 924 1901 b 965 1838 924 1858 943 1838 z "},"":{"ha":854,"x_min":0,"x_max":0,"o":"m 264 303 b 292 313 274 303 283 307 l 431 438 l 585 335 b 608 326 590 329 601 326 b 649 367 629 326 649 346 b 631 401 649 379 642 394 l 494 492 l 618 600 b 632 631 626 608 632 621 b 590 672 632 651 611 672 b 564 663 582 672 571 668 l 424 539 l 268 642 b 247 649 263 646 253 649 b 206 608 228 649 206 631 b 224 575 206 597 213 582 l 360 483 l 238 375 b 224 344 229 367 224 354 b 264 303 224 325 244 303 z "},"":{"ha":1335,"x_min":0,"x_max":0,"o":"m 357 -603 b 1094 433 649 -603 921 -190 b 1190 1104 1158 679 1190 903 b 1140 1449 1190 1242 1174 1357 b 883 1660 1076 1625 967 1660 b 556 1418 772 1660 664 1579 b 136 -33 303 1022 136 324 b 164 -228 136 -114 146 -179 b 201 -251 172 -243 185 -251 b 242 -212 228 -247 242 -235 b 238 -196 242 -207 240 -201 b 218 -40 225 -160 218 -108 b 378 815 218 90 243 379 b 883 1579 511 1250 708 1579 b 1058 1436 963 1579 1021 1532 l 957 1244 b 751 833 901 1142 899 1129 b 181 -446 429 200 239 -226 b 26 86 78 -358 26 -182 b 39 313 26 131 31 207 b 124 714 47 419 75 553 b 338 1106 204 983 293 1106 l 340 1106 b 383 1143 365 1107 379 1119 b 346 1188 382 1169 369 1183 b 44 739 182 1185 76 850 b -54 83 -10 554 -54 307 l -50 -67 b 11 -331 -47 -142 -26 -229 b 357 -603 74 -497 211 -603 z m 358 -522 b 249 -494 319 -522 282 -512 b 813 776 290 -312 478 111 b 1089 1336 1008 1165 1033 1224 b 1110 1106 1103 1283 1110 1207 b 1015 454 1110 910 1078 693 b 358 -522 864 -96 613 -522 z "},"":{"ha":1439,"x_min":0,"x_max":0,"o":"m 1129 -911 b 1182 -867 1153 -911 1182 -894 b 1140 -828 1179 -844 1164 -828 l 1131 -829 b 1096 -547 1119 -824 1096 -789 b 1182 499 1096 -335 1121 1 b 1361 1739 1258 1121 1360 1731 l 1361 1744 b 1322 1785 1361 1765 1344 1783 b 1281 1754 1306 1785 1286 1772 b 251 -428 1135 1210 614 -428 b 185 -374 239 -428 213 -426 b 132 3 149 -303 132 -174 b 163 475 132 138 142 296 b 288 1138 203 821 265 1086 b 317 1178 306 1138 317 1161 b 257 1221 321 1206 286 1231 b 169 1017 240 1214 214 1206 b 99 615 144 906 119 763 b 50 -1 81 490 50 233 b 249 -508 50 -294 103 -508 b 1003 633 465 -503 714 -135 b 1192 1172 1096 879 1178 1128 b 1015 -553 1114 668 1015 -175 b 1081 -893 1015 -799 1049 -865 b 1129 -911 1093 -904 1111 -911 z m 725 1579 b 765 1619 749 1579 765 1603 b 756 1647 765 1629 761 1640 l 611 1803 b 582 1817 604 1811 592 1817 b 540 1775 561 1817 540 1796 b 550 1749 540 1767 544 1756 l 694 1593 b 725 1579 701 1585 714 1579 z "},"":{"ha":1439,"x_min":0,"x_max":0,"o":"m 1129 -911 b 1182 -867 1153 -911 1182 -894 b 1140 -828 1179 -844 1164 -828 l 1131 -829 b 1096 -547 1119 -824 1096 -789 b 1182 499 1096 -335 1121 1 b 1361 1739 1258 1121 1360 1731 l 1361 1744 b 1322 1785 1361 1765 1344 1783 b 1281 1754 1306 1785 1286 1772 b 251 -428 1135 1210 614 -428 b 185 -374 239 -428 213 -426 b 132 3 149 -303 132 -174 b 163 475 132 138 142 296 b 288 1138 203 821 265 1086 b 317 1178 306 1138 317 1161 b 257 1221 321 1206 286 1231 b 169 1017 240 1214 214 1206 b 99 615 144 906 119 763 b 50 -1 81 490 50 233 b 249 -508 50 -294 103 -508 b 1003 633 465 -503 714 -135 b 1192 1172 1096 879 1178 1128 b 1015 -553 1114 668 1015 -175 b 1081 -893 1015 -799 1049 -865 b 1129 -911 1093 -904 1111 -911 z m 726 1569 b 757 1583 738 1569 750 1575 l 901 1739 b 911 1765 907 1746 911 1757 b 869 1807 911 1786 890 1807 b 840 1793 860 1807 847 1801 l 696 1638 b 686 1610 690 1631 686 1619 b 726 1569 686 1593 703 1569 z "},"":{"ha":1439,"x_min":0,"x_max":0,"o":"m 1129 -911 b 1182 -867 1153 -911 1182 -894 b 1140 -828 1179 -844 1164 -828 l 1131 -829 b 1096 -547 1119 -824 1096 -789 b 1182 499 1096 -335 1121 1 b 1361 1739 1258 1121 1360 1731 l 1361 1744 b 1322 1785 1361 1765 1344 1783 b 1281 1754 1306 1785 1286 1772 b 251 -428 1135 1210 614 -428 b 185 -374 239 -428 213 -426 b 132 3 149 -303 132 -174 b 163 475 132 138 142 296 b 288 1138 203 821 265 1086 b 317 1178 306 1138 317 1161 b 257 1221 321 1206 286 1231 b 169 1017 240 1214 214 1206 b 99 615 144 906 119 763 b 50 -1 81 490 50 233 b 249 -508 50 -294 103 -508 b 1003 633 465 -503 714 -135 b 1192 1172 1096 879 1178 1128 b 1015 -553 1114 668 1015 -175 b 1081 -893 1015 -799 1049 -865 b 1129 -911 1093 -904 1111 -911 z m 560 1583 b 592 1599 571 1583 585 1590 l 742 1788 l 844 1624 b 879 1606 853 1613 868 1606 b 921 1646 900 1606 921 1626 b 915 1668 921 1653 918 1661 l 781 1878 b 749 1899 775 1890 761 1897 b 714 1883 736 1899 721 1892 l 528 1650 b 519 1625 522 1643 519 1633 b 560 1583 519 1606 540 1583 z "},"":{"ha":1439,"x_min":0,"x_max":0,"o":"m 1129 -911 b 1182 -867 1153 -911 1182 -894 b 1140 -828 1179 -844 1164 -828 l 1131 -829 b 1096 -547 1119 -824 1096 -789 b 1182 499 1096 -335 1121 1 b 1361 1739 1258 1121 1360 1731 l 1361 1744 b 1322 1785 1361 1765 1344 1783 b 1281 1754 1306 1785 1286 1772 b 251 -428 1135 1210 614 -428 b 185 -374 239 -428 213 -426 b 132 3 149 -303 132 -174 b 163 475 132 138 142 296 b 288 1138 203 821 265 1086 b 317 1178 306 1138 317 1161 b 257 1221 321 1206 286 1231 b 169 1017 240 1214 214 1206 b 99 615 144 906 119 763 b 50 -1 81 490 50 233 b 249 -508 50 -294 103 -508 b 1003 633 465 -503 714 -135 b 1192 1172 1096 879 1178 1128 b 1015 -553 1114 668 1015 -175 b 1081 -893 1015 -799 1049 -865 b 1129 -911 1093 -904 1111 -911 z m 647 1619 b 690 1661 669 1619 690 1640 b 647 1704 690 1683 669 1704 b 606 1661 626 1704 606 1683 b 647 1619 606 1640 626 1619 z m 839 1621 b 881 1663 861 1621 881 1642 b 839 1706 881 1685 861 1706 b 797 1663 817 1706 797 1685 b 839 1621 797 1642 817 1621 z "},"":{"ha":1550,"x_min":0,"x_max":0,"o":"m 581 -1021 b 771 -871 628 -1021 697 -990 b 1083 128 885 -683 993 -296 b 1115 154 1085 129 1104 146 b 1574 417 1353 324 1572 417 b 1601 456 1590 425 1601 440 b 1560 496 1601 475 1581 496 b 1544 493 1556 496 1550 496 b 1107 247 1542 492 1324 399 b 1344 1668 1242 894 1338 1619 l 1344 1672 b 1306 1714 1344 1694 1328 1713 b 1267 1689 1290 1714 1272 1704 b 872 900 1265 1685 1089 1288 b 274 179 528 285 353 179 b 132 540 174 189 132 303 b 176 971 132 664 146 813 b 290 1375 218 1193 269 1344 l 289 1376 l 297 1376 b 338 1417 315 1376 338 1396 b 283 1468 338 1449 301 1468 b 189 1342 257 1465 231 1457 b 50 532 115 1144 50 785 b 272 97 53 258 128 97 b 944 863 436 97 657 350 b 1225 1407 1074 1093 1188 1328 b 1010 176 1197 1211 1114 672 b 429 -761 604 -128 429 -469 b 542 -1012 429 -890 471 -987 b 581 -1021 551 -1018 565 -1021 z m 581 -939 b 511 -764 542 -939 511 -876 b 519 -657 511 -732 514 -696 b 982 51 565 -347 796 -97 b 701 -828 903 -306 804 -660 b 581 -939 657 -901 614 -939 z m 714 1647 b 744 1661 725 1647 738 1653 l 889 1817 b 899 1843 894 1824 899 1835 b 857 1885 899 1864 878 1885 b 828 1871 847 1885 835 1879 l 683 1715 b 674 1688 678 1708 674 1697 b 714 1647 674 1671 690 1647 z "},"":{"ha":928,"x_min":0,"x_max":0,"o":"m 460 -160 b 801 143 551 -160 665 -58 b 993 465 908 297 993 463 b 996 482 994 468 996 476 b 957 521 996 503 976 521 b 919 499 943 521 926 513 b 461 -79 801 268 578 -79 l 449 -78 b 431 -61 443 -76 438 -75 b 415 29 419 -40 415 -10 b 599 760 415 226 539 604 b 581 803 599 760 611 788 b 524 792 564 813 542 814 b 443 667 521 788 486 731 b 268 786 431 713 361 786 b 153 746 232 786 192 775 b -82 189 33 657 -82 347 b -10 65 -82 99 -36 69 l 4 64 b 361 406 57 64 150 117 b 419 485 392 449 419 485 b 335 29 394 406 335 182 b 460 -160 335 -97 386 -160 z m 6 146 b -1 193 3 146 -1 174 b 200 681 -1 331 103 608 b 269 706 226 700 249 706 b 335 679 300 706 322 690 b 376 593 363 656 376 624 b 368 557 376 579 374 567 b 296 453 346 522 321 488 b 6 146 88 169 21 146 z m 293 947 b 333 988 317 947 333 971 b 324 1015 333 997 329 1008 l 179 1171 b 150 1185 172 1179 160 1185 b 108 1143 129 1185 108 1164 b 118 1117 108 1135 113 1124 l 263 961 b 293 947 269 953 282 947 z "},"":{"ha":928,"x_min":0,"x_max":0,"o":"m 460 -160 b 801 143 551 -160 665 -58 b 993 465 908 297 993 463 b 996 482 994 468 996 476 b 957 521 996 503 976 521 b 919 499 943 521 926 513 b 461 -79 801 268 578 -79 l 449 -78 b 431 -61 443 -76 438 -75 b 415 29 419 -40 415 -10 b 599 760 415 226 539 604 b 581 803 599 760 611 788 b 524 792 564 813 542 814 b 443 667 521 788 486 731 b 268 786 431 713 361 786 b 153 746 232 786 192 775 b -82 189 33 657 -82 347 b -10 65 -82 99 -36 69 l 4 64 b 361 406 57 64 150 117 b 419 485 392 449 419 485 b 335 29 394 406 335 182 b 460 -160 335 -97 386 -160 z m 6 146 b -1 193 3 146 -1 174 b 200 681 -1 331 103 608 b 269 706 226 700 249 706 b 335 679 300 706 322 690 b 376 593 363 656 376 624 b 368 557 376 579 374 567 b 296 453 346 522 321 488 b 6 146 88 169 21 146 z m 294 938 b 325 951 306 938 318 943 l 469 1107 b 479 1133 475 1114 479 1125 b 438 1175 479 1154 458 1175 b 408 1161 428 1175 415 1169 l 264 1006 b 254 978 258 999 254 988 b 294 938 254 961 271 938 z "},"":{"ha":928,"x_min":0,"x_max":0,"o":"m 460 -160 b 801 143 551 -160 665 -58 b 993 465 908 297 993 463 b 996 482 994 468 996 476 b 957 521 996 503 976 521 b 919 499 943 521 926 513 b 461 -79 801 268 578 -79 l 449 -78 b 431 -61 443 -76 438 -75 b 415 29 419 -40 415 -10 b 599 760 415 226 539 604 b 581 803 599 760 611 788 b 524 792 564 813 542 814 b 443 667 521 788 486 731 b 268 786 431 713 361 786 b 153 746 232 786 192 775 b -82 189 33 657 -82 347 b -10 65 -82 99 -36 69 l 4 64 b 361 406 57 64 150 117 b 419 485 392 449 419 485 b 335 29 394 406 335 182 b 460 -160 335 -97 386 -160 z m 6 146 b -1 193 3 146 -1 174 b 200 681 -1 331 103 608 b 269 706 226 700 249 706 b 335 679 300 706 322 690 b 376 593 363 656 376 624 b 368 557 376 579 374 567 b 296 453 346 522 321 488 b 6 146 88 169 21 146 z m 128 951 b 160 967 139 951 153 958 l 310 1156 l 413 992 b 447 974 421 981 436 974 b 489 1014 468 974 489 994 b 483 1036 489 1021 486 1029 l 349 1246 b 317 1267 343 1258 329 1265 b 282 1251 304 1267 289 1260 l 96 1018 b 88 993 90 1011 88 1001 b 128 951 88 974 108 951 z "},"":{"ha":928,"x_min":0,"x_max":0,"o":"m 460 -160 b 801 143 551 -160 665 -58 b 993 465 908 297 993 463 b 996 482 994 468 996 476 b 957 521 996 503 976 521 b 919 499 943 521 926 513 b 461 -79 801 268 578 -79 l 449 -78 b 431 -61 443 -76 438 -75 b 415 29 419 -40 415 -10 b 599 760 415 226 539 604 b 581 803 599 760 611 788 b 524 792 564 813 542 814 b 443 667 521 788 486 731 b 268 786 431 713 361 786 b 153 746 232 786 192 775 b -82 189 33 657 -82 347 b -10 65 -82 99 -36 69 l 4 64 b 361 406 57 64 150 117 b 419 485 392 449 419 485 b 335 29 394 406 335 182 b 460 -160 335 -97 386 -160 z m 6 146 b -1 193 3 146 -1 174 b 200 681 -1 331 103 608 b 269 706 226 700 249 706 b 335 679 300 706 322 690 b 376 593 363 656 376 624 b 368 557 376 579 374 567 b 296 453 346 522 321 488 b 6 146 88 169 21 146 z m 90 1479 b 132 1514 114 1479 125 1496 b 161 1586 156 1585 164 1586 b 335 1483 193 1581 272 1483 b 453 1626 404 1483 442 1593 l 454 1636 b 414 1678 454 1660 436 1675 b 374 1647 397 1678 379 1665 b 333 1564 364 1608 342 1567 b 272 1608 326 1564 293 1592 b 164 1667 226 1644 203 1665 b 56 1540 97 1667 65 1574 b 50 1519 51 1535 50 1528 b 90 1479 50 1501 71 1479 z "},"":{"ha":928,"x_min":0,"x_max":0,"o":"m 460 -160 b 801 143 551 -160 665 -58 b 993 465 908 297 993 463 b 996 482 994 468 996 476 b 957 521 996 503 976 521 b 919 499 943 521 926 513 b 461 -79 801 268 578 -79 l 449 -78 b 431 -61 443 -76 438 -75 b 415 29 419 -40 415 -10 b 599 760 415 226 539 604 b 581 803 599 760 611 788 b 524 792 564 813 542 814 b 443 667 521 788 486 731 b 268 786 431 713 361 786 b 153 746 232 786 192 775 b -82 189 33 657 -82 347 b -10 65 -82 99 -36 69 l 4 64 b 361 406 57 64 150 117 b 419 485 392 449 419 485 b 335 29 394 406 335 182 b 460 -160 335 -97 386 -160 z m 6 146 b -1 193 3 146 -1 174 b 200 681 -1 331 103 608 b 269 706 226 700 249 706 b 335 679 300 706 322 690 b 376 593 363 656 376 624 b 368 557 376 579 374 567 b 296 453 346 522 321 488 b 6 146 88 169 21 146 z m 215 988 b 258 1029 238 988 258 1008 b 215 1072 258 1051 238 1072 b 174 1029 194 1072 174 1051 b 215 988 174 1008 194 988 z m 407 989 b 449 1031 429 989 449 1010 b 407 1074 449 1053 429 1074 b 365 1031 385 1074 365 1053 b 407 989 365 1010 385 989 z "},"":{"ha":928,"x_min":0,"x_max":0,"o":"m 460 -160 b 801 143 551 -160 665 -58 b 993 465 908 297 993 463 b 996 482 994 468 996 476 b 957 521 996 503 976 521 b 919 499 943 521 926 513 b 461 -79 801 268 578 -79 l 449 -78 b 431 -61 443 -76 438 -75 b 415 29 419 -40 415 -10 b 599 760 415 226 539 604 b 581 803 599 760 611 788 b 524 792 564 813 542 814 b 443 667 521 788 486 731 b 268 786 431 713 361 786 b 153 746 232 786 192 775 b -82 189 33 657 -82 347 b -10 65 -82 99 -36 69 l 4 64 b 361 406 57 64 150 117 b 419 485 392 449 419 485 b 335 29 394 406 335 182 b 460 -160 335 -97 386 -160 z m 6 146 b -1 193 3 146 -1 174 b 200 681 -1 331 103 608 b 269 706 226 700 249 706 b 335 679 300 706 322 690 b 376 593 363 656 376 624 b 368 557 376 579 374 567 b 296 453 346 522 321 488 b 6 146 88 169 21 146 z m 288 975 b 443 1149 386 975 443 1072 b 394 1256 440 1196 431 1228 b 303 1288 369 1275 336 1288 b 142 1121 206 1281 142 1221 b 288 975 142 1039 210 975 z m 286 1057 b 222 1121 250 1057 222 1082 b 293 1206 222 1189 269 1203 l 303 1207 b 361 1150 342 1207 360 1188 b 297 1058 361 1114 350 1067 z "},"":{"ha":911,"x_min":0,"x_max":0,"o":"m 150 -165 b 639 104 276 -165 442 -74 b 967 449 821 267 965 447 b 976 475 972 457 976 467 b 936 515 976 496 956 515 b 904 501 925 515 913 510 b 150 -83 763 325 379 -83 b -8 131 36 -83 -8 13 b 22 331 -8 207 10 283 b 388 881 96 606 282 881 b 442 739 429 879 442 828 b 411 467 442 617 411 490 b 453 426 410 440 425 426 b 492 464 476 428 488 443 b 522 738 508 561 522 646 b 389 961 522 879 481 957 b 136 767 286 961 185 839 b -89 133 0 574 -89 314 b 150 -165 -89 -51 8 -165 z m 36 -696 b 388 -504 147 -696 364 -672 l 390 -474 b 347 -371 390 -432 375 -396 b 185 -322 306 -332 239 -322 b 136 -325 160 -322 136 -324 b 190 -131 167 -214 185 -154 b 149 -89 190 -110 168 -89 b 113 -111 135 -89 119 -97 b 42 -364 107 -125 69 -257 l 40 -374 b 83 -414 40 -396 63 -414 b 183 -404 108 -412 138 -404 b 308 -474 254 -404 308 -418 b 307 -493 308 -479 308 -486 b 38 -614 292 -599 132 -614 b -29 -611 0 -614 -28 -611 l -32 -611 b -72 -651 -53 -611 -71 -629 b -36 -693 -72 -669 -56 -689 b 36 -696 -31 -693 -3 -696 z "},"":{"ha":810,"x_min":0,"x_max":0,"o":"m 135 -140 b 865 453 426 -140 851 432 b 874 476 871 458 874 468 b 833 517 874 496 853 517 b 801 501 822 517 808 511 b 178 -54 797 497 424 3 b 135 -60 168 -57 153 -60 b -1 132 82 -60 -1 -42 b 72 485 -1 232 33 386 b 386 601 121 489 304 510 b 426 706 413 631 426 668 b 301 832 424 781 376 829 b -64 304 174 832 14 668 b -83 133 -76 240 -83 183 b 135 -140 -83 -40 3 -140 z m 110 572 b 307 750 178 711 256 750 b 346 707 333 749 346 735 b 325 656 346 688 339 672 b 110 572 278 601 164 578 z m 267 940 b 307 981 290 940 307 964 b 297 1008 307 990 303 1001 l 153 1164 b 124 1178 146 1172 133 1178 b 82 1136 103 1178 82 1157 b 92 1110 82 1128 86 1117 l 236 954 b 267 940 243 946 256 940 z "},"":{"ha":810,"x_min":0,"x_max":0,"o":"m 135 -140 b 865 453 426 -140 851 432 b 874 476 871 458 874 468 b 833 517 874 496 853 517 b 801 501 822 517 808 511 b 178 -54 797 497 424 3 b 135 -60 168 -57 153 -60 b -1 132 82 -60 -1 -42 b 72 485 -1 232 33 386 b 386 601 121 489 304 510 b 426 706 413 631 426 668 b 301 832 424 781 376 829 b -64 304 174 832 14 668 b -83 133 -76 240 -83 183 b 135 -140 -83 -40 3 -140 z m 110 572 b 307 750 178 711 256 750 b 346 707 333 749 346 735 b 325 656 346 688 339 672 b 110 572 278 601 164 578 z m 268 931 b 299 944 279 931 292 936 l 443 1100 b 453 1126 449 1107 453 1118 b 411 1168 453 1147 432 1168 b 382 1154 401 1168 389 1163 l 238 999 b 228 971 232 992 228 981 b 268 931 228 954 244 931 z "},"":{"ha":810,"x_min":0,"x_max":0,"o":"m 135 -140 b 865 453 426 -140 851 432 b 874 476 871 458 874 468 b 833 517 874 496 853 517 b 801 501 822 517 808 511 b 178 -54 797 497 424 3 b 135 -60 168 -57 153 -60 b -1 132 82 -60 -1 -42 b 72 485 -1 232 33 386 b 386 601 121 489 304 510 b 426 706 413 631 426 668 b 301 832 424 781 376 829 b -64 304 174 832 14 668 b -83 133 -76 240 -83 183 b 135 -140 -83 -40 3 -140 z m 110 572 b 307 750 178 711 256 750 b 346 707 333 749 346 735 b 325 656 346 688 339 672 b 110 572 278 601 164 578 z m 101 944 b 133 960 113 944 126 951 l 283 1149 l 386 985 b 421 967 394 974 410 967 b 463 1007 442 967 463 988 b 457 1029 463 1014 460 1022 l 322 1239 b 290 1260 317 1251 303 1258 b 256 1244 278 1260 263 1253 l 69 1011 b 61 986 64 1004 61 994 b 101 944 61 967 82 944 z "},"":{"ha":810,"x_min":0,"x_max":0,"o":"m 135 -140 b 865 453 426 -140 851 432 b 874 476 871 458 874 468 b 833 517 874 496 853 517 b 801 501 822 517 808 511 b 178 -54 797 497 424 3 b 135 -60 168 -57 153 -60 b -1 132 82 -60 -1 -42 b 72 485 -1 232 33 386 b 386 601 121 489 304 510 b 426 706 413 631 426 668 b 301 832 424 781 376 829 b -64 304 174 832 14 668 b -83 133 -76 240 -83 183 b 135 -140 -83 -40 3 -140 z m 110 572 b 307 750 178 711 256 750 b 346 707 333 749 346 735 b 325 656 346 688 339 672 b 110 572 278 601 164 578 z m 189 981 b 232 1022 211 981 232 1001 b 189 1065 232 1044 211 1065 b 147 1022 168 1065 147 1044 b 189 981 147 1001 168 981 z m 381 982 b 422 1024 403 982 422 1003 b 381 1067 422 1046 403 1067 b 339 1024 358 1067 339 1046 b 381 982 339 1003 358 982 z "},"":{"ha":649,"x_min":0,"x_max":0,"o":"m 99 -150 b 481 151 186 -150 313 -49 b 711 457 606 303 710 456 b 718 481 717 465 718 474 b 678 522 718 500 700 522 b 644 504 667 522 651 515 b 100 -69 492 278 214 -69 b 19 114 42 -69 19 1 b 114 643 19 289 81 535 l 115 653 b 76 694 115 678 97 692 b 35 665 60 694 42 682 b -61 118 31 649 -61 347 b 99 -150 -61 -24 -19 -150 z m 114 889 b 154 929 138 889 154 913 b 144 957 154 939 150 950 l 0 1113 b -29 1126 -7 1121 -19 1126 b -71 1085 -50 1126 -71 1106 b -61 1058 -71 1076 -67 1065 l 83 903 b 114 889 90 894 103 889 z "},"":{"ha":649,"x_min":0,"x_max":0,"o":"m 99 -150 b 481 151 186 -150 313 -49 b 711 457 606 303 710 456 b 718 481 717 465 718 474 b 678 522 718 500 700 522 b 644 504 667 522 651 515 b 100 -69 492 278 214 -69 b 19 114 42 -69 19 1 b 114 643 19 289 81 535 l 115 653 b 76 694 115 678 97 692 b 35 665 60 694 42 682 b -61 118 31 649 -61 347 b 99 -150 -61 -24 -19 -150 z m 115 879 b 146 893 126 879 139 885 l 290 1049 b 300 1075 296 1056 300 1067 b 258 1117 300 1096 279 1117 b 229 1103 249 1117 236 1111 l 85 947 b 75 919 79 940 75 929 b 115 879 75 903 92 879 z "},"":{"ha":649,"x_min":0,"x_max":0,"o":"m 99 -150 b 481 151 186 -150 313 -49 b 711 457 606 303 710 456 b 718 481 717 465 718 474 b 678 522 718 500 700 522 b 644 504 667 522 651 515 b 100 -69 492 278 214 -69 b 19 114 42 -69 19 1 b 114 643 19 289 81 535 l 115 653 b 76 694 115 678 97 692 b 35 665 60 694 42 682 b -61 118 31 649 -61 347 b 99 -150 -61 -24 -19 -150 z m -51 893 b -19 908 -40 893 -26 900 l 131 1097 l 233 933 b 268 915 242 922 257 915 b 310 956 289 915 310 936 b 304 978 310 963 307 971 l 169 1188 b 138 1208 164 1200 150 1207 b 103 1193 125 1208 110 1201 l -83 960 b -92 935 -89 953 -92 943 b -51 893 -92 915 -71 893 z "},"":{"ha":649,"x_min":0,"x_max":0,"o":"m 99 -150 b 481 151 186 -150 313 -49 b 711 457 606 303 710 456 b 718 481 717 465 718 474 b 678 522 718 500 700 522 b 644 504 667 522 651 515 b 100 -69 492 278 214 -69 b 19 114 42 -69 19 1 b 114 643 19 289 81 535 l 115 653 b 76 694 115 678 97 692 b 35 665 60 694 42 682 b -61 118 31 649 -61 347 b 99 -150 -61 -24 -19 -150 z m 36 929 b 79 971 58 929 79 950 b 36 1014 79 993 58 1014 b -6 971 15 1014 -6 993 b 36 929 -6 950 15 929 z m 228 931 b 269 972 250 931 269 951 b 228 1015 269 994 250 1015 b 186 972 206 1015 186 994 b 228 931 186 951 206 931 z "},"":{"ha":1068,"x_min":0,"x_max":0,"o":"m -33 -169 b 8 -139 -28 -169 -1 -167 l 15 -117 b 414 704 238 643 374 704 b 631 26 521 700 376 26 b 933 225 706 26 806 93 b 1121 440 1036 329 1117 436 b 1129 465 1126 449 1129 458 b 1089 506 1129 485 1108 506 b 1056 489 1076 506 1063 500 b 633 108 939 336 728 108 b 424 785 468 128 636 764 l 413 785 b 106 396 313 785 211 654 b 43 242 81 335 43 242 b 125 815 81 561 110 765 b 139 844 133 819 139 832 b 99 886 139 865 119 886 l 97 886 b 54 843 64 885 54 843 b -24 369 38 793 14 672 b -74 -122 -24 365 -74 -37 b -33 -169 -72 -144 -65 -169 z m 90 1479 b 132 1514 114 1479 125 1496 b 161 1586 156 1585 164 1586 b 335 1483 193 1581 272 1483 b 453 1626 404 1483 442 1593 l 454 1636 b 414 1678 454 1660 436 1675 b 374 1647 397 1678 379 1665 b 333 1564 364 1608 342 1567 b 272 1608 326 1564 293 1592 b 164 1667 226 1644 203 1665 b 56 1540 97 1667 65 1574 b 50 1519 51 1535 50 1528 b 90 1479 50 1501 71 1479 z "},"":{"ha":890,"x_min":0,"x_max":0,"o":"m 97 -118 b 360 304 246 -115 342 79 b 515 275 397 288 458 275 b 942 442 738 275 933 435 b 956 474 950 450 956 463 b 915 514 956 493 935 514 b 889 504 907 514 897 510 b 517 357 886 501 708 357 b 365 390 460 357 407 369 l 365 407 b 301 701 365 528 346 642 b 208 756 272 743 236 756 b 101 661 151 751 113 721 l 101 664 b -79 156 -4 565 -79 338 b 94 -118 -79 -3 -19 -118 z m 96 -36 l 92 -36 b 3 153 31 -36 3 39 b 114 553 3 296 53 472 b 283 344 128 497 193 401 b 96 -36 269 150 201 -36 z m 285 443 b 181 633 225 489 181 574 b 204 674 181 669 196 672 l 208 674 b 236 656 217 674 224 671 b 285 443 267 611 283 522 z m 201 885 b 242 925 225 885 242 908 b 232 953 242 935 238 946 l 88 1108 b 58 1122 81 1117 68 1122 b 17 1081 38 1122 17 1101 b 26 1054 17 1072 21 1061 l 171 899 b 201 885 178 890 190 885 z "},"":{"ha":890,"x_min":0,"x_max":0,"o":"m 97 -118 b 360 304 246 -115 342 79 b 515 275 397 288 458 275 b 942 442 738 275 933 435 b 956 474 950 450 956 463 b 915 514 956 493 935 514 b 889 504 907 514 897 510 b 517 357 886 501 708 357 b 365 390 460 357 407 369 l 365 407 b 301 701 365 528 346 642 b 208 756 272 743 236 756 b 101 661 151 751 113 721 l 101 664 b -79 156 -4 565 -79 338 b 94 -118 -79 -3 -19 -118 z m 96 -36 l 92 -36 b 3 153 31 -36 3 39 b 114 553 3 296 53 472 b 283 344 128 497 193 401 b 96 -36 269 150 201 -36 z m 285 443 b 181 633 225 489 181 574 b 204 674 181 669 196 672 l 208 674 b 236 656 217 674 224 671 b 285 443 267 611 283 522 z m 203 875 b 233 889 214 875 226 881 l 378 1044 b 388 1071 383 1051 388 1063 b 346 1113 388 1092 367 1113 b 317 1099 336 1113 324 1107 l 172 943 b 163 915 167 936 163 925 b 203 875 163 899 179 875 z "},"":{"ha":890,"x_min":0,"x_max":0,"o":"m 97 -118 b 360 304 246 -115 342 79 b 515 275 397 288 458 275 b 942 442 738 275 933 435 b 956 474 950 450 956 463 b 915 514 956 493 935 514 b 889 504 907 514 897 510 b 517 357 886 501 708 357 b 365 390 460 357 407 369 l 365 407 b 301 701 365 528 346 642 b 208 756 272 743 236 756 b 101 661 151 751 113 721 l 101 664 b -79 156 -4 565 -79 338 b 94 -118 -79 -3 -19 -118 z m 96 -36 l 92 -36 b 3 153 31 -36 3 39 b 114 553 3 296 53 472 b 283 344 128 497 193 401 b 96 -36 269 150 201 -36 z m 285 443 b 181 633 225 489 181 574 b 204 674 181 669 196 672 l 208 674 b 236 656 217 674 224 671 b 285 443 267 611 283 522 z m 36 889 b 68 904 47 889 61 896 l 218 1093 l 321 929 b 356 911 329 918 344 911 b 397 951 376 911 397 932 b 392 974 397 958 394 967 l 257 1183 b 225 1204 251 1196 238 1203 b 190 1189 213 1204 197 1197 l 4 956 b -4 931 -1 949 -4 939 b 36 889 -4 911 17 889 z "},"":{"ha":890,"x_min":0,"x_max":0,"o":"m 97 -118 b 360 304 246 -115 342 79 b 515 275 397 288 458 275 b 942 442 738 275 933 435 b 956 474 950 450 956 463 b 915 514 956 493 935 514 b 889 504 907 514 897 510 b 517 357 886 501 708 357 b 365 390 460 357 407 369 l 365 407 b 301 701 365 528 346 642 b 208 756 272 743 236 756 b 101 661 151 751 113 721 l 101 664 b -79 156 -4 565 -79 338 b 94 -118 -79 -3 -19 -118 z m 96 -36 l 92 -36 b 3 153 31 -36 3 39 b 114 553 3 296 53 472 b 283 344 128 497 193 401 b 96 -36 269 150 201 -36 z m 285 443 b 181 633 225 489 181 574 b 204 674 181 669 196 672 l 208 674 b 236 656 217 674 224 671 b 285 443 267 611 283 522 z m 90 1479 b 132 1514 114 1479 125 1496 b 161 1586 156 1585 164 1586 b 335 1483 193 1581 272 1483 b 453 1626 404 1483 442 1593 l 454 1636 b 414 1678 454 1660 436 1675 b 374 1647 397 1678 379 1665 b 333 1564 364 1608 342 1567 b 272 1608 326 1564 293 1592 b 164 1667 226 1644 203 1665 b 56 1540 97 1667 65 1574 b 50 1519 51 1535 50 1528 b 90 1479 50 1501 71 1479 z "},"":{"ha":890,"x_min":0,"x_max":0,"o":"m 97 -118 b 360 304 246 -115 342 79 b 515 275 397 288 458 275 b 942 442 738 275 933 435 b 956 474 950 450 956 463 b 915 514 956 493 935 514 b 889 504 907 514 897 510 b 517 357 886 501 708 357 b 365 390 460 357 407 369 l 365 407 b 301 701 365 528 346 642 b 208 756 272 743 236 756 b 101 661 151 751 113 721 l 101 664 b -79 156 -4 565 -79 338 b 94 -118 -79 -3 -19 -118 z m 96 -36 l 92 -36 b 3 153 31 -36 3 39 b 114 553 3 296 53 472 b 283 344 128 497 193 401 b 96 -36 269 150 201 -36 z m 285 443 b 181 633 225 489 181 574 b 204 674 181 669 196 672 l 208 674 b 236 656 217 674 224 671 b 285 443 267 611 283 522 z m 124 925 b 167 967 146 925 167 946 b 124 1010 167 989 146 1010 b 82 967 103 1010 82 989 b 124 925 82 946 103 925 z m 315 926 b 357 968 338 926 357 947 b 315 1011 357 990 338 1011 b 274 968 293 1011 274 990 b 315 926 274 947 293 926 z "},"":{"ha":1065,"x_min":0,"x_max":0,"o":"m 778 422 b 818 463 799 422 818 442 b 778 503 818 483 799 503 l 246 503 b 206 463 225 503 206 483 b 246 422 206 442 225 422 z m 517 611 b 560 653 539 611 560 632 b 517 696 560 675 539 696 b 475 653 496 696 475 675 b 517 611 475 632 496 611 z m 472 246 b 515 289 494 246 515 267 b 472 331 515 310 494 331 b 431 289 451 331 431 310 b 472 246 431 267 451 246 z "},"":{"ha":890,"x_min":0,"x_max":0,"o":"m 224 515 b 181 636 196 551 181 592 b 203 674 183 669 199 674 l 208 674 b 219 669 211 674 215 672 b 265 586 236 661 254 626 z m 94 -36 b 25 18 64 -36 40 -18 l 25 14 l 238 379 b 283 346 249 369 264 358 b 94 -36 274 163 201 -35 z m 1 133 b 3 153 3 133 3 139 b 114 551 3 285 49 460 b 179 439 122 517 144 479 l 1 136 z m 285 446 l 279 450 l 285 458 z m 96 -118 b 360 304 250 -114 343 83 b 515 275 404 285 456 275 b 604 283 539 275 568 278 b 942 443 751 304 929 429 b 956 472 951 451 956 463 b 947 499 956 481 953 489 b 915 513 936 508 926 513 b 889 504 907 513 899 510 b 515 357 885 500 707 357 b 365 390 456 357 407 368 l 365 414 b 208 756 365 621 307 756 b 101 661 149 750 113 718 l 101 664 b -79 160 -10 549 -79 332 b 96 -118 -79 6 -26 -114 z "},"":{"ha":1143,"x_min":0,"x_max":0,"o":"m 592 -392 b 997 40 703 -392 836 -246 b 1213 479 1118 254 1213 478 b 1215 494 1214 482 1215 489 b 1175 533 1215 515 1194 533 b 1138 508 1160 533 1143 524 b 586 -310 986 149 735 -310 b 572 -299 583 -308 579 -308 b 535 -57 546 -261 535 -174 b 644 888 535 235 606 685 l 644 893 b 606 935 644 917 628 933 b 567 910 590 935 571 924 b 379 419 565 908 485 658 b 81 -22 206 26 115 -22 b 18 129 33 -19 18 38 b 108 621 18 289 76 519 b 71 672 108 621 121 668 b 31 644 54 674 38 667 b -62 135 18 604 -62 336 b 79 -104 -62 -11 -21 -94 b 453 386 185 -104 310 60 l 497 485 b 453 -53 479 372 453 119 b 592 -392 453 -304 499 -383 z m 290 825 b 331 865 314 825 331 849 b 321 893 331 875 326 886 l 176 1049 b 147 1063 169 1057 157 1063 b 106 1021 126 1063 106 1042 b 115 994 106 1013 110 1001 l 260 839 b 290 825 267 831 279 825 z "},"":{"ha":1143,"x_min":0,"x_max":0,"o":"m 592 -392 b 997 40 703 -392 836 -246 b 1213 479 1118 254 1213 478 b 1215 494 1214 482 1215 489 b 1175 533 1215 515 1194 533 b 1138 508 1160 533 1143 524 b 586 -310 986 149 735 -310 b 572 -299 583 -308 579 -308 b 535 -57 546 -261 535 -174 b 644 888 535 235 606 685 l 644 893 b 606 935 644 917 628 933 b 567 910 590 935 571 924 b 379 419 565 908 485 658 b 81 -22 206 26 115 -22 b 18 129 33 -19 18 38 b 108 621 18 289 76 519 b 71 672 108 621 121 668 b 31 644 54 674 38 667 b -62 135 18 604 -62 336 b 79 -104 -62 -11 -21 -94 b 453 386 185 -104 310 60 l 497 485 b 453 -53 479 372 453 119 b 592 -392 453 -304 499 -383 z m 292 815 b 322 829 303 815 315 821 l 467 985 b 476 1011 472 992 476 1003 b 435 1053 476 1032 456 1053 b 406 1039 425 1053 413 1047 l 261 883 b 251 856 256 876 251 865 b 292 815 251 839 268 815 z "},"":{"ha":1143,"x_min":0,"x_max":0,"o":"m 592 -392 b 997 40 703 -392 836 -246 b 1213 479 1118 254 1213 478 b 1215 494 1214 482 1215 489 b 1175 533 1215 515 1194 533 b 1138 508 1160 533 1143 524 b 586 -310 986 149 735 -310 b 572 -299 583 -308 579 -308 b 535 -57 546 -261 535 -174 b 644 888 535 235 606 685 l 644 893 b 606 935 644 917 628 933 b 567 910 590 935 571 924 b 379 419 565 908 485 658 b 81 -22 206 26 115 -22 b 18 129 33 -19 18 38 b 108 621 18 289 76 519 b 71 672 108 621 121 668 b 31 644 54 674 38 667 b -62 135 18 604 -62 336 b 79 -104 -62 -11 -21 -94 b 453 386 185 -104 310 60 l 497 485 b 453 -53 479 372 453 119 b 592 -392 453 -304 499 -383 z m 125 829 b 157 844 136 829 150 836 l 307 1033 l 410 869 b 444 851 418 858 433 851 b 486 892 465 851 486 872 b 481 914 486 899 483 907 l 346 1124 b 314 1144 340 1136 326 1143 b 279 1129 301 1144 286 1138 l 93 896 b 85 871 88 889 85 879 b 125 829 85 851 106 829 z "},"":{"ha":1143,"x_min":0,"x_max":0,"o":"m 592 -392 b 997 40 703 -392 836 -246 b 1213 479 1118 254 1213 478 b 1215 494 1214 482 1215 489 b 1175 533 1215 515 1194 533 b 1138 508 1160 533 1143 524 b 586 -310 986 149 735 -310 b 572 -299 583 -308 579 -308 b 535 -57 546 -261 535 -174 b 644 888 535 235 606 685 l 644 893 b 606 935 644 917 628 933 b 567 910 590 935 571 924 b 379 419 565 908 485 658 b 81 -22 206 26 115 -22 b 18 129 33 -19 18 38 b 108 621 18 289 76 519 b 71 672 108 621 121 668 b 31 644 54 674 38 667 b -62 135 18 604 -62 336 b 79 -104 -62 -11 -21 -94 b 453 386 185 -104 310 60 l 497 485 b 453 -53 479 372 453 119 b 592 -392 453 -304 499 -383 z m 213 865 b 256 907 235 865 256 886 b 213 950 256 929 235 950 b 171 907 192 950 171 929 b 213 865 171 886 192 865 z m 404 867 b 446 908 426 867 446 888 b 404 951 446 931 426 951 b 363 908 382 951 363 931 b 404 867 363 888 382 867 z "},"":{"ha":1115,"x_min":0,"x_max":0,"o":"m 133 -1596 b 478 -1189 246 -1596 375 -1443 b 729 -7 588 -924 671 -451 b 736 4 731 -6 733 0 b 1193 475 976 293 1190 474 b 1208 507 1203 483 1208 497 b 1167 549 1208 528 1188 549 b 1140 539 1158 549 1149 544 b 749 142 1139 538 947 372 b 846 1168 813 654 844 1128 b 806 1210 846 1197 824 1207 b 753 1156 779 1210 767 1185 l 714 1071 b 78 65 593 807 276 99 b 38 207 57 65 38 104 b 78 511 38 289 51 396 b 204 832 121 693 176 817 b 225 867 217 839 225 854 b 186 907 225 886 207 907 b 167 903 181 907 172 906 b -3 529 78 856 10 582 b -44 210 -14 476 -44 335 b 81 -15 -44 83 -7 -15 b 749 953 276 -15 558 535 b 651 28 739 819 704 431 b 24 -1114 431 -242 147 -656 b -12 -1360 0 -1206 -12 -1289 b 133 -1596 -12 -1507 51 -1596 z m 133 -1514 b 68 -1360 90 -1507 68 -1475 b 103 -1135 68 -1300 78 -1225 b 631 -129 211 -729 451 -357 b 403 -1160 579 -500 501 -917 b 133 -1514 293 -1428 186 -1514 z m 415 1074 b 446 1088 426 1074 439 1079 l 590 1243 b 600 1269 596 1250 600 1261 b 558 1311 600 1290 579 1311 b 529 1297 549 1311 536 1306 l 385 1142 b 375 1114 379 1135 375 1124 b 415 1074 375 1097 392 1074 z "},"":{"ha":1115,"x_min":0,"x_max":0,"o":"m 133 -1596 b 478 -1189 246 -1596 375 -1443 b 729 -7 588 -924 671 -451 b 736 4 731 -6 733 0 b 1193 475 976 293 1190 474 b 1208 507 1203 483 1208 497 b 1167 549 1208 528 1188 549 b 1140 539 1158 549 1149 544 b 749 142 1139 538 947 372 b 846 1168 813 654 844 1128 b 806 1210 846 1197 824 1207 b 753 1156 779 1210 767 1185 l 714 1071 b 78 65 593 807 276 99 b 38 207 57 65 38 104 b 78 511 38 289 51 396 b 204 832 121 693 176 817 b 225 867 217 839 225 854 b 186 907 225 886 207 907 b 167 903 181 907 172 906 b -3 529 78 856 10 582 b -44 210 -14 476 -44 335 b 81 -15 -44 83 -7 -15 b 749 953 276 -15 558 535 b 651 28 739 819 704 431 b 24 -1114 431 -242 147 -656 b -12 -1360 0 -1206 -12 -1289 b 133 -1596 -12 -1507 51 -1596 z m 133 -1514 b 68 -1360 90 -1507 68 -1475 b 103 -1135 68 -1300 78 -1225 b 631 -129 211 -729 451 -357 b 403 -1160 579 -500 501 -917 b 133 -1514 293 -1428 186 -1514 z m 336 1124 b 379 1165 358 1124 379 1144 b 336 1208 379 1188 358 1208 b 294 1165 315 1208 294 1188 b 336 1124 294 1144 315 1124 z m 528 1125 b 569 1167 550 1125 569 1146 b 528 1210 569 1189 550 1210 b 486 1167 506 1210 486 1189 b 528 1125 486 1146 506 1125 z "},"":{"ha":325,"x_min":0,"x_max":0,"o":"m 235 1450 b 275 1490 258 1450 275 1474 b 265 1518 275 1500 271 1511 l 121 1674 b 92 1688 114 1682 101 1688 b 50 1646 71 1688 50 1667 b 60 1619 50 1638 54 1626 l 204 1464 b 235 1450 211 1456 224 1450 z "},"":{"ha":325,"x_min":0,"x_max":0,"o":"m 90 1450 b 121 1464 101 1450 114 1456 l 265 1619 b 275 1646 271 1626 275 1638 b 233 1688 275 1667 254 1688 b 204 1674 224 1688 211 1682 l 60 1518 b 50 1490 54 1511 50 1500 b 90 1450 50 1474 67 1450 z "},"":{"ha":501,"x_min":0,"x_max":0,"o":"m 90 1425 b 122 1440 101 1425 115 1432 l 272 1629 l 375 1465 b 410 1447 383 1454 399 1447 b 451 1488 431 1447 451 1468 b 446 1510 451 1494 449 1503 l 311 1719 b 279 1740 306 1732 292 1739 b 244 1725 267 1740 251 1733 l 58 1492 b 50 1467 53 1485 50 1475 b 90 1425 50 1447 71 1425 z "},"":{"ha":503,"x_min":0,"x_max":0,"o":"m 90 1479 b 132 1514 114 1479 125 1496 b 161 1586 156 1585 164 1586 b 335 1483 193 1581 272 1483 b 453 1626 404 1483 442 1593 l 454 1636 b 414 1678 454 1660 436 1675 b 374 1647 397 1678 379 1665 b 333 1564 364 1608 342 1567 b 272 1608 326 1564 293 1592 b 164 1667 226 1644 203 1665 b 56 1540 97 1667 65 1574 b 50 1519 51 1535 50 1528 b 90 1479 50 1501 71 1479 z "},"":{"ha":375,"x_min":0,"x_max":0,"o":"m 92 1508 b 135 1550 114 1508 135 1529 b 92 1593 135 1572 114 1593 b 50 1550 71 1593 50 1572 b 92 1508 50 1529 71 1508 z m 283 1510 b 325 1551 306 1510 325 1531 b 283 1594 325 1574 306 1594 b 242 1551 261 1594 242 1574 b 283 1510 242 1531 261 1510 z "},"":{"ha":401,"x_min":0,"x_max":0,"o":"m 196 1392 b 351 1565 294 1392 351 1489 b 303 1672 349 1613 339 1644 b 211 1704 278 1692 244 1704 b 50 1538 114 1697 50 1638 b 196 1392 50 1456 118 1392 z m 194 1474 b 131 1538 158 1474 131 1499 b 201 1622 131 1606 178 1619 l 211 1624 b 269 1567 250 1624 268 1604 b 206 1475 269 1531 258 1483 z "},"":{"ha":501,"x_min":0,"x_max":0,"o":"m 225 1425 b 257 1439 236 1425 249 1432 l 442 1674 b 451 1699 447 1681 451 1690 b 411 1739 451 1719 431 1739 b 379 1725 400 1739 388 1733 l 229 1535 l 125 1699 b 90 1718 118 1710 103 1718 b 50 1678 71 1718 50 1699 b 56 1656 50 1671 53 1661 l 190 1443 b 224 1425 196 1435 210 1425 z "},"":{"ha":563,"x_min":0,"x_max":0,"o":"m 158 -1406 b 510 -1214 269 -1406 486 -1382 l 513 -1183 b 469 -1081 513 -1142 497 -1106 b 307 -1032 428 -1042 361 -1032 b 258 -1035 282 -1032 258 -1033 b 313 -840 289 -924 307 -864 b 271 -799 313 -819 290 -799 b 235 -821 257 -799 242 -807 b 164 -1074 229 -835 192 -967 l 163 -1083 b 206 -1124 163 -1106 185 -1124 b 306 -1114 231 -1122 260 -1114 b 431 -1183 376 -1114 431 -1128 b 429 -1203 431 -1189 431 -1196 b 160 -1324 414 -1308 254 -1324 b 93 -1321 122 -1324 94 -1321 l 90 -1321 b 50 -1361 69 -1321 51 -1339 b 86 -1403 50 -1379 67 -1399 b 158 -1406 92 -1403 119 -1406 z "},"":{"ha":229,"x_min":0,"x_max":0,"o":"m 138 1050 b 179 1092 164 1050 179 1074 l 178 1101 l 129 1246 b 89 1274 124 1263 106 1274 b 50 1232 67 1269 50 1256 l 51 1221 l 99 1078 b 138 1050 104 1061 122 1050 z "},"":{"ha":229,"x_min":0,"x_max":0,"o":"m 90 1050 b 129 1079 107 1050 125 1061 l 178 1221 l 179 1231 b 139 1274 179 1256 163 1271 b 99 1246 122 1274 106 1263 l 51 1101 l 50 1092 b 90 1050 50 1071 71 1050 z "},"":{"ha":375,"x_min":0,"x_max":0,"o":"m 138 1050 b 179 1092 164 1050 179 1074 l 178 1101 l 129 1246 b 89 1274 124 1263 106 1274 b 50 1232 67 1269 50 1256 l 51 1221 l 99 1078 b 138 1050 104 1061 122 1050 z m 285 1050 b 325 1089 299 1050 325 1065 b 322 1103 325 1093 325 1099 l 276 1246 b 236 1274 271 1263 253 1274 b 197 1233 214 1269 197 1256 b 200 1219 197 1229 197 1224 l 246 1078 b 285 1050 251 1061 269 1050 z "},"":{"ha":375,"x_min":0,"x_max":0,"o":"m 90 1050 b 129 1079 107 1050 125 1061 l 178 1221 l 179 1231 b 139 1274 179 1256 163 1271 b 99 1246 122 1274 106 1263 l 51 1101 l 50 1092 b 90 1050 50 1071 71 1050 z m 238 1050 b 276 1078 253 1050 271 1061 l 322 1219 b 325 1233 325 1224 325 1229 b 286 1274 325 1257 308 1271 b 246 1246 269 1274 251 1263 l 199 1101 l 197 1090 b 238 1050 197 1069 218 1050 z "},"":{"ha":1418,"x_min":0,"x_max":0,"o":"m 535 -201 b 1210 383 869 -201 1196 358 b 1214 401 1213 389 1214 396 b 1174 443 1214 422 1194 443 b 1139 424 1161 443 1146 435 b 540 -119 1135 418 825 -118 b 381 113 426 -106 381 -28 b 431 393 381 193 399 290 b 610 403 482 399 549 403 b 832 364 708 403 794 392 b 856 356 838 358 847 356 b 897 397 876 356 897 376 b 882 428 897 408 890 421 b 611 485 826 471 721 485 b 458 476 554 485 494 481 b 513 607 469 506 492 567 b 669 614 557 611 614 614 b 908 575 771 614 863 604 b 929 569 915 572 922 569 b 969 610 949 569 969 590 b 951 644 969 622 963 636 b 671 696 890 683 781 696 b 553 692 624 696 576 693 b 922 1119 675 944 828 1119 b 1054 826 1010 1119 1054 956 b 1044 746 1054 790 1049 772 b 1085 704 1044 724 1064 708 b 1135 826 1129 704 1135 768 b 1000 1181 1135 944 1097 1119 b 922 1201 979 1192 953 1201 b 749 1118 878 1201 818 1181 b 458 683 653 1031 542 863 b 265 621 269 667 265 649 b 306 582 267 599 283 582 b 419 599 332 586 363 593 b 368 465 401 560 393 533 b 192 394 283 454 192 444 b 232 356 196 371 210 356 b 247 358 235 356 242 356 b 342 381 271 367 313 375 b 300 110 321 308 300 204 b 531 -200 300 -57 372 -182 z "},"":{"ha":1238,"x_min":0,"x_max":0,"o":"m 217 -935 b 597 -850 338 -935 481 -901 b 958 -443 833 -749 956 -604 b 703 33 958 -276 844 -115 b 1265 410 983 244 1258 407 b 1285 446 1276 418 1285 432 b 1244 486 1285 465 1265 486 b 1222 481 1238 486 1229 483 b 646 93 1200 468 926 304 b 172 560 508 233 319 393 b 71 796 104 635 71 713 b 949 1499 71 1154 700 1499 b 1069 1454 1006 1499 1044 1485 b 1107 1329 1099 1422 1107 1375 b 1089 1206 1107 1265 1089 1206 b 1088 1193 1088 1203 1088 1197 b 1126 1153 1088 1171 1104 1156 b 1167 1182 1143 1153 1161 1165 b 1188 1329 1168 1188 1188 1253 b 1132 1508 1188 1389 1175 1457 b 946 1579 1089 1554 1025 1579 b 865 1572 921 1579 893 1576 b 15 936 639 1535 133 1275 b -11 794 -3 889 -11 840 b 111 506 -11 693 31 594 b 581 43 250 347 440 183 b -62 -744 254 -210 -62 -533 b -8 -869 -62 -804 -35 -846 b 217 -935 43 -914 126 -935 z m 217 -854 b 19 -744 93 -854 19 -821 b 639 -17 19 -554 368 -225 b 878 -444 775 -160 878 -303 b 564 -776 876 -569 767 -689 b 217 -854 443 -828 318 -854 z m 621 1721 b 653 1735 632 1721 644 1728 l 838 1969 b 847 1994 843 1976 847 1986 b 807 2035 847 2015 826 2035 b 775 2021 796 2035 783 2029 l 625 1831 l 521 1994 b 486 2014 514 2006 499 2014 b 446 1974 467 2014 446 1994 b 451 1951 446 1967 449 1957 l 586 1739 b 619 1721 592 1731 606 1721 z "},"":{"ha":1550,"x_min":0,"x_max":0,"o":"m 581 -1021 b 771 -871 628 -1021 697 -990 b 1083 128 885 -683 993 -296 b 1115 154 1085 129 1104 146 b 1574 417 1353 324 1572 417 b 1601 456 1590 425 1601 440 b 1560 496 1601 475 1581 496 b 1544 493 1556 496 1550 496 b 1107 247 1542 492 1324 399 b 1344 1668 1242 894 1338 1619 l 1344 1672 b 1306 1714 1344 1694 1328 1713 b 1267 1689 1290 1714 1272 1704 b 872 900 1265 1685 1089 1288 b 274 179 528 285 353 179 b 132 540 174 189 132 303 b 176 971 132 664 146 813 b 290 1375 218 1193 269 1344 l 289 1376 l 297 1376 b 338 1417 315 1376 338 1396 b 283 1468 338 1449 301 1468 b 189 1342 257 1465 231 1457 b 50 532 115 1144 50 785 b 272 97 53 258 128 97 b 944 863 436 97 657 350 b 1225 1407 1074 1093 1188 1328 b 1010 176 1197 1211 1114 672 b 429 -761 604 -128 429 -469 b 542 -1012 429 -890 471 -987 b 581 -1021 551 -1018 565 -1021 z m 581 -939 b 511 -764 542 -939 511 -876 b 519 -657 511 -732 514 -696 b 982 51 565 -347 796 -97 b 701 -828 903 -306 804 -660 b 581 -939 657 -901 614 -939 z m 635 1697 b 678 1739 657 1697 678 1718 b 635 1782 678 1761 657 1782 b 593 1739 614 1782 593 1761 b 635 1697 593 1718 614 1697 z m 826 1699 b 868 1740 849 1699 868 1719 b 826 1783 868 1763 849 1783 b 785 1740 804 1783 785 1763 b 826 1699 785 1719 804 1699 z "},"":{"ha":1193,"x_min":0,"x_max":0,"o":"m 118 -722 b 485 -487 210 -722 351 -632 b 810 163 671 -285 789 -35 b 1219 410 1026 306 1215 407 b 1239 444 1231 417 1239 432 b 1200 486 1239 464 1221 486 b 810 261 1175 486 1036 408 b 517 501 806 428 672 501 b 379 489 450 501 382 489 b 1289 1557 610 675 1250 1228 l 1292 1592 b 992 1826 1292 1742 1144 1826 b -203 1150 576 1826 -121 1324 b -164 1093 -221 1122 -187 1088 b -128 1117 -150 1093 -135 1103 b 272 1458 -103 1174 47 1313 b 990 1746 556 1644 817 1746 b 1210 1592 1110 1746 1210 1692 b 164 421 1185 1194 176 429 b 147 389 154 414 147 400 b 190 347 147 369 167 347 l 204 350 b 518 421 207 353 372 421 b 731 217 646 421 731 372 l 731 208 b 13 -604 415 -3 17 -326 b 104 -722 13 -699 78 -719 z m 119 -642 l 113 -642 b 94 -604 103 -640 94 -639 b 718 100 97 -374 438 -92 l 719 113 l 717 100 b 119 -642 629 -310 249 -642 z m 592 1908 b 624 1922 603 1908 615 1915 l 808 2157 b 818 2182 814 2164 818 2174 b 778 2222 818 2203 797 2222 b 746 2208 767 2222 754 2217 l 596 2018 l 492 2182 b 457 2201 485 2193 469 2201 b 417 2161 438 2201 417 2182 b 422 2139 417 2154 419 2144 l 557 1926 b 590 1908 563 1918 576 1908 z "},"":{"ha":753,"x_min":0,"x_max":0,"o":"m 233 -319 b 479 -10 331 -319 479 -168 b 451 104 479 35 465 76 b 813 463 608 268 810 460 b 826 492 821 469 826 482 b 785 533 826 513 804 533 b 757 521 775 533 764 529 b 404 174 746 510 556 329 b 68 460 303 300 82 360 l 67 474 b 375 764 67 588 247 728 b 404 768 386 767 396 768 b 481 611 467 768 481 681 l 479 575 b 521 533 479 553 499 535 b 561 571 539 533 560 550 l 563 607 b 492 819 563 663 553 767 b 406 850 468 839 438 850 b -14 472 269 850 -14 649 b 181 243 -7 363 67 315 b 347 115 246 201 313 161 b 208 -43 294 58 242 0 b 131 -217 149 -119 131 -176 b 158 -289 131 -253 147 -278 b 233 -319 176 -308 204 -319 z m 233 -237 b 213 -215 215 -237 213 -233 b 271 -94 213 -189 228 -149 b 389 40 301 -56 349 -3 b 397 -11 393 29 397 17 b 278 -222 397 -111 314 -196 b 233 -237 261 -233 246 -237 z m 296 936 b 328 950 307 936 319 943 l 513 1185 b 522 1210 518 1192 522 1201 b 482 1250 522 1231 501 1250 b 450 1236 471 1250 458 1244 l 300 1046 l 196 1210 b 161 1229 189 1221 174 1229 b 121 1189 142 1229 121 1210 b 126 1167 121 1182 124 1172 l 261 954 b 294 936 267 946 281 936 z "},"":{"ha":1225,"x_min":0,"x_max":0,"o":"m 119 -1289 b 414 -1047 200 -1289 308 -1201 b 776 -340 550 -854 688 -583 b 878 119 828 -199 878 -22 l 878 140 b 1271 443 1089 328 1267 442 b 1289 478 1282 451 1289 465 b 1249 518 1289 497 1268 518 b 1225 511 1242 518 1233 515 b 864 236 1224 510 1057 403 b 839 290 863 243 851 268 b 569 431 768 406 663 431 b 389 417 500 431 433 417 l 407 415 b 735 778 456 472 718 614 l 736 807 b 557 986 736 915 658 986 b 401 946 511 986 457 972 b 26 560 249 871 104 668 l -6 517 b -14 492 -11 510 -14 500 b 26 451 -14 472 7 451 b 58 468 38 451 53 458 l 92 514 b 438 872 165 617 303 807 b 557 906 482 894 522 906 b 656 806 621 906 656 871 l 654 786 b 429 536 644 706 522 608 b 306 397 336 463 307 438 b 396 335 306 353 356 335 b 571 350 443 335 506 350 b 793 172 660 350 769 325 b 64 -844 528 -64 210 -415 b 7 -1128 26 -960 7 -1056 b 119 -1289 7 -1228 47 -1289 z m 119 -1207 b 88 -1128 99 -1207 88 -1190 b 143 -871 88 -1074 101 -992 b 796 67 274 -479 576 -136 b 349 -1001 788 -167 582 -667 b 119 -1207 239 -1158 158 -1207 z m 461 1117 b 493 1131 472 1117 485 1124 l 678 1365 b 688 1390 683 1372 688 1382 b 647 1431 688 1411 667 1431 b 615 1417 636 1431 624 1425 l 465 1226 l 361 1390 b 326 1410 354 1401 339 1410 b 286 1369 307 1410 286 1390 b 292 1347 286 1363 289 1353 l 426 1135 b 460 1117 432 1126 446 1117 z "},"":{"ha":649,"x_min":0,"x_max":0,"o":"m 99 -150 b 481 151 186 -150 313 -49 b 711 457 606 303 710 456 b 718 481 717 465 718 474 b 678 522 718 500 700 522 b 644 504 667 522 651 515 b 100 -69 492 278 214 -69 b 19 114 42 -69 19 1 b 114 643 19 289 81 535 l 115 653 b 76 694 115 678 97 692 b 35 665 60 694 42 682 b -61 118 31 649 -61 347 b 99 -150 -61 -24 -19 -150 z "},"":{"ha":1221,"x_min":0,"x_max":0,"o":"m 843 -1199 b 915 -1150 868 -1199 915 -1187 b 874 -1110 910 -1128 901 -1110 b 843 -1118 853 -1114 850 -1118 b 769 -726 810 -1118 769 -997 b 915 658 769 -433 821 122 b 1183 1394 1006 865 1103 1126 b 1713 1413 1376 1406 1563 1413 b 2035 1383 1876 1413 1992 1404 l 2049 1381 b 2092 1421 2076 1381 2088 1397 b 2068 1458 2092 1436 2082 1453 b 1701 1493 2018 1482 1894 1493 b 1207 1478 1567 1493 1394 1488 b 1307 1968 1249 1618 1307 1843 b 1243 2083 1307 2040 1279 2083 b 1113 1894 1210 2082 1169 2054 b 992 1465 1074 1788 1032 1635 b 239 1410 664 1443 514 1433 b 354 1789 288 1621 335 1765 b 385 1829 367 1789 385 1811 b 342 1871 385 1851 363 1871 b 154 1401 278 1871 222 1701 b -349 1356 -132 1378 -344 1357 b -383 1315 -367 1354 -383 1333 b -340 1275 -382 1290 -361 1275 b 135 1319 -212 1288 -42 1304 b 49 882 106 1192 75 1033 b -42 4 17 688 -42 301 b -3 -304 -42 -121 -31 -232 b 119 -408 31 -389 83 -408 b 296 -310 168 -408 228 -374 b 790 392 469 -144 707 239 l 783 340 b 688 -732 729 -26 690 -372 b 843 -1199 688 -1056 742 -1199 z m 1078 1471 l 1100 1564 b 1229 1971 1176 1871 1225 1965 l 1226 1983 l 1226 1971 b 1121 1474 1226 1903 1194 1725 z m 119 -326 b 71 -272 111 -326 92 -326 b 40 7 50 -214 40 -119 b 218 1326 40 347 129 922 b 974 1382 454 1346 729 1367 b 836 683 928 1186 879 938 b 753 504 808 618 779 557 b 119 -326 549 110 239 -326 z m 986 1058 b 1057 1388 993 1092 1026 1251 l 1096 1389 b 986 1058 1053 1247 996 1082 z "},"":{"ha":1324,"x_min":0,"x_max":0,"o":"m 858 -1199 b 932 -1150 886 -1199 932 -1186 b 889 -1110 926 -1126 914 -1110 b 858 -1118 868 -1114 865 -1118 b 785 -729 826 -1118 785 -1000 b 940 713 785 -393 833 90 b 1129 1218 993 850 1064 1033 b 1328 1963 1279 1643 1328 1854 b 1258 2083 1328 2040 1301 2083 b 1128 1893 1225 2082 1186 2054 b 861 733 1044 1663 943 1215 l 768 501 b 464 -144 767 497 626 175 b 39 -771 165 -728 63 -771 b -26 -458 -1 -771 -26 -657 b 97 644 -26 -206 15 179 b 372 1790 210 1279 333 1739 b 401 1829 385 1792 401 1811 b 358 1871 401 1851 379 1871 b 322 1854 346 1871 332 1864 b 18 663 251 1790 111 1197 b -108 -458 -26 410 -108 -104 b -71 -758 -108 -583 -97 -690 b 39 -851 -43 -835 7 -851 b 536 -181 104 -851 231 -779 l 799 369 l 794 329 b 703 -732 742 0 706 -425 b 858 -1199 703 -1057 757 -1199 z m 1024 1164 b 1115 1564 1033 1213 1075 1403 b 1249 1978 1196 1882 1244 1971 l 1246 1985 b 1024 1164 1244 1881 1213 1671 z "}}}
